<?xml version="1.0" encoding="UTF-8"?>
<svg id="Layer_2" data-name="Layer 2" xmlns="http://www.w3.org/2000/svg" viewBox="0 0 381.44 220.74">
  <defs>
    <style>
      .cls-1 {
        fill: #231f20;
      }
    </style>
  </defs>
  <g id="Layer_1-2" data-name="Layer 1">
    <g>
      <path class="cls-1" d="M232.02,50.02h-8.03c-1.9,0-3.6,1.18-4.26,2.96l-11.27,30.29-13.67-52.28c-.52-2-2.34-3.4-4.41-3.39l-7.48.03c-2.2,0-4.07,1.59-4.45,3.75l-13.4,75.43-11.32-53.18c-.45-2.1-2.3-3.59-4.44-3.59h-8.03c-1.9,0-3.6,1.18-4.26,2.96l-11.27,30.29-13.67-52.28c-.52-2-2.34-3.4-4.41-3.39l-7.48.03c-2.2,0-4.07,1.59-4.45,3.75l-13.69,77.03L57.87,3.52C57.4,1.45,55.56,0,53.43,0l-7.39.03c-2.12,0-3.95,1.48-4.41,3.55L0,190.57h11.74c2.13,0,3.97-1.48,4.43-3.56L49.87,35.68l24.88,108.11c.47,2.06,2.31,3.52,4.43,3.52h7.37c2.2,0,4.08-1.59,4.47-3.75l14.14-79.57,11.17,42.7c.52,1.99,2.31,3.38,4.36,3.39l7.87.06c1.91.01,3.62-1.17,4.29-2.96l10.77-28.93,13.93,65.46c.45,2.1,2.3,3.6,4.44,3.59h7.31c2.2,0,4.08-1.59,4.47-3.75l14.14-79.57,11.17,42.7c.52,1.99,2.31,3.38,4.36,3.39l7.87.06c1.91.01,3.63-1.17,4.29-2.96l10.77-28.93,13.25,62.28c.45,2.1,2.3,3.6,4.44,3.6h11.68l-19.26-90.51c-.45-2.1-2.3-3.59-4.44-3.59ZM278.84,47.54c-16.92,0-32.09,13.88-32.09,32.66s14.24,32.54,32.21,32.54c18.9,0,32.79-14.7,32.79-32.66s-14.82-32.54-32.91-32.54ZM279.07,98.04c-10.04,0-16.69-7.46-16.69-17.96s7-17.84,16.69-17.84,17.04,7.46,17.04,17.96-7.47,17.84-17.04,17.84ZM339.09,73.52l-5.72-2.92c-3.38-1.75-5.6-2.8-5.6-5.13,0-2.45,2.45-3.73,5.6-3.73,2.8,0,5.47,1.25,8.11,3.35,1.6,1.27,3.91,1.07,5.35-.38l6.66-6.74c.37-.38.38-.99.02-1.37-7.1-7.51-12.44-9.08-20.25-9.08-11.9,0-20.07,8.16-20.07,17.84,0,7.81,5.02,13.88,14.94,18.89l5.25,2.68c4.32,2.21,6.88,4.2,6.88,6.88s-3.03,5.01-6.88,5.01c-3.12,0-6.91-1.77-10.15-4.47-1.66-1.39-4.18-1.26-5.64.34l-6.12,6.71c-.35.38-.34.98.02,1.35,5.86,6.04,11.53,9.55,20.54,9.97,13.52.63,22.81-8.31,22.81-19.39,0-9.21-5.49-14.58-15.75-19.83Z"/>
      <g>
        <path class="cls-1" d="M96.36,184.75l6.94-20.3h1.59l6.94,20.3h-1.79l-1.68-4.94h-8.53l-1.65,4.94h-1.82ZM100.37,178.22h7.47l-3.74-11.03-3.74,11.03Z"/>
        <path class="cls-1" d="M123.64,164.45h1.62v20.3h-1.62v-1.79c-.82,1.35-2.24,1.97-4.44,1.97-3.82,0-5.74-2.47-5.74-6.5v-2.12c0-4.18,2.09-6.44,5.74-6.44,2.21,0,3.62.71,4.44,2.09v-7.5ZM123.64,178.46v-2.12c0-3-1.18-4.97-4.32-4.97-2.79,0-4.24,1.74-4.24,4.94v2.12c0,3.09,1.38,5,4.24,5,3.29,0,4.32-2.09,4.32-4.97Z"/>
        <path class="cls-1" d="M141.14,170.04l-5.94,14.71h-1.59l-6-14.71h1.79l4.97,12.56,4.97-12.56h1.79Z"/>
        <path class="cls-1" d="M147.61,176.4h4.29v-1.82c0-2.5-1-3.18-3.71-3.18-1.76,0-2.91.12-3.85,1.68l-1.24-.85c1.03-1.74,2.5-2.35,5.12-2.35,3.59,0,5.3,1.12,5.3,4.71v10.18h-1.62v-1.82c-.82,1.56-2.29,2-4.18,2-3.27,0-5.12-1.56-5.12-4.38s1.97-4.15,5-4.15ZM151.9,177.84h-4.29c-2.53,0-3.38,1.18-3.38,2.74,0,2.06,1.44,2.82,3.5,2.82,2.38,0,4.18-.82,4.18-4.12v-1.44Z"/>
        <path class="cls-1" d="M157.64,170.04h1.62v2c.76-1.41,2.12-2.18,4.32-2.18,3.27,0,5.41,2.03,5.41,6.18v8.71h-1.62v-8.68c0-3.35-1.68-4.68-3.97-4.68-2.77,0-4.15,1.82-4.15,4.53v8.83h-1.62v-14.71Z"/>
        <path class="cls-1" d="M183.59,182.55c-.97,1.56-2.71,2.38-5,2.38-3.94,0-6.21-2.35-6.21-6.5v-2.12c0-4.18,2.32-6.44,6.21-6.44,2.15,0,3.88.76,4.97,2.26l-1.29.88c-.82-1.12-2.21-1.65-3.68-1.65-2.91,0-4.59,1.77-4.59,4.94v2.12c0,2.91,1.35,5,4.59,5,1.5,0,2.88-.5,3.71-1.79l1.29.91Z"/>
        <path class="cls-1" d="M187.03,177.81v.62c0,2.91,1.35,5,4.47,5,1.79,0,3-.53,3.83-1.79l1.29.91c-1.03,1.62-2.65,2.38-5.03,2.38-3.91,0-6.18-2.41-6.18-6.5v-2.12c0-4.18,2-6.44,5.68-6.44s5.68,2.26,5.68,6.44v1.5h-9.74ZM187.03,176.34h8.12v-.03c0-3.21-1.38-4.94-4.06-4.94s-4.06,1.77-4.06,4.94v.03Z"/>
        <path class="cls-1" d="M209.83,164.45h1.62v20.3h-1.62v-1.79c-.82,1.35-2.24,1.97-4.44,1.97-3.82,0-5.74-2.47-5.74-6.5v-2.12c0-4.18,2.09-6.44,5.74-6.44,2.21,0,3.62.71,4.44,2.09v-7.5ZM209.83,178.46v-2.12c0-3-1.18-4.97-4.33-4.97-2.79,0-4.24,1.74-4.24,4.94v2.12c0,3.09,1.38,5,4.24,5,3.29,0,4.33-2.09,4.33-4.97Z"/>
        <path class="cls-1" d="M231.92,177.96l6.74-13.5h1.68v20.3h-1.71v-16.56l-5.97,12.03h-1.53l-5.91-12v16.53h-1.71v-20.3h1.65l6.77,13.5Z"/>
        <path class="cls-1" d="M256.39,184.75h-1.62v-1.97c-.79,1.38-2.15,2.15-4.35,2.15-3.27,0-5.38-2-5.38-6.18v-8.71h1.62v8.71c0,3.32,1.68,4.65,3.94,4.65,2.79,0,4.18-1.85,4.18-4.53v-8.83h1.62v14.71Z"/>
        <path class="cls-1" d="M260.51,164.45h1.62v15.42c0,2.06.24,3.41,2.79,3.41v1.53c-3.38,0-4.41-1.47-4.41-4.53v-15.83Z"/>
        <path class="cls-1" d="M267.1,170.04h1.88v-3.24h1.62v3.24h3.62v1.5h-3.62v8.24c0,2.35.26,3.41,2.65,3.41h.97v1.56h-1.03c-3.27,0-4.21-1.47-4.21-4.53v-8.68h-1.88v-1.5Z"/>
        <path class="cls-1" d="M277.72,164.45h1.97v1.97h-1.97v-1.97ZM277.9,170.04h1.62v14.71h-1.62v-14.71Z"/>
        <path class="cls-1" d="M282.9,175.51h7.33v1.5h-7.33v-1.5Z"/>
        <path class="cls-1" d="M302.16,177.96l6.74-13.5h1.68v20.3h-1.71v-16.56l-5.97,12.03h-1.53l-5.91-12v16.53h-1.71v-20.3h1.65l6.77,13.5Z"/>
        <path class="cls-1" d="M315.55,164.45h1.97v1.97h-1.97v-1.97ZM315.72,170.04h1.62v14.71h-1.62v-14.71Z"/>
        <path class="cls-1" d="M330.32,173.19c-.91-1.29-1.85-1.79-4-1.79-1.97,0-3.47.74-3.47,2.41,0,2.06,1.85,2.47,3.91,2.74,2.85.38,5.24,1.21,5.24,4.32,0,2.29-1.47,4.06-5.38,4.06-2.91,0-4.44-.91-5.53-2.44l1.27-.88c.88,1.24,2,1.79,4.29,1.79s3.74-.74,3.74-2.5c0-1.88-1.47-2.53-4.38-2.91-2.5-.32-4.77-1.18-4.77-4.15,0-2.38,1.79-3.97,5.12-3.97,2.32,0,4.09.62,5.21,2.44l-1.24.88Z"/>
        <path class="cls-1" d="M343.73,173.19c-.91-1.29-1.85-1.79-4-1.79-1.97,0-3.47.74-3.47,2.41,0,2.06,1.85,2.47,3.91,2.74,2.85.38,5.24,1.21,5.24,4.32,0,2.29-1.47,4.06-5.38,4.06-2.91,0-4.44-.91-5.53-2.44l1.27-.88c.88,1.24,2,1.79,4.29,1.79s3.74-.74,3.74-2.5c0-1.88-1.47-2.53-4.38-2.91-2.5-.32-4.77-1.18-4.77-4.15,0-2.38,1.79-3.97,5.12-3.97,2.32,0,4.09.62,5.21,2.44l-1.24.88Z"/>
        <path class="cls-1" d="M349.14,164.45h1.97v1.97h-1.97v-1.97ZM349.32,170.04h1.62v14.71h-1.62v-14.71Z"/>
        <path class="cls-1" d="M360.73,184.93c-3.79,0-5.97-2.35-5.97-6.47v-2.15c0-4.18,2.21-6.44,5.97-6.44s5.97,2.26,5.97,6.44v2.15c0,4-2.03,6.47-5.97,6.47ZM365.09,176.31c0-3.21-1.56-4.94-4.35-4.94s-4.35,1.74-4.35,4.94v2.15c0,3.09,1.38,4.97,4.35,4.97s4.35-1.88,4.35-4.97v-2.15Z"/>
        <path class="cls-1" d="M370.09,170.04h1.62v2c.76-1.41,2.12-2.18,4.32-2.18,3.27,0,5.41,2.03,5.41,6.18v8.71h-1.62v-8.68c0-3.35-1.68-4.68-3.97-4.68-2.76,0-4.15,1.82-4.15,4.53v8.83h-1.62v-14.71Z"/>
        <path class="cls-1" d="M104.84,215.33c-4.35,0-7.21-2.71-7.21-9.12v-2.41c0-6.38,2.85-9.12,7.21-9.12s7.21,2.74,7.21,9.12v2.41c0,6.41-2.85,9.12-7.21,9.12ZM99.34,206.21c0,5.5,2.18,7.53,5.5,7.53s5.5-2.03,5.5-7.53v-2.41c0-5.47-2.18-7.53-5.5-7.53s-5.5,2.06-5.5,7.53v2.41Z"/>
        <path class="cls-1" d="M127.52,208.82c0,4.03-1.91,6.5-5.74,6.5-2.24,0-3.62-.62-4.44-1.91v7.33h-1.62v-20.3h1.62v1.85c.82-1.32,2.21-2.03,4.44-2.03,3.65,0,5.74,2.26,5.74,6.44v2.12ZM125.9,208.82v-2.12c0-3.21-1.44-4.94-4.24-4.94-3.12,0-4.32,1.88-4.32,4.77v2.56c.03,2.77,1.09,4.74,4.32,4.74,2.82,0,4.24-1.91,4.24-5Z"/>
        <path class="cls-1" d="M131.78,208.21v.62c0,2.91,1.35,5,4.47,5,1.79,0,3-.53,3.82-1.79l1.29.91c-1.03,1.62-2.65,2.38-5.03,2.38-3.91,0-6.18-2.41-6.18-6.5v-2.12c0-4.18,2-6.44,5.68-6.44s5.68,2.26,5.68,6.44v1.5h-9.74ZM131.78,206.73h8.12v-.03c0-3.21-1.38-4.94-4.06-4.94s-4.06,1.77-4.06,4.94v.03Z"/>
        <path class="cls-1" d="M146.76,206.29v8.86h-1.62v-14.71h1.62v2c.62-1.35,1.85-2.18,3.71-2.18s3.18.74,4.15,2.03l-1.35,1c-.76-1-1.65-1.5-2.94-1.5-2.29,0-3.56,1.82-3.56,4.5Z"/>
        <path class="cls-1" d="M160.35,206.79h4.29v-1.82c0-2.5-1-3.18-3.71-3.18-1.76,0-2.91.12-3.85,1.68l-1.24-.85c1.03-1.74,2.5-2.35,5.12-2.35,3.59,0,5.3,1.12,5.3,4.71v10.18h-1.62v-1.82c-.82,1.56-2.29,2-4.18,2-3.27,0-5.12-1.56-5.12-4.38s1.97-4.15,5-4.15ZM164.64,208.24h-4.29c-2.53,0-3.38,1.18-3.38,2.74,0,2.06,1.44,2.82,3.5,2.82,2.38,0,4.18-.82,4.18-4.12v-1.44Z"/>
        <path class="cls-1" d="M169.08,200.44h1.88v-3.24h1.62v3.24h3.62v1.5h-3.62v8.24c0,2.35.26,3.41,2.65,3.41h.97v1.56h-1.03c-3.27,0-4.21-1.47-4.21-4.53v-8.68h-1.88v-1.5Z"/>
        <path class="cls-1" d="M179.7,194.85h1.97v1.97h-1.97v-1.97ZM179.88,200.44h1.62v14.71h-1.62v-14.71Z"/>
        <path class="cls-1" d="M191.29,215.33c-3.79,0-5.97-2.35-5.97-6.47v-2.15c0-4.18,2.21-6.44,5.97-6.44s5.97,2.26,5.97,6.44v2.15c0,4-2.03,6.47-5.97,6.47ZM195.65,206.71c0-3.21-1.56-4.94-4.35-4.94s-4.35,1.74-4.35,4.94v2.15c0,3.09,1.38,4.97,4.35,4.97s4.35-1.88,4.35-4.97v-2.15Z"/>
        <path class="cls-1" d="M200.65,200.44h1.62v2c.76-1.41,2.12-2.18,4.32-2.18,3.27,0,5.41,2.03,5.41,6.18v8.71h-1.62v-8.68c0-3.35-1.68-4.68-3.97-4.68-2.77,0-4.15,1.82-4.15,4.53v8.83h-1.62v-14.71Z"/>
        <path class="cls-1" d="M224.53,203.59c-.91-1.29-1.85-1.79-4-1.79-1.97,0-3.47.74-3.47,2.41,0,2.06,1.85,2.47,3.91,2.74,2.85.38,5.24,1.21,5.24,4.33,0,2.29-1.47,4.06-5.38,4.06-2.91,0-4.44-.91-5.53-2.44l1.27-.88c.88,1.24,2,1.79,4.29,1.79s3.74-.74,3.74-2.5c0-1.88-1.47-2.53-4.38-2.91-2.5-.32-4.77-1.18-4.77-4.15,0-2.38,1.79-3.97,5.12-3.97,2.32,0,4.09.62,5.21,2.44l-1.24.88Z"/>
        <path class="cls-1" d="M248.51,198.97c-1.06-1.56-2.47-2.71-5.27-2.71s-4.65,1.15-4.65,3.65c0,2.91,2.32,3.65,5.27,4.3,3.82.82,6.35,2,6.35,5.82,0,2.59-1.82,5.3-6.68,5.3-3.24,0-5.59-1.12-7.09-3.32l1.38-.97c1.27,1.59,2.68,2.71,5.71,2.71,3.62,0,4.97-1.68,4.97-3.65,0-2.44-1.41-3.62-5.24-4.35-3.79-.74-6.38-2.21-6.38-5.83,0-2.85,1.85-5.24,6.41-5.24,3.15,0,5.15,1.09,6.56,3.32l-1.35.97Z"/>
        <path class="cls-1" d="M253.01,219.15c2.29,0,3.03-.76,4.03-3.59l.06-.18-6.03-14.94h1.76l5.09,12.59,4.35-12.59h1.71l-5.33,15.3c-1.21,3.53-2.15,5-5.65,5v-1.59Z"/>
        <path class="cls-1" d="M274.84,203.59c-.91-1.29-1.85-1.79-4-1.79-1.97,0-3.47.74-3.47,2.41,0,2.06,1.85,2.47,3.91,2.74,2.85.38,5.24,1.21,5.24,4.33,0,2.29-1.47,4.06-5.38,4.06-2.91,0-4.44-.91-5.53-2.44l1.27-.88c.88,1.24,2,1.79,4.29,1.79s3.74-.74,3.74-2.5c0-1.88-1.47-2.53-4.38-2.91-2.5-.32-4.77-1.18-4.77-4.15,0-2.38,1.79-3.97,5.12-3.97,2.32,0,4.09.62,5.21,2.44l-1.24.88Z"/>
        <path class="cls-1" d="M278.69,200.44h1.88v-3.24h1.62v3.24h3.62v1.5h-3.62v8.24c0,2.35.26,3.41,2.65,3.41h.97v1.56h-1.03c-3.27,0-4.21-1.47-4.21-4.53v-8.68h-1.88v-1.5Z"/>
        <path class="cls-1" d="M289.78,208.21v.62c0,2.91,1.35,5,4.47,5,1.79,0,3-.53,3.83-1.79l1.29.91c-1.03,1.62-2.65,2.38-5.03,2.38-3.91,0-6.18-2.41-6.18-6.5v-2.12c0-4.18,2-6.44,5.68-6.44s5.68,2.26,5.68,6.44v1.5h-9.74ZM289.78,206.73h8.12v-.03c0-3.21-1.38-4.94-4.06-4.94s-4.06,1.77-4.06,4.94v.03Z"/>
        <path class="cls-1" d="M303.13,200.44h1.62v2c.62-1.35,1.94-2.18,3.88-2.18,2.09,0,3.62,1,4.38,2.88.82-1.85,2.44-2.88,4.47-2.88,3.09,0,4.97,2.18,4.97,6.18v8.71h-1.62v-8.68c0-3.21-1.41-4.68-3.53-4.68-2.35,0-3.71,1.74-3.71,4.33v9.03h-1.62v-8.68c0-3.21-1.41-4.68-3.53-4.68-2.41,0-3.71,1.82-3.71,4.53v8.83h-1.62v-14.71Z"/>
      </g>
    </g>
  </g>
</svg>