<?xml version="1.0" encoding="UTF-8"?>
<svg version="1.1" xmlns="http://www.w3.org/2000/svg" width="213" height="156">
<path d="M0 0 C70.29 0 140.58 0 213 0 C213 51.48 213 102.96 213 156 C142.71 156 72.42 156 0 156 C0 104.52 0 53.04 0 0 Z " fill="#030303" transform="translate(0,0)"/>
<path d="M0 0 C0.33 0 0.66 0 1 0 C1 37.62 1 75.24 1 114 C-61.04 114 -123.08 114 -187 114 C-187 113.67 -187 113.34 -187 113 C-186.33097656 112.90203125 -185.66195312 112.8040625 -184.97265625 112.703125 C-177.90492737 111.60264641 -170.9915071 110.12655082 -164.05297852 108.40917969 C-159.71397462 107.34806859 -155.44755202 106.4612698 -151 106 C-150.67 106.33 -150.34 106.66 -150 107 C-148.00200428 107.09873816 -146.00042842 107.12971799 -144 107.125 C-142.906875 107.12757813 -141.81375 107.13015625 -140.6875 107.1328125 C-138.08169646 107.30547755 -138.08169646 107.30547755 -137 106 C-136.63239269 103.67182036 -136.29758419 101.3381615 -136 99 C-131.38461538 98.74358974 -131.38461538 98.74358974 -129.125 100.25 C-127.05059986 101.25618005 -127.05059986 101.25618005 -125.30078125 100.2421875 C-124.07582051 99.50772467 -122.86873032 98.74244222 -121.68359375 97.9453125 C-120 97 -120 97 -117 97 C-117 96.34 -117 95.68 -117 95 C-118.98 94.01 -118.98 94.01 -121 93 C-118.38326867 91.33480733 -115.84846851 89.93640388 -112.984375 88.734375 C-92.28153049 79.97308494 -72.43274427 67.81393533 -54 55 C-52.93136719 54.2678125 -51.86273438 53.535625 -50.76171875 52.78125 C-31.00479979 39.08598448 -8.98073726 23.09332437 0 0 Z " fill="#010101" transform="translate(212,42)"/>
<path d="M0 0 C0 6.27 0 12.54 0 19 C-3.85220054 17.45911979 -7.38282504 15.81891359 -11.03515625 13.90234375 C-16.12955641 11.56276833 -21.43392044 11.20166414 -26.8125 12.875 C-29.12932012 13.92570175 -29.12932012 13.92570175 -31 16 C-31.83541854 18.36757327 -31.83541854 18.36757327 -31 21 C-25.07276622 26.34739569 -15.22694251 30.73707552 -7.21875 30.33984375 C-4.47975258 29.92031421 -1.86674927 29.20702411 0.8125 28.5 C6.53188542 27.10356127 11.95326379 26.63542 17.8125 26.5625 C18.99453003 26.52962891 18.99453003 26.52962891 20.20043945 26.49609375 C25.82621238 26.51504572 30.36437553 27.70657891 35 31 C37.53896078 34.80844117 37.43913585 36.4622629 37 41 C31.21502892 60.40528275 11.62427897 75.46176155 -4 87 C-4.67369629 87.50740723 -5.34739258 88.01481445 -6.04150391 88.53759766 C-17.5578108 97.20842035 -29.51808318 104.80265311 -42 112 C-42.90814453 112.5254541 -43.81628906 113.0509082 -44.75195312 113.59228516 C-50.08110354 116.67116364 -55.42436892 119.72384106 -60.78417969 122.74902344 C-62.66335987 123.80994447 -64.53909365 124.8769664 -66.4140625 125.9453125 C-72.10930296 129.13785574 -77.87331633 131.74070233 -84 134 C-82.515 134.99 -82.515 134.99 -81 136 C-81 136.66 -81 137.32 -81 138 C-89.16233184 143.23139013 -89.16233184 143.23139013 -93.66796875 142.6640625 C-95.86935149 141.90110314 -97.92934272 141.06533816 -100 140 C-99.95875 141.11375 -99.9175 142.2275 -99.875 143.375 C-100 147 -100 147 -102 149 C-104.78515625 149.23046875 -104.78515625 149.23046875 -108.0625 149.1875 C-109.68865234 149.17783203 -109.68865234 149.17783203 -111.34765625 149.16796875 C-114 149 -114 149 -115 148 C-121.64950288 148.63496579 -128.00360223 150.46880577 -134.44140625 152.18359375 C-144.3972994 154.76023378 -153.79676461 155.13950782 -164.0625 155.0625 C-165.21427734 155.05798828 -166.36605469 155.05347656 -167.55273438 155.04882812 C-170.36854518 155.03714426 -173.18424398 155.02076281 -176 155 C-176.84728721 142.49466842 -175.71580178 134.56472333 -167.24609375 124.75390625 C-164.26064375 121.40653948 -161.14756085 118.19426057 -158 115 C-157.15308594 114.12601562 -156.30617187 113.25203125 -155.43359375 112.3515625 C-151.47797456 108.32231927 -147.50819851 104.4086379 -143 101 C-142.34 101 -141.68 101 -141 101 C-141.495 100.154375 -141.99 99.30875 -142.5 98.4375 C-145.07089462 92.43464557 -144.87203815 85.36519188 -144 79 C-141.07784541 73.75382908 -137.42922199 69.714611 -132 67 C-129.91854396 66.90225206 -127.83374453 66.87024259 -125.75 66.875 C-124.63109375 66.87242188 -123.5121875 66.86984375 -122.359375 66.8671875 C-119 67 -119 67 -115.765625 67.5703125 C-112.92173203 68.22842495 -112.92173203 68.22842495 -110 67 C-110 71.62 -110 76.24 -110 81 C-111.72526042 79.50260417 -113.45052083 78.00520833 -115.17578125 76.5078125 C-119.26426292 73.12846791 -121.69707892 72.56261643 -126.83984375 72.6796875 C-129.20493576 72.86588271 -129.20493576 72.86588271 -131.5 74.75 C-134.7161562 79.57423431 -134.63839912 85.38040777 -134 91 C-132.84424795 94.22034549 -131.45293285 97.54706715 -129 100 C-124.91903684 100.53798008 -120.75020022 100.93436984 -117.0390625 98.953125 C-114.90631387 97.18450419 -113.24479049 95.48958097 -112 93 C-111.34 93 -110.68 93 -110 93 C-110 97.29 -110 101.58 -110 106 C-111.98 105.67 -113.96 105.34 -116 105 C-116.99 105.495 -116.99 105.495 -118 106 C-120.49253376 106.12419345 -122.94490756 106.18515513 -125.4375 106.1875 C-126.4594043 106.20586914 -126.4594043 106.20586914 -127.50195312 106.22460938 C-131.22829809 106.23555848 -132.81991571 106.12005619 -136 104 C-140.19647628 104.1524361 -142.85218197 107.21089993 -145.75 109.9375 C-146.54180664 110.67468262 -146.54180664 110.67468262 -147.34960938 111.42675781 C-152.07071069 115.90921637 -156.20324478 120.70644704 -160 126 C-160.45375 126.60328125 -160.9075 127.2065625 -161.375 127.828125 C-164.17544162 131.9898924 -164.66094386 135.87406939 -164.453125 140.7578125 C-164.13630075 143.26044047 -164.13630075 143.26044047 -161.8125 145.5625 C-151.8441288 150.65744528 -140.27190834 147.67423324 -129.90600586 145.4230957 C-128.65509155 145.15178833 -128.65509155 145.15178833 -127.37890625 144.875 C-126.6319751 144.70742187 -125.88504395 144.53984375 -125.11547852 144.3671875 C-123 144 -123 144 -119 144 C-119.33 142.68 -119.66 141.36 -120 140 C-120.825 140.28875 -121.65 140.5775 -122.5 140.875 C-127.66072331 141.05931155 -130.24347096 138.28934649 -134 135 C-131.18515955 132.18515955 -128.7833753 132.37242958 -124.875 131.875 C-123.59367187 131.70742187 -122.31234375 131.53984375 -120.9921875 131.3671875 C-120.00476563 131.24601563 -119.01734375 131.12484375 -118 131 C-117.67 128.69 -117.34 126.38 -117 124 C-119.31 123.67 -121.62 123.34 -124 123 C-124 122.34 -124 121.68 -124 121 C-125.65 121 -127.3 121 -129 121 C-129 120.34 -129 119.68 -129 119 C-125.86501708 117.14223235 -123.62528568 116.79859524 -120 117 C-120 117.66 -120 118.32 -120 119 C-116.03302114 120.80317221 -112.3177458 121.49202991 -108 122 C-108 119.36 -108 116.72 -108 114 C-106.68 114 -105.36 114 -104 114 C-104.66 117.3 -105.32 120.6 -106 124 C-102.45227537 123.09567804 -99.47048197 122.30245269 -96.375 120.3125 C-94 119 -94 119 -91.4375 119.0625 C-88.5331739 120.1795485 -87.02736694 121.6722824 -85 124 C-86.41396902 124.50757862 -87.83131729 125.00574925 -89.25 125.5 C-90.03890625 125.7784375 -90.8278125 126.056875 -91.640625 126.34375 C-94 127 -94 127 -98 127 C-98 128.32 -98 129.64 -98 131 C-90.74722049 132.63040466 -86.5129916 131.07877937 -79.9375 127.875 C-78.98866943 127.42777588 -78.03983887 126.98055176 -77.06225586 126.51977539 C-66.06574798 121.23665287 -55.5181469 115.16643811 -45 109 C-43.60590427 108.19715993 -42.21141618 107.3950005 -40.81640625 106.59375 C-27.91867548 99.10856404 -15.5068889 90.487468 -4 81 C-3.45666016 80.56139648 -2.91332031 80.12279297 -2.35351562 79.67089844 C15.41476121 65.36707438 15.41476121 65.36707438 25.46875 45.5859375 C25.54861529 40.60809866 25.54861529 40.60809866 22.875 36.5 C17.3980327 33.64245184 11.65473945 33.86662603 5.625 33.9375 C4.88894531 33.94201172 4.15289062 33.94652344 3.39453125 33.95117188 C1.59631842 33.96284858 -0.20185197 33.98077989 -2 34 C-1.57847656 34.53109375 -1.15695313 35.0621875 -0.72265625 35.609375 C0.09912109 36.66898438 0.09912109 36.66898438 0.9375 37.75 C1.48277344 38.44609375 2.02804688 39.1421875 2.58984375 39.859375 C6.08401897 45.16355234 5.5832381 51.88010731 5 58 C2.14483962 64.03976233 -2.5835373 67.79176865 -8.5 70.75 C-18.98274419 74.49383721 -30.53978693 73.77217404 -41.18359375 71.046875 C-44.93591288 70.74471861 -44.93591288 70.74471861 -51 75 C-51 68.07 -51 61.14 -51 54 C-48.7415625 55.423125 -48.7415625 55.423125 -46.4375 56.875 C-38.44685128 61.61351057 -31.23881194 62.85591173 -22 62 C-19.24232284 61.2065047 -19.24232284 61.2065047 -17 60 C-15.55569145 57.11138291 -15.62311494 55.20352299 -16 52 C-19.52225756 46.52093269 -24.54343813 45.79925378 -30.57421875 44.078125 C-38.70077805 41.52062173 -45.63861807 38.04420465 -50.03515625 30.5 C-51.78589983 25.96366035 -51.85165905 21.7544792 -51 17 C-47.85248429 10.3272667 -41.80960203 5.36390524 -35.02270508 2.58666992 C-31.22232733 1.48439983 -27.42511715 1.65078693 -23.5 1.75 C-22.68402344 1.75515625 -21.86804688 1.7603125 -21.02734375 1.765625 C-17.28665452 1.81365953 -13.78971922 2.03249603 -10.08203125 2.60546875 C-5.5824455 3.18146135 -4.05627108 0 0 0 Z " fill="#F6F6F6" transform="translate(176,1)"/>
<path d="M0 0 C1.11890625 -0.00257812 2.2378125 -0.00515625 3.390625 -0.0078125 C6.75 0.125 6.75 0.125 9.984375 0.6953125 C12.82826797 1.35342495 12.82826797 1.35342495 15.75 0.125 C15.75 4.745 15.75 9.365 15.75 14.125 C14.02473958 12.62760417 12.29947917 11.13020833 10.57421875 9.6328125 C6.48573708 6.25346791 4.05292108 5.68761643 -1.08984375 5.8046875 C-3.45493576 5.99088271 -3.45493576 5.99088271 -5.75 7.875 C-8.9661562 12.69923431 -8.88839912 18.50540777 -8.25 24.125 C-7.09424795 27.34534549 -5.70293285 30.67206715 -3.25 33.125 C0.83096316 33.66298008 4.99979978 34.05936984 8.7109375 32.078125 C10.84368613 30.30950419 12.50520951 28.61458097 13.75 26.125 C14.41 26.125 15.07 26.125 15.75 26.125 C15.75 30.415 15.75 34.705 15.75 39.125 C13.77 38.795 11.79 38.465 9.75 38.125 C8.76 38.62 8.76 38.62 7.75 39.125 C5.25746624 39.24919345 2.80509244 39.31015513 0.3125 39.3125 C-0.36876953 39.32474609 -1.05003906 39.33699219 -1.75195312 39.34960938 C-5.47829809 39.36055848 -7.06991571 39.24505619 -10.25 37.125 C-14.44647628 37.2774361 -17.10218197 40.33589993 -20 43.0625 C-20.79180664 43.79968262 -20.79180664 43.79968262 -21.59960938 44.55175781 C-26.32071069 49.03421637 -30.45324478 53.83144704 -34.25 59.125 C-34.70375 59.72828125 -35.1575 60.3315625 -35.625 60.953125 C-38.42544162 65.1148924 -38.91094386 68.99906939 -38.703125 73.8828125 C-38.38630075 76.38544047 -38.38630075 76.38544047 -36.0625 78.6875 C-26.0941288 83.78244528 -14.52190834 80.79923324 -4.15600586 78.5480957 C-3.32206299 78.36722412 -2.48812012 78.18635254 -1.62890625 78 C-0.8819751 77.83242187 -0.13504395 77.66484375 0.63452148 77.4921875 C2.75 77.125 2.75 77.125 6.75 77.125 C6.42 75.805 6.09 74.485 5.75 73.125 C4.925 73.41375 4.1 73.7025 3.25 74 C-1.91072331 74.18431155 -4.49347096 71.41434649 -8.25 68.125 C-5.43515955 65.31015955 -3.0333753 65.49742958 0.875 65 C2.15632813 64.83242187 3.43765625 64.66484375 4.7578125 64.4921875 C6.23894531 64.31042969 6.23894531 64.31042969 7.75 64.125 C8.08 61.815 8.41 59.505 8.75 57.125 C6.44 56.795 4.13 56.465 1.75 56.125 C1.75 55.465 1.75 54.805 1.75 54.125 C0.1 54.125 -1.55 54.125 -3.25 54.125 C-3.25 53.465 -3.25 52.805 -3.25 52.125 C-0.11501708 50.26723235 2.12471432 49.92359524 5.75 50.125 C5.75 50.785 5.75 51.445 5.75 52.125 C9.71697886 53.92817221 13.4322542 54.61702991 17.75 55.125 C17.75 52.485 17.75 49.845 17.75 47.125 C19.07 47.125 20.39 47.125 21.75 47.125 C20.76 52.075 20.76 52.075 19.75 57.125 C23.29772463 56.22067804 26.27951803 55.42745269 29.375 53.4375 C31.75 52.125 31.75 52.125 34.3125 52.1875 C37.2168261 53.3045485 38.72263306 54.7972824 40.75 57.125 C39.33603098 57.63257862 37.91868271 58.13074925 36.5 58.625 C35.71109375 58.9034375 34.9221875 59.181875 34.109375 59.46875 C31.75 60.125 31.75 60.125 27.75 60.125 C27.75 61.445 27.75 62.765 27.75 64.125 C35.00277951 65.75540466 39.2370084 64.20377937 45.8125 61 C47.23574585 60.32916382 47.23574585 60.32916382 48.68774414 59.64477539 C59.68425202 54.36165287 70.2318531 48.29143811 80.75 42.125 C82.14409573 41.32215993 83.53858382 40.5200005 84.93359375 39.71875 C101.3441443 30.19490237 116.72459156 18.89044267 130.75 6.125 C131.74 6.62 131.74 6.62 132.75 7.125 C130.11 9.765 127.47 12.405 124.75 15.125 C125.08 15.785 125.41 16.445 125.75 17.125 C100.55514576 36.17383677 72.94366472 53.83293065 43.75 66.125 C42.76 66.62 42.76 66.62 41.75 67.125 C43.235 68.115 43.235 68.115 44.75 69.125 C44.75 69.785 44.75 70.445 44.75 71.125 C36.58766816 76.35639013 36.58766816 76.35639013 32.08203125 75.7890625 C29.88064851 75.02610314 27.82065728 74.19033816 25.75 73.125 C25.79125 74.23875 25.8325 75.3525 25.875 76.5 C25.75 80.125 25.75 80.125 23.75 82.125 C20.96484375 82.35546875 20.96484375 82.35546875 17.6875 82.3125 C16.06134766 82.30283203 16.06134766 82.30283203 14.40234375 82.29296875 C11.75 82.125 11.75 82.125 10.75 81.125 C4.10049712 81.75996579 -2.25360223 83.59380577 -8.69140625 85.30859375 C-18.6472994 87.88523378 -28.04676461 88.26450782 -38.3125 88.1875 C-39.46427734 88.18298828 -40.61605469 88.17847656 -41.80273438 88.17382812 C-44.61854518 88.16214426 -47.43424398 88.14576281 -50.25 88.125 C-51.09728721 75.61966842 -49.96580178 67.68972333 -41.49609375 57.87890625 C-38.51064375 54.53153948 -35.39756085 51.31926057 -32.25 48.125 C-31.40308594 47.25101563 -30.55617188 46.37703125 -29.68359375 45.4765625 C-25.72797456 41.44731927 -21.75819851 37.5336379 -17.25 34.125 C-16.59 34.125 -15.93 34.125 -15.25 34.125 C-15.745 33.279375 -16.24 32.43375 -16.75 31.5625 C-19.32089462 25.55964557 -19.12203815 18.49019188 -18.25 12.125 C-13.95567254 4.41535454 -8.92543776 -0.02037771 0 0 Z " fill="#F3F3F3" transform="translate(50.25,67.875)"/>
<path d="M0 0 C16.83 0 33.66 0 51 0 C51 6.93 51 13.86 51 21 C48.78505982 18.04674642 47.74066393 16.46573339 46.421875 13.30859375 C45.10474948 10.95971991 44.50171583 10.15669869 41.90039062 9.34423828 C39.31942793 9.08418518 36.84534311 9.03120708 34.25 9.0625 C31.1975 9.041875 28.145 9.02125 25 9 C25 15.93 25 22.86 25 30 C32.24084274 29.54927096 32.24084274 29.54927096 36.875 25.9375 C39.84705882 23 39.84705882 23 42 23 C42 30.92 42 38.84 42 47 C38 45 38 45 35.75 42.9375 C32.99073914 40.99347531 32.03519037 40.69634027 28.828125 40.37890625 C26.93320313 40.19134766 26.93320313 40.19134766 25 40 C24.12998456 53.15519414 24.12998456 53.15519414 28.0703125 65.20703125 C30.29782552 67.0888957 32.45697554 68.58720863 35 70 C35 70.33 35 70.66 35 71 C23.45 71 11.9 71 0 71 C1.75313696 67.49372608 3.41630849 64.90665295 6 62 C6.66 62 7.32 62 8 62 C7.95836176 54.54313161 7.88606531 47.08701144 7.79248047 39.63061523 C7.76426052 37.09422563 7.74305115 34.55774792 7.72900391 32.02124023 C7.70758957 28.37437801 7.6609438 24.72857636 7.609375 21.08203125 C7.60814636 19.94852737 7.60691772 18.8150235 7.60565186 17.64717102 C7.54026127 11.4328385 7.54026127 11.4328385 5.07128906 5.85424805 C4.38776367 5.24234619 3.70423828 4.63044434 3 4 C2 3 1 2 0 1 C0 0.67 0 0.34 0 0 Z " fill="#F7F7F7" transform="translate(70,26)"/>
<path d="M0 0 C0.99 0.495 0.99 0.495 2 1 C-0.64 3.64 -3.28 6.28 -6 9 C-5.505 9.99 -5.505 9.99 -5 11 C-30.19485424 30.04883677 -57.80633528 47.70793065 -87 60 C-87.99 60.495 -87.99 60.495 -89 61 C-88.01 61.66 -87.02 62.32 -86 63 C-86 63.66 -86 64.32 -86 65 C-87.5725165 65.89429374 -89.15853741 66.76487427 -90.75 67.625 C-91.63171875 68.11226563 -92.5134375 68.59953125 -93.421875 69.1015625 C-96 70 -96 70 -98.328125 69.1484375 C-99.15570313 68.57996094 -99.15570313 68.57996094 -100 68 C-100 66 -100 66 -98 64 C-99.98 63.34 -101.96 62.68 -104 62 C-104 61.34 -104 60.68 -104 60 C-102.3125 58.9375 -102.3125 58.9375 -100 58 C-99.21995605 58.17934082 -98.43991211 58.35868164 -97.63623047 58.54345703 C-94.55331188 59.07735755 -93.32318629 58.65042627 -90.5078125 57.3671875 C-89.64937744 56.97974365 -88.79094238 56.5922998 -87.90649414 56.19311523 C-86.98860107 55.75813721 -86.07070801 55.32315918 -85.125 54.875 C-84.16263428 54.42777588 -83.20026855 53.98055176 -82.20874023 53.51977539 C-71.13842671 48.2734912 -60.56115439 42.19165197 -50 36 C-48.60590427 35.19715993 -47.21141618 34.3950005 -45.81640625 33.59375 C-29.4058557 24.06990237 -14.02540844 12.76544267 0 0 Z " fill="#DDDDDD" transform="translate(181,74)"/>
<path d="M0 0 C3.04021747 1.03812304 4.47344114 2.47645094 6.5625 4.875 C5.14853098 5.38257862 3.73118271 5.88074925 2.3125 6.375 C1.12914063 6.79265625 1.12914063 6.79265625 -0.078125 7.21875 C-2.4375 7.875 -2.4375 7.875 -6.4375 7.875 C-6.7675 9.195 -7.0975 10.515 -7.4375 11.875 C-7.7675 9.895 -8.0975 7.915 -8.4375 5.875 C-9.7575 5.545 -11.0775 5.215 -12.4375 4.875 C-10.71223958 4.15885417 -8.98697917 3.44270833 -7.26171875 2.7265625 C-1.28022997 -0.06565282 -1.28022997 -0.06565282 0 0 Z " fill="#B5B5B5" transform="translate(84.4375,120.125)"/>
<path d="M0 0 C0.66 0.33 1.32 0.66 2 1 C-0.64 3.64 -3.28 6.28 -6 9 C-5.67 9.66 -5.34 10.32 -5 11 C-7.45264589 12.84104236 -9.91300959 14.67147793 -12.375 16.5 C-13.07367188 17.02464844 -13.77234375 17.54929687 -14.4921875 18.08984375 C-15.1625 18.58613281 -15.8328125 19.08242187 -16.5234375 19.59375 C-17.14138184 20.05458984 -17.75932617 20.51542969 -18.39599609 20.99023438 C-20 22 -20 22 -22 22 C-19.34451919 15.48200165 -12.99250728 11.18764102 -7.75 6.75 C-3.78126563 3.47628175 -3.78126563 3.47628175 0 0 Z " fill="#DCDCDC" transform="translate(181,74)"/>
<path d="M0 0 C2.89260975 0.26907998 5.05672151 1.04735841 7.6875 2.25 C7.6875 1.59 7.6875 0.93 7.6875 0.25 C9.3375 0.25 10.9875 0.25 12.6875 0.25 C12.3575 1.24 12.0275 2.23 11.6875 3.25 C9.625 3.9375 9.625 3.9375 7.6875 4.25 C9.0075 4.58 10.3275 4.91 11.6875 5.25 C11.6875 6.9 11.6875 8.55 11.6875 10.25 C11.0275 9.26 10.3675 8.27 9.6875 7.25 C8.8625 7.53875 8.0375 7.8275 7.1875 8.125 C2.02677669 8.30931155 -0.55597096 5.53934649 -4.3125 2.25 C-2.3125 0.25 -2.3125 0.25 0 0 Z " fill="#9C9C9C" transform="translate(46.3125,133.75)"/>
<path d="M0 0 C1.65 1.65 3.3 3.3 5 5 C5.9075 4.62875 6.815 4.2575 7.75 3.875 C11 3 11 3 13.375 3.875 C13.91125 4.24625 14.4475 4.6175 15 5 C15 5.66 15 6.32 15 7 C13.4274835 7.89429374 11.84146259 8.76487427 10.25 9.625 C9.36828125 10.11226562 8.4865625 10.59953125 7.578125 11.1015625 C5 12 5 12 2.671875 11.1484375 C2.12015625 10.76945313 1.5684375 10.39046875 1 10 C1 8 1 8 3 6 C1.02 5.34 -0.96 4.68 -3 4 C-3 3.34 -3 2.68 -3 2 C-2.01 1.34 -1.02 0.68 0 0 Z " fill="#B6B6B6" transform="translate(80,132)"/>
<path d="M0 0 C0 0.66 0 1.32 0 2 C0.78375 2.28875 1.5675 2.5775 2.375 2.875 C5 4 5 4 7 6 C6.01 6.33 5.02 6.66 4 7 C3.67 7.99 3.34 8.98 3 10 C3 9.01 3 8.02 3 7 C0.69 6.67 -1.62 6.34 -4 6 C-4 5.34 -4 4.68 -4 4 C-5.65 4 -7.3 4 -9 4 C-9 3.34 -9 2.68 -9 2 C-5.86501708 0.14223235 -3.62528568 -0.20140476 0 0 Z " fill="#AEAEAE" transform="translate(56,118)"/>
<path d="M0 0 C-1.293621 3.88086301 -2.73395382 4.34295007 -6.25 6.3125 C-7.20390625 6.86550781 -8.1578125 7.41851562 -9.140625 7.98828125 C-12 9 -12 9 -14.734375 8.29296875 C-17 7 -17 7 -19 5 C-18.43539062 4.8659375 -17.87078125 4.731875 -17.2890625 4.59375 C-14.94603375 3.98600193 -12.67034898 3.26767524 -10.375 2.5 C-9.59898438 2.2421875 -8.82296875 1.984375 -8.0234375 1.71875 C-3.18478261 0 -3.18478261 0 0 0 Z " fill="#E8E8E8" transform="translate(99,129)"/>
<path d="M0 0 C0.66 0.33 1.32 0.66 2 1 C0.56284053 4.64757321 -1.07711644 5.97325575 -4.5 7.8125 C-5.2940625 8.25207031 -6.088125 8.69164062 -6.90625 9.14453125 C-7.94265625 9.56798828 -7.94265625 9.56798828 -9 10 C-9.66 9.67 -10.32 9.34 -11 9 C-10.67 8.34 -10.34 7.68 -10 7 C-10.66 6.67 -11.32 6.34 -12 6 C-10.04669132 4.96958487 -8.08718472 3.9509107 -6.125 2.9375 C-5.03445312 2.36902344 -3.94390625 1.80054687 -2.8203125 1.21484375 C-1.42425781 0.61349609 -1.42425781 0.61349609 0 0 Z " fill="#CDCDCD" transform="translate(109,122)"/>
<path d="M0 0 C1.5 1.375 1.5 1.375 3 3 C3 3.66 3 4.32 3 5 C4.98 5.66 6.96 6.32 9 7 C9 7.33 9 7.66 9 8 C6.03 8 3.06 8 0 8 C0 5.36 0 2.72 0 0 Z " fill="#131415" transform="translate(0,148)"/>
<path d="M0 0 C0.66 0.33 1.32 0.66 2 1 C-0.51407619 5.28324091 -2.12314139 7.64531705 -7 9 C-5.44499019 5.18315774 -2.96404505 2.80804268 0 0 Z " fill="#E6E6E6" transform="translate(166,87)"/>
<path d="M0 0 C-0.33 0.66 -0.66 1.32 -1 2 C-1.99 2.33 -2.98 2.66 -4 3 C-3.67 3.66 -3.34 4.32 -3 5 C-3.9375 7.125 -3.9375 7.125 -5 9 C-5.33 7.02 -5.66 5.04 -6 3 C-7.32 2.67 -8.64 2.34 -10 2 C-6.49223216 0.39644899 -3.85645121 -0.22036864 0 0 Z " fill="#CACACA" transform="translate(82,123)"/>
<path d="M0 0 C-1.25 1.5 -1.25 1.5 -3 3 C-4.32 3 -5.64 3 -7 3 C-7 2.01 -7 1.02 -7 0 C-4.3333581 -1.33332095 -2.83319697 -0.67102033 0 0 Z " fill="#CCCCCC" transform="translate(84,138)"/>
<path d="M0 0 C0 0.66 0 1.32 0 2 C-3.22791555 4.1519437 -4.28400809 4.20086443 -8 4 C-8 3.34 -8 2.68 -8 2 C-4.91190305 0.23537317 -3.76687864 0 0 0 Z " fill="#D0D0D0" transform="translate(55,118)"/>
<path d="M0 0 C1.32 0 2.64 0 4 0 C3.34 2.97 2.68 5.94 2 9 C1.34 8.67 0.68 8.34 0 8 C0 5.36 0 2.72 0 0 Z " fill="#BEBEBE" transform="translate(68,115)"/>
<path d="M0 0 C-1.625 1.5625 -1.625 1.5625 -4 3 C-7.25 2.6875 -7.25 2.6875 -10 2 C-9.67 1.34 -9.34 0.68 -9 0 C-2.57142857 -1.28571429 -2.57142857 -1.28571429 0 0 Z " fill="#C8C8C8" transform="translate(90,133)"/>
<path d="M0 0 C0.66 0.33 1.32 0.66 2 1 C0.35 2.65 -1.3 4.3 -3 6 C-3.99 5.67 -4.98 5.34 -6 5 C-5.195625 4.360625 -4.39125 3.72125 -3.5625 3.0625 C-1.7249496 1.59396498 -1.7249496 1.59396498 0 0 Z " fill="#F3F3F3" transform="translate(90,132)"/>
<path d="M0 0 C0 1.65 0 3.3 0 5 C-1.32 5 -2.64 5 -4 5 C-4 4.34 -4 3.68 -4 3 C-4.66 2.67 -5.32 2.34 -6 2 C-1.125 0 -1.125 0 0 0 Z " fill="#222324" transform="translate(57,140)"/>
<path d="M0 0 C0.99 0 1.98 0 3 0 C2.67 1.32 2.34 2.64 2 4 C0.35 4.33 -1.3 4.66 -3 5 C-1.6875 2.5 -1.6875 2.5 0 0 Z " fill="#E8E8E8" transform="translate(144,102)"/>
<path d="M0 0 C2.125 0.9375 2.125 0.9375 4 2 C4 2.66 4 3.32 4 4 C1.03 3.505 1.03 3.505 -2 3 C-2 2.34 -2 1.68 -2 1 C-1.34 0.67 -0.68 0.34 0 0 Z " fill="#E7E7E7" transform="translate(50,138)"/>
<path d="M0 0 C1.98 0 3.96 0 6 0 C6.33 0.99 6.66 1.98 7 3 C4.625 3.1875 4.625 3.1875 2 3 C1.34 2.01 0.68 1.02 0 0 Z " fill="#EDEDED" transform="translate(42,135)"/>
</svg>
