<?xml version="1.0" encoding="UTF-8"?>
<svg version="1.1" xmlns="http://www.w3.org/2000/svg" width="256" height="256">
<path d="M0 0 C1.36616683 0.00334608 1.36616683 0.00334608 2.75993299 0.00675976 C3.71971666 0.00519977 4.67950032 0.00363978 5.66836834 0.00203252 C8.91053437 -0.00198193 12.15265424 0.00121388 15.39482069 0.00434887 C17.70858745 0.00299503 20.022354 0.00121519 22.33612013 -0.00096118 C28.63965138 -0.00553753 34.94316635 -0.00374513 41.2466979 -0.0005821 C47.82728194 0.00194047 54.40786453 -0.00039575 60.98844862 -0.00196826 C72.75077189 -0.0041075 84.51308828 -0.00078927 96.27541035 0.00429107 C106.95079692 0.00875912 117.62617261 0.00798319 128.30155897 0.00337231 C140.68395336 -0.00197331 153.06634081 -0.00397436 165.44873619 -0.00101542 C172.00872417 0.00054783 178.56870465 0.00073981 185.12869215 -0.00255191 C191.29438416 -0.00542938 197.46005553 -0.00345724 203.6257453 0.00234234 C205.89580644 0.00367061 208.1658693 0.0032747 210.43592978 0.00107968 C213.52059861 -0.00162921 216.60520016 0.00174608 219.68986464 0.00675976 C220.60064252 0.00452904 221.51142041 0.00229832 222.44979763 0 C228.610749 0.01959359 228.610749 0.01959359 229.72489882 1.13374341 C229.82292364 4.18038536 229.8548108 7.20438569 229.84515333 10.25143445 C229.84643736 11.70089711 229.84643736 11.70089711 229.84774733 13.17964184 C229.84941319 16.45415557 229.84386166 19.72861906 229.83842421 23.00312817 C229.83811813 25.37616708 229.83825092 27.74920608 229.83878946 30.12224495 C229.83901607 36.50147962 229.83320251 42.8806957 229.82617903 49.25992596 C229.82050187 55.23670525 229.82021688 61.21347992 229.81950331 67.19026196 C229.81424715 84.69225826 229.80028612 102.19425106 229.78739882 119.69624341 C229.76677382 158.78061841 229.74614882 197.86499341 229.72489882 238.13374341 C151.51489882 238.13374341 73.30489882 238.13374341 -7.27510118 238.13374341 C-7.29572618 199.04936841 -7.31635118 159.96499341 -7.33760118 119.69624341 C-7.34670519 107.332281 -7.35580919 94.9683186 -7.36518908 82.22969067 C-7.36970568 67.19026196 -7.36970568 67.19026196 -7.37054491 60.16094983 C-7.37148066 55.22682258 -7.37524431 50.29270597 -7.38067675 45.35858166 C-7.38750099 39.07777322 -7.38959884 32.7969804 -7.38817346 26.51616859 C-7.38847181 24.2030088 -7.39047522 21.88984849 -7.39431632 19.57669187 C-7.39924095 16.46825251 -7.39810936 13.35987502 -7.3953557 10.25143445 C-7.39826837 9.33245342 -7.40118103 8.41347239 -7.40418196 7.46664345 C-7.38663812 0.171808 -7.29969378 0.02321512 0 0 Z " fill="#99BAE5" transform="translate(17.27510118484497,8.866256594657898)"/>
<path d="M0 0 C1.36616683 0.00334608 1.36616683 0.00334608 2.75993299 0.00675976 C3.71971666 0.00519977 4.67950032 0.00363978 5.66836834 0.00203252 C8.91053437 -0.00198193 12.15265424 0.00121388 15.39482069 0.00434887 C17.70858745 0.00299503 20.022354 0.00121519 22.33612013 -0.00096118 C28.63965138 -0.00553753 34.94316635 -0.00374513 41.2466979 -0.0005821 C47.82728194 0.00194047 54.40786453 -0.00039575 60.98844862 -0.00196826 C72.75077189 -0.0041075 84.51308828 -0.00078927 96.27541035 0.00429107 C106.95079692 0.00875912 117.62617261 0.00798319 128.30155897 0.00337231 C140.68395336 -0.00197331 153.06634081 -0.00397436 165.44873619 -0.00101542 C172.00872417 0.00054783 178.56870465 0.00073981 185.12869215 -0.00255191 C191.29438416 -0.00542938 197.46005553 -0.00345724 203.6257453 0.00234234 C205.89580644 0.00367061 208.1658693 0.0032747 210.43592978 0.00107968 C213.52059861 -0.00162921 216.60520016 0.00174608 219.68986464 0.00675976 C220.60064252 0.00452904 221.51142041 0.00229832 222.44979763 0 C228.610749 0.01959359 228.610749 0.01959359 229.72489882 1.13374341 C229.82292364 4.18038536 229.8548108 7.20438569 229.84515333 10.25143445 C229.84643736 11.70089711 229.84643736 11.70089711 229.84774733 13.17964184 C229.84941319 16.45415557 229.84386166 19.72861906 229.83842421 23.00312817 C229.83811813 25.37616708 229.83825092 27.74920608 229.83878946 30.12224495 C229.83901607 36.50147962 229.83320251 42.8806957 229.82617903 49.25992596 C229.82050187 55.23670525 229.82021688 61.21347992 229.81950331 67.19026196 C229.81424715 84.69225826 229.80028612 102.19425106 229.78739882 119.69624341 C229.76677382 158.78061841 229.74614882 197.86499341 229.72489882 238.13374341 C151.51489882 238.13374341 73.30489882 238.13374341 -7.27510118 238.13374341 C-7.29572618 199.04936841 -7.31635118 159.96499341 -7.33760118 119.69624341 C-7.34670519 107.332281 -7.35580919 94.9683186 -7.36518908 82.22969067 C-7.36970568 67.19026196 -7.36970568 67.19026196 -7.37054491 60.16094983 C-7.37148066 55.22682258 -7.37524431 50.29270597 -7.38067675 45.35858166 C-7.38750099 39.07777322 -7.38959884 32.7969804 -7.38817346 26.51616859 C-7.38847181 24.2030088 -7.39047522 21.88984849 -7.39431632 19.57669187 C-7.39924095 16.46825251 -7.39810936 13.35987502 -7.3953557 10.25143445 C-7.39826837 9.33245342 -7.40118103 8.41347239 -7.40418196 7.46664345 C-7.38663812 0.171808 -7.29969378 0.02321512 0 0 Z M-5.27510118 2.13374341 C-5.27510118 52.62374341 -5.27510118 103.11374341 -5.27510118 155.13374341 C12.16960179 155.96840342 12.16960179 155.96840342 29.60795546 156.34248364 C30.71504362 156.35226742 31.82213179 156.36205121 32.96276808 156.37213147 C44.24690717 156.46481272 55.53151901 156.50443691 66.81596327 156.5387727 C72.83101269 156.55900362 78.84539958 156.60370839 84.86017662 156.6601854 C90.69292419 156.71307175 96.52544713 156.73321663 102.35841131 156.74194539 C104.82444825 156.75050498 107.290472 156.76933523 109.75634909 156.79868901 C113.18533513 156.83740785 116.61239825 156.83866679 120.04154921 156.83076489 C121.05499403 156.8507655 122.06843885 156.87076611 123.11259413 156.8913728 C128.14795211 156.94621448 128.14795211 156.94621448 132.49305487 154.75122273 C134.07543016 152.95456933 134.07543016 152.95456933 135.72489882 150.13374341 C134.35136954 147.01538007 132.80650909 145.01508913 130.31083632 142.70796216 C129.63150038 142.075677 128.95216444 141.44339184 128.25224257 140.79194653 C127.54196913 140.1416145 126.83169569 139.49128247 126.09989882 138.82124341 C125.4128285 138.18251294 124.72575819 137.54378247 124.01786757 136.88569653 C117.76631367 131.09743791 111.44142216 125.38102727 104.72489882 120.13374341 C105.21771501 114.10355525 107.86101047 109.44485936 110.61552382 104.18061841 C111.1123567 103.21494442 111.60918959 102.24927044 112.12107801 101.25433362 C113.18317929 99.19221199 114.24898534 97.13199503 115.31816053 95.07353222 C116.97803547 91.87770428 118.62829847 88.6770917 120.27568007 85.47480786 C122.43771325 81.27265386 124.60259095 77.07198903 126.76982069 72.87251294 C130.4627208 65.70929565 134.11145375 58.52482099 137.72489882 51.32124341 C138.25115858 50.28129223 138.77741835 49.24134106 139.31962538 48.16987622 C140.01523573 46.78107251 140.01523573 46.78107251 140.72489882 45.36421216 C141.11677382 44.58457104 141.50864882 43.80492993 141.91239882 43.00166333 C142.85785719 41.16757139 142.85785719 41.16757139 142.72489882 39.13374341 C143.38489882 39.13374341 144.04489882 39.13374341 144.72489882 39.13374341 C144.96208632 39.93425122 145.19927382 40.73475903 145.44364882 41.55952466 C147.0375704 46.00598274 149.08869756 50.11411825 151.22489882 54.32124341 C151.66994764 55.20489575 152.11499647 56.08854809 152.57353163 56.99897778 C155.86776582 63.5131576 159.26392539 69.97002543 162.68730116 76.41694653 C168.37431009 87.18030835 173.74864908 98.10474072 179.16825819 109.00434887 C181.44645912 113.58433312 183.73562764 118.15879882 186.02568007 122.7328645 C187.61377888 125.90648404 189.19624384 129.08276903 190.77177382 132.26264966 C194.60133682 139.97912054 198.54002452 147.60096967 202.72489882 155.13374341 C210.97489882 155.13374341 219.22489882 155.13374341 227.72489882 155.13374341 C227.72489882 104.64374341 227.72489882 54.15374341 227.72489882 2.13374341 C150.83489882 2.13374341 73.94489882 2.13374341 -5.27510118 2.13374341 Z " fill="#AFB89E" transform="translate(17.27510118484497,8.866256594657898)"/>
<path d="M0 0 C0.66 0 1.32 0 2 0 C2 77.88 2 155.76 2 236 C-75.88 236 -153.76 236 -234 236 C-234 235.34 -234 234.68 -234 234 C-156.78 234 -79.56 234 0 234 C-0.33 217.83 -0.66 201.66 -1 185 C-1.03460187 175.00005986 -1.0523553 164.99986295 -1 155 C-14.86 155.33 -28.72 155.66 -43 156 C-39.41489947 160.78013404 -36.06121168 165.18892045 -32.1015625 169.5546875 C-31 171 -31 171 -31 173 C-30.01 173.33 -29.02 173.66 -28 174 C-28 174.99 -28 175.98 -28 177 C-57.04 177 -86.08 177 -116 177 C-114.03879257 172.09698144 -112.63392842 170.54529602 -109 167 C-108.505 166.175 -108.01 165.35 -107.5 164.5 C-105.71545704 161.52576174 -103.47661412 159.41144006 -101 157 C-100.67 156.34 -100.34 155.68 -100 155 C-164.845 155.495 -164.845 155.495 -231 156 C-231.66 160.62 -232.32 165.24 -233 170 C-233.33 170 -233.66 170 -234 170 C-234 164.39 -234 158.78 -234 153 C-231.43880402 153.01665459 -231.43880402 153.01665459 -228.8258667 153.03364563 C-212.75713509 153.1348781 -196.68848058 153.21019691 -180.61950302 153.25906086 C-172.35769603 153.28485141 -164.09612695 153.32001789 -155.83447266 153.37719727 C-148.63426979 153.42700656 -141.4342392 153.45928483 -134.23386884 153.47044247 C-130.42061619 153.47696556 -126.60785644 153.49231335 -122.79476166 153.52865028 C-119.20613356 153.56257132 -115.61820167 153.57306126 -112.02942848 153.56553841 C-110.08348847 153.56757136 -108.13762441 153.59448713 -106.19187927 153.62210083 C-104.45452263 153.61179085 -104.45452263 153.61179085 -102.68206787 153.60127258 C-101.67546993 153.60588155 -100.66887199 153.61049051 -99.63177109 153.61523914 C-96.05041278 152.77801138 -94.9942456 150.98544499 -93 148 C-94.33803458 144.99125902 -95.77584376 143.01614357 -98.1953125 140.79296875 C-99.1399939 139.91789673 -99.1399939 139.91789673 -100.10375977 139.02514648 C-100.77076904 138.41872314 -101.43777832 137.8122998 -102.125 137.1875 C-102.80425537 136.56238525 -103.48351074 135.93727051 -104.18334961 135.29321289 C-111.74184368 128.16221027 -111.74184368 128.16221027 -119.84375 121.6875 C-121.5625 120.4375 -121.5625 120.4375 -124 118 C-123.89757729 112.12512417 -120.80425374 107.19874729 -118.14453125 102.1171875 C-117.65043259 101.15689133 -117.15633392 100.19659515 -116.64726257 99.2071991 C-115.04298305 96.09263314 -113.42771244 92.98390784 -111.8125 89.875 C-110.16482478 86.68177391 -108.52003899 83.48707024 -106.87533569 80.29231262 C-105.7854931 78.17592376 -104.69469559 76.06002635 -103.60293579 73.94462585 C-99.16895034 65.34994807 -94.80767662 56.72106764 -90.5 48.0625 C-89.92612549 46.91056152 -89.35225098 45.75862305 -88.76098633 44.57177734 C-87.50544801 42.04877538 -86.25151781 39.52499799 -85 37 C-84.34 37 -83.68 37 -83 37 C-82.65855957 37.68811768 -82.31711914 38.37623535 -81.96533203 39.08520508 C-73.67157902 55.81070331 -73.67157902 55.81070331 -65.0625 72.375 C-59.00411065 83.76024704 -53.2981855 95.32353851 -47.55664062 106.87060547 C-45.2791691 111.44912335 -42.99074099 116.02212822 -40.70141602 120.59472656 C-39.10085646 123.79324243 -37.50606649 126.99449457 -35.91796875 130.19921875 C-35.21651067 131.61216035 -34.51469252 133.02492325 -33.8125 134.4375 C-33.48008301 135.1063623 -33.14766602 135.77522461 -32.80517578 136.46435547 C-30.60861749 140.85636992 -28.29881624 145.16188549 -25.8125 149.3984375 C-25 151 -25 151 -25 153 C-16.75 153 -8.5 153 0 153 C0 102.51 0 52.02 0 0 Z " fill="#938A54" transform="translate(245,11)"/>
<path d="M0 0 C0.66 0 1.32 0 2 0 C2 77.88 2 155.76 2 236 C-75.88 236 -153.76 236 -234 236 C-234 235.34 -234 234.68 -234 234 C-156.78 234 -79.56 234 0 234 C-0.33 217.83 -0.66 201.66 -1 185 C-1.03460187 175.00005986 -1.0523553 164.99986295 -1 155 C-14.86 155.33 -28.72 155.66 -43 156 C-39.41489947 160.78013404 -36.06121168 165.18892045 -32.1015625 169.5546875 C-31 171 -31 171 -31 173 C-30.01 173.33 -29.02 173.66 -28 174 C-28 174.99 -28 175.98 -28 177 C-57.04 177 -86.08 177 -116 177 C-114.03879257 172.09698144 -112.63392842 170.54529602 -109 167 C-108.505 166.175 -108.01 165.35 -107.5 164.5 C-105.71545704 161.52576174 -103.47661412 159.41144006 -101 157 C-100.67 156.34 -100.34 155.68 -100 155 C-164.845 155.495 -164.845 155.495 -231 156 C-231.66 160.62 -232.32 165.24 -233 170 C-233.33 170 -233.66 170 -234 170 C-234 164.39 -234 158.78 -234 153 C-231.46878227 153.05329468 -231.46878227 153.05329468 -228.88642883 153.10766602 C-212.95338784 153.43255866 -197.02138043 153.67307486 -181.08581257 153.82899475 C-172.89365884 153.91129114 -164.70398724 154.02334344 -156.51342773 154.20703125 C-149.36915603 154.36717697 -142.22668208 154.46988188 -135.08066529 154.50541592 C-131.30028801 154.52617374 -127.52505017 154.57443996 -123.74633217 154.69168091 C-107.01634593 155.91513273 -107.01634593 155.91513273 -92.39511108 149.61279297 C-89.48046846 146.38850012 -87.2657575 142.93927388 -85.21054649 139.12130737 C-83.13130562 135.47773894 -80.47493027 132.28073662 -77.875 129 C-77.42662875 128.39788193 -76.9782575 127.79576385 -76.51629925 127.17539978 C-75.41485028 125.72704381 -74.21490412 124.35459693 -73 123 C-72.01 123 -71.02 123 -70 123 C-68.22287667 124.9783071 -66.64231897 126.933974 -65.0625 129.0625 C-59.18001474 136.82885809 -53.09466506 144.38166868 -47 152 C-23.735 152.495 -23.735 152.495 0 153 C0 102.51 0 52.02 0 0 Z " fill="#423F2B" transform="translate(245,11)"/>
<path d="M0 0 C4.33602641 3.04444407 8.307459 6.19023548 12 10 C15.17832164 13.27822959 18.50309971 15.96843987 22.1953125 18.640625 C24.71467842 20.5383292 26.82829275 22.71692315 29 25 C33.07094969 29.18179238 37.24753231 33.14691148 41.66796875 36.95703125 C46.52675019 41.21355168 51.25040646 45.62245795 56 50 C54.6222489 52.96746391 53.20851789 55.57225579 51 58 C48.85047626 58.49219131 48.85047626 58.49219131 46.31135559 58.48101807 C45.34801804 58.48651672 44.38468048 58.49201538 43.39215088 58.49768066 C42.33695251 58.48329956 41.28175415 58.46891846 40.19458008 58.45410156 C39.08223495 58.45468567 37.96988983 58.45526978 36.82383728 58.45587158 C33.13875367 58.45307978 29.45447396 58.42193461 25.76953125 58.390625 C23.21791526 58.38316655 20.66629356 58.37747175 18.1146698 58.37347412 C12.07972717 58.35975016 6.04513083 58.32820938 0.01032704 58.28807616 C-6.86018754 58.24337643 -13.73071592 58.22137601 -20.6013397 58.20129442 C-34.73438687 58.1594769 -48.86717759 58.08911372 -63 58 C-58.63493036 53.62620824 -54.18715491 49.35950374 -49.6875 45.125 C-48.96626953 44.44308594 -48.24503906 43.76117188 -47.50195312 43.05859375 C-43.36517603 39.16297407 -39.16472474 35.36344172 -34.87329102 31.63916016 C-32.07293123 29.18879972 -29.34819072 26.6604139 -26.625 24.125 C-21.12954954 19.03089819 -15.58181311 13.99944095 -10 9 C-8.12461524 7.31292761 -6.24960775 5.62543573 -4.375 3.9375 C-2.91666667 2.625 -1.45833333 1.3125 0 0 Z " fill="#C2BB95" transform="translate(97,107)"/>
<path d="M0 0 C0.91146001 0.00291284 1.82292002 0.00582568 2.76200002 0.00882679 C4.20273387 0.00754515 4.20273387 0.00754515 5.67257345 0.00623763 C8.9170767 0.0045799 12.16152918 0.01010896 15.40602773 0.01555592 C17.72141672 0.01583775 20.03680579 0.01568013 22.35219473 0.01511341 C28.65979335 0.01482529 34.96737314 0.02072435 41.27496737 0.02768737 C47.85868718 0.03391852 54.44240736 0.03452452 61.02612966 0.03571278 C72.08359252 0.03830589 83.14104874 0.04472809 94.1985082 0.05364186 C105.58978389 0.06281519 116.98105769 0.06989641 128.37233633 0.07414967 C129.42485818 0.07454375 129.42485818 0.07454375 130.49864311 0.0749458 C134.01862921 0.0762508 137.53861532 0.07751452 141.05860144 0.0787577 C170.27915105 0.08913126 199.49969379 0.10682451 228.72023672 0.12908131 C229.05023672 0.78908131 229.38023672 1.44908131 229.72023672 2.12908131 C152.17023672 2.12908131 74.62023672 2.12908131 -5.27976328 2.12908131 C-5.27976328 55.58908131 -5.27976328 109.04908131 -5.27976328 164.12908131 C-4.94976328 164.12908131 -4.61976328 164.12908131 -4.27976328 164.12908131 C-4.2205099 178.45413517 -4.35716575 192.77352166 -4.59714609 207.09661061 C-4.63604437 209.52363216 -4.67077463 211.95072358 -4.70163828 214.37786061 C-4.74698112 217.92145075 -4.80489333 221.4646333 -4.86570078 225.00798756 C-4.87725199 226.09737126 -4.8888032 227.18675495 -4.90070444 228.30915028 C-4.92057413 229.30877293 -4.94044382 230.30839558 -4.96091563 231.33830982 C-4.97423929 232.21810002 -4.98756296 233.09789021 -5.00129038 234.00434071 C-5.27976328 236.12908131 -5.27976328 236.12908131 -7.27976328 238.12908131 C-7.30255325 207.95370587 -7.32026125 177.77833072 -7.33082861 147.60294858 C-7.33207939 144.04419528 -7.3333737 140.485442 -7.33469492 136.92668873 C-7.33495723 136.21817534 -7.33521954 135.50966195 -7.3354898 134.77967846 C-7.33984658 123.29256713 -7.34773417 111.80546078 -7.35691608 100.31835241 C-7.36625241 88.54022864 -7.37181885 76.76210749 -7.37385178 64.98398018 C-7.37515933 58.36473017 -7.37824801 51.74549148 -7.38549334 45.12624508 C-7.39224941 38.90393618 -7.39438109 32.68164332 -7.39287096 26.4593311 C-7.39314748 24.16830632 -7.39515504 21.87728104 -7.39896876 19.58625942 C-7.40389955 16.47307694 -7.40276385 13.35995608 -7.4000178 10.24677235 C-7.40293064 9.32753044 -7.40584348 8.40828854 -7.40884459 7.46119082 C-7.39128673 0.1634738 -7.30219381 0.01771779 0 0 Z " fill="#8D9095" transform="translate(17.279763281345367,8.870918691158295)"/>
<path d="M0 0 C3.78580423 2.03850997 7.05061257 4.10122513 9 8 C9.55600516 12.92461717 9.51156921 15.02978253 7.1875 19.4375 C5 22 5 22 2 23 C1.96261719 23.61488281 1.92523438 24.22976562 1.88671875 24.86328125 C1.82097656 25.67152344 1.75523438 26.47976562 1.6875 27.3125 C1.62949219 28.11300781 1.57148437 28.91351563 1.51171875 29.73828125 C0.91161175 32.39066259 0.14291033 33.36503879 -2 35 C-2.66 35 -3.32 35 -4 35 C-4.15855469 34.40832031 -4.31710938 33.81664062 -4.48046875 33.20703125 C-6.07434149 27.80899816 -7.73702652 24.83667613 -12 21 C-14.72324835 17.52551072 -15.64018552 14.53325116 -15.49609375 10.06640625 C-14.57136894 6.21459974 -11.89231952 3.58510424 -9 1 C-5.89046621 -0.5547669 -3.43733239 -0.28644437 0 0 Z " fill="#FEFB04" transform="translate(113,68)"/>
<path d="M0 0 C76.89 0 153.78 0 233 0 C233 0.66 233 1.32 233 2 C156.77 2.33 80.54 2.66 2 3 C1.67 21.48 1.34 39.96 1 59 C0.67 59 0.34 59 0 59 C0 39.53 0 20.06 0 0 Z " fill="#B6C9E1" transform="translate(12,11)"/>
<path d="M0 0 C0.66 0 1.32 0 2 0 C2 0.66 2 1.32 2 2 C2.66 2 3.32 2 4 2 C4.268125 2.969375 4.53625 3.93875 4.8125 4.9375 C5.204375 5.948125 5.59625 6.95875 6 8 C6.99 8.33 7.98 8.66 9 9 C9.72850859 10.64057839 10.38540496 12.31343688 11 14 C12.0098523 15.76854962 13.05215619 17.51893801 14.125 19.25 C17 23.89952153 17 23.89952153 17 25 C6.44 25 -4.12 25 -15 25 C-13.66666667 21.66666667 -12.33333333 18.33333333 -11 15 C-10.34 15 -9.68 15 -9 15 C-9 14.01 -9 13.02 -9 12 C-8.34 12 -7.68 12 -7 12 C-7 11.01 -7 10.02 -7 9 C-6.34 9 -5.68 9 -5 9 C-5 8.01 -5 7.02 -5 6 C-4.34 6 -3.68 6 -3 6 C-2.690625 5.195625 -2.38125 4.39125 -2.0625 3.5625 C-1 1 -1 1 0 0 Z " fill="#4B472B" transform="translate(72,175)"/>
<path d="M0 0 C4.50642215 1.49526593 6.33104429 5.09806887 8.6875 8.9375 C9.09033203 9.57107422 9.49316406 10.20464844 9.90820312 10.85742188 C11.59397961 13.54280452 12.9939119 15.9817357 14 19 C5.42 19 -3.16 19 -12 19 C-6.375 8.875 -6.375 8.875 -3.1875 4.4375 C-2.28064453 3.16712891 -2.28064453 3.16712891 -1.35546875 1.87109375 C-0.90816406 1.25363281 -0.46085937 0.63617188 0 0 Z " fill="#4A4529" transform="translate(101,192)"/>
<path d="M0 0 C77.88 0 155.76 0 236 0 C236 0.33 236 0.66 236 1 C158.12 1 80.24 1 0 1 C0 0.67 0 0.34 0 0 Z " fill="#000000" transform="translate(10,248)"/>
<path d="M0 0 C0.33 0 0.66 0 1 0 C1 77.88 1 155.76 1 236 C0.67 236 0.34 236 0 236 C0 158.12 0 80.24 0 0 Z " fill="#555555" transform="translate(248,10)"/>
<path d="M0 0 C0.33 0 0.66 0 1 0 C1 77.88 1 155.76 1 236 C0.67 236 0.34 236 0 236 C0 158.12 0 80.24 0 0 Z " fill="#000000" transform="translate(8,10)"/>
<path d="M0 0 C77.55 0 155.1 0 235 0 C235 0.33 235 0.66 235 1 C157.45 1 79.9 1 0 1 C0 0.67 0 0.34 0 0 Z " fill="#FFFFFF" transform="translate(11,7)"/>
<path d="M0 0 C67.815 0.495 67.815 0.495 137 1 C137 1.33 137 1.66 137 2 C70.67 2.495 70.67 2.495 3 3 C2.34 7.62 1.68 12.24 1 17 C0.67 17 0.34 17 0 17 C0 11.39 0 5.78 0 0 Z " fill="#435B18" transform="translate(11,164)"/>
<path d="M0 0 C0.33 0 0.66 0 1 0 C1.33 2.97 1.66 5.94 2 9 C2.33 9 2.66 9 3 9 C3.05925338 23.32505386 2.92259753 37.64444035 2.68261719 51.9675293 C2.64371891 54.39455085 2.60898865 56.82164228 2.578125 59.2487793 C2.53278216 62.79236945 2.47486995 66.33555199 2.4140625 69.87890625 C2.40251129 70.96828995 2.39096008 72.05767365 2.37905884 73.18006897 C2.35918915 74.17969162 2.33931946 75.17931427 2.31884766 76.20922852 C2.30552399 77.08901871 2.29220032 77.9688089 2.2784729 78.8752594 C2 81 2 81 0 83 C0 55.61 0 28.22 0 0 Z " fill="#6A6D63" transform="translate(10,164)"/>
<path d="M0 0 C15.18 0 30.36 0 46 0 C46 10.56 46 21.12 46 32 C45.67 32 45.34 32 45 32 C45 22.1 45 12.2 45 2 C30.48 2.33 15.96 2.66 1 3 C0.67 2.01 0.34 1.02 0 0 Z " fill="#5B6C38" transform="translate(199,164)"/>
<path d="M0 0 C7.59 0 15.18 0 23 0 C23.33 0.66 23.66 1.32 24 2 C13.605 2.495 13.605 2.495 3 3 C2.34 7.62 1.68 12.24 1 17 C0.67 17 0.34 17 0 17 C0 11.39 0 5.78 0 0 Z " fill="#4E6030" transform="translate(11,164)"/>
<path d="M0 0 C2.97 0 5.94 0 9 0 C8.38857603 7.45937249 8.38857603 7.45937249 6.5625 10 C5 11 5 11 3 11 C2.49632243 9.54293274 1.99717444 8.08429904 1.5 6.625 C1.2215625 5.81289062 0.943125 5.00078125 0.65625 4.1640625 C0 2 0 2 0 0 Z " fill="#ABA8B5" transform="translate(106,92)"/>
<path d="M0 0 C0.66 0.66 1.32 1.32 2 2 C1.31292969 2.13277344 0.62585938 2.26554687 -0.08203125 2.40234375 C-1.43361328 2.66724609 -1.43361328 2.66724609 -2.8125 2.9375 C-4.15248047 3.19853516 -4.15248047 3.19853516 -5.51953125 3.46484375 C-8.11397171 3.97741153 -8.11397171 3.97741153 -11 5 C-12.20882096 7.00016466 -12.20882096 7.00016466 -13 9 C-13 5 -13 5 -10.4375 2.25 C-7.01741751 -0.3902062 -4.30014908 -0.57886622 0 0 Z " fill="#FBED16" transform="translate(113,68)"/>
<path d="M0 0 C1.65 1.65 3.3 3.3 5 5 C-0.2734375 8.22265625 -0.2734375 8.22265625 -2 9 C-2.66 8.67 -3.32 8.34 -4 8 C-2.68 5.36 -1.36 2.72 0 0 Z " fill="#F9E51D" transform="translate(97,88)"/>
<path d="M0 0 C0.99 0.33 1.98 0.66 3 1 C4.6875 4.5625 4.6875 4.5625 6 8 C3.03 7.01 0.06 6.02 -3 5 C-1 1 -1 1 0 0 Z " fill="#F9E71C" transform="translate(121,89)"/>
<path d="M0 0 C4.455 1.98 4.455 1.98 9 4 C7.35 5.65 5.7 7.3 4 9 C0 2.25 0 2.25 0 0 Z " fill="#FAE718" transform="translate(93,63)"/>
<path d="M0 0 C0 3.69418201 -1.28179295 5.77836178 -3 9 C-4.65 7.35 -6.3 5.7 -8 4 C-5.36 2.68 -2.72 1.36 0 0 Z " fill="#FBE916" transform="translate(126,63)"/>
<path d="M0 0 C0 1.98 0 3.96 0 6 C-3.34373475 5.44271087 -6.03312999 4.64826111 -9 3 C-7.68825887 2.4980125 -6.37558403 1.99846423 -5.0625 1.5 C-4.33160156 1.2215625 -3.60070312 0.943125 -2.84765625 0.65625 C-1 0 -1 0 0 0 Z " fill="#F8E91A" transform="translate(95,77)"/>
<path d="M0 0 C0.66 0 1.32 0 2 0 C3.76462683 3.08809695 4 4.23312136 4 8 C2.02 8 0.04 8 -2 8 C-1.34 5.36 -0.68 2.72 0 0 Z " fill="#FAEB15" transform="translate(109,58)"/>
<path d="M0 0 C1.98 0 3.96 0 6 0 C5.34 2.64 4.68 5.28 4 8 C3.34 8 2.68 8 2 8 C1.34 5.36 0.68 2.72 0 0 Z " fill="#FDF10D" transform="translate(107,95)"/>
<path d="M0 0 C2.0625 1.75 2.0625 1.75 4 4 C3.75 6.25 3.75 6.25 3 8 C2.67 7.34 2.34 6.68 2 6 C-0.46800047 7.15173355 -2.04783565 8.04783565 -4 10 C-4 9.34 -4 8.68 -4 8 C-4.66 7.67 -5.32 7.34 -6 7 C-5.195625 6.21625 -4.39125 5.4325 -3.5625 4.625 C-1.01309583 2.28017144 -1.01309583 2.28017144 0 0 Z " fill="#A2AAC5" transform="translate(121,84)"/>
<path d="M0 0 C2.64 0.66 5.28 1.32 8 2 C8 2.66 8 3.32 8 4 C5.09399739 5.25664978 3.20395416 6 0 6 C0 4.02 0 2.04 0 0 Z " fill="#FBF110" transform="translate(125,77)"/>
<path d="M0 0 C3.62528568 -0.20140476 5.86501708 0.14223235 9 2 C8.34 3.65 7.68 5.3 7 7 C5.83040013 6.02433888 4.66438823 5.044375 3.5 4.0625 C2.8503125 3.51722656 2.200625 2.97195312 1.53125 2.41015625 C1.0259375 1.94480469 0.520625 1.47945313 0 1 C0 0.67 0 0.34 0 0 Z " fill="#B1B1C0" transform="translate(115,69)"/>
<path d="M0 0 C0.598125 0.763125 1.19625 1.52625 1.8125 2.3125 C3.46959332 4.3483575 5.10297674 6.1978279 7 8 C6.34 8 5.68 8 5 8 C5 8.66 5 9.32 5 10 C1.88265283 8.44132642 0.7150223 5.95693499 -1 3 C-0.67 2.01 -0.34 1.02 0 0 Z " fill="#9EAACB" transform="translate(98,84)"/>
<path d="" fill="#000000" transform="translate(0,0)"/>
<path d="" fill="#000000" transform="translate(0,0)"/>
</svg>
