<?xml version="1.0" encoding="utf-8"?>
<!DOCTYPE svg PUBLIC "-//W3C//DTD SVG 1.0//EN" "http://www.w3.org/TR/2001/REC-SVG-20010904/DTD/svg10.dtd">
<svg version="1.0" xmlns="http://www.w3.org/2000/svg" width="1100px" height="614px" viewBox="0 0 1100 614" preserveAspectRatio="xMidYMid meet">
 <g fill="#ffffff">
  <path d="M0 306.98 l0 -306.98 550 0 550 0 0 306.98 0 306.98 -550 0 -550 0 0 -306.98z m291.79 288.99 c1.68 -3.92 10.47 -25.02 19.59 -46.77 18.63 -44.53 25.58 -61.08 29.98 -71.55 22.78 -54.28 34.22 -81.46 35.25 -84.10 l0.72 -1.84 -13.03 0 -12.95 0 -4.16 10.23 c-2.24 5.60 -6.64 16.07 -9.67 23.34 -12.07 28.46 -23.74 56.20 -29.58 70.27 -3.36 8.15 -6.72 15.43 -7.51 16.23 -1.76 1.76 -9.03 2 -12.87 0.32 -3.12 -1.28 -1.68 2 -18.95 -42.05 -7.51 -19.11 -17.51 -44.61 -22.22 -56.52 l-8.55 -21.82 -13.03 0 -12.95 0 1.04 2.64 c2.24 5.28 39.09 99.93 44.53 114.16 5.20 13.59 7.19 17.43 11.43 21.26 4.08 3.76 9.75 5.84 15.91 5.84 3.84 0 3.84 0 3.84 2.72 0 1.68 -4.72 13.91 -12.47 32.54 -6.88 16.47 -12.79 30.54 -13.19 31.34 -0.72 1.28 0 1.36 12.55 1.20 l13.27 -0.24 3.04 -7.19z m-204.65 -43.25 c10.23 -1.20 23.98 -6.80 35.97 -14.71 9.51 -6.24 22.62 -19.35 29.18 -29.18 9.59 -14.39 20.86 -39.25 27.02 -59.64 6.48 -21.18 9.27 -38.37 9.91 -59.96 0.88 -29.50 -4.08 -61.72 -12.55 -82.10 -11.51 -27.42 -35.73 -44.93 -62.35 -44.93 -11.59 0 -28.86 4.64 -41.01 10.95 -7.67 4.08 -15.67 11.67 -19.19 18.39 -2.80 5.44 -5.76 13.99 -5.20 15.43 0.16 0.40 2.56 -1.12 5.44 -3.36 10.87 -8.47 23.90 -14.95 36.77 -18.31 9.03 -2.32 24.46 -2.56 31.58 -0.40 17.11 5.12 31.26 20.39 38.53 41.65 5.04 14.63 5.44 36.29 1.36 65.39 -0.56 3.68 -0.56 3.76 -3.52 3.76 l-2.96 0 -2.48 -6.56 c-4.88 -12.87 -12.23 -21.42 -22.86 -26.62 -8.87 -4.32 -14.55 -5.44 -24.86 -4.96 -10.79 0.56 -19.83 3.04 -30.78 8.55 -24.06 12.07 -40.53 32.54 -49.08 60.92 -9.51 31.58 -9.83 60.12 -0.88 85.22 3.52 9.83 6.72 14.95 13.83 22.62 6.56 6.95 12.39 11.11 20.23 14.47 6.08 2.56 16.55 4.72 20.70 4.24 1.52 -0.16 4.80 -0.56 7.19 -0.88z m823.72 -11.51 c28.62 -2.72 43.09 -17.59 43.17 -44.37 0.08 -20.94 -8.87 -32.86 -29.26 -38.85 -5.36 -1.60 -8.15 -1.76 -36.61 -2.24 l-30.78 -0.48 -4 -2 c-5.28 -2.64 -7.43 -6.48 -8.07 -14.55 -0.96 -10.55 2.16 -16.95 9.67 -20.39 2.96 -1.36 6.88 -1.44 48.20 -1.68 l44.93 -0.24 0 -12.31 0 -12.39 -44.37 0 c-49.48 0 -51.96 0.24 -62.35 5.20 -15.83 7.59 -24.30 27.74 -19.99 47.81 3.36 15.91 13.51 25.82 30.86 30.22 6 1.52 9.75 1.76 36.29 2.24 l29.58 0.48 3.60 2 c5.52 3.04 7.19 7.11 7.19 16.95 0 8.95 -0.96 12.07 -4.72 15.27 -4.80 4 -5.28 4.08 -55.40 4.32 l-47.01 0.32 0 12.31 0 12.31 5.44 0.32 c13.19 0.64 75.78 0.48 83.62 -0.24z m-498.36 -61.08 c0 -54.52 0.16 -61.24 1.28 -62.35 1.12 -1.12 5.92 -1.28 41.09 -1.28 21.90 0 40.37 0.24 41.09 0.48 1.12 0.48 1.28 6.72 1.28 62.35 l0 61.88 12.79 0 12.79 0 0.16 -62.11 0.24 -62.19 25.58 0 c20.86 0.08 26.70 0.32 31.42 1.44 15.11 3.36 23.42 10.87 26.94 24.14 1.04 4 1.20 12.07 1.20 51.72 l0 47.01 13.19 0 13.19 0 0 -41.33 c0 -44.29 -0.64 -55.96 -3.28 -64.67 -4.88 -15.91 -15.11 -28.30 -28.78 -35.01 -8.23 -4 -16.55 -6.40 -26.54 -7.67 -9.11 -1.12 -173.39 -1.12 -177.47 0.08 -1.68 0.48 -4.48 2.08 -6.24 3.68 -5.68 5.12 -5.52 2.64 -5.52 77.94 l0 66.99 12.79 0 12.79 0 0 -61.08z m350.55 58.84 c19.43 -5.28 34.22 -18.63 40.61 -36.53 7.59 -21.34 7.27 -53.64 -0.72 -73.71 -5.92 -14.79 -18.23 -27.18 -32.38 -32.54 -11.03 -4.16 -15.91 -4.64 -43.65 -4.32 l-25.42 0.32 -7.59 2.56 c-24.62 8.23 -37.73 26.22 -41.57 57.24 -1.36 10.47 -0.56 29.74 1.52 38.85 3.52 15.51 7.83 23.66 17.35 33.34 5.44 5.44 7.75 7.11 13.99 10.07 6.48 3.12 12.95 5.12 20.70 6.48 1.12 0.16 12.95 0.24 26.38 0.16 22.22 -0.16 24.94 -0.32 30.78 -1.92z m-379.64 -168.04 c2.48 -3.12 4.40 -5.76 4.24 -5.84 -0.16 -0.08 -1.28 -0.96 -2.40 -2 l-2.08 -1.84 -4.64 5.76 -4.64 5.68 2.32 1.92 c1.28 1.04 2.40 1.84 2.48 1.92 0.08 0 2.24 -2.56 4.72 -5.60z m22.06 -30.62 l3.84 -5.76 -1.84 -1.36 c-0.96 -0.80 -2.24 -1.44 -2.72 -1.44 -0.56 0 -2.72 2.56 -4.80 5.68 l-3.76 5.68 1.92 1.52 c1.12 0.80 2.40 1.52 2.80 1.52 0.48 0 2.48 -2.64 4.56 -5.84z m19.83 -32.22 c1.84 -3.28 3.20 -6.16 3.12 -6.24 -0.16 -0.16 -1.44 -0.88 -2.88 -1.60 l-2.48 -1.28 -3.28 6.08 c-1.84 3.36 -3.28 6.32 -3.28 6.56 0 0.80 4.24 3.20 4.96 2.80 0.32 -0.16 2.08 -2.96 3.84 -6.32z m653.84 -15.19 c4.96 -1.04 11.67 -8.55 13.11 -14.79 0.72 -2.80 -1.20 -8.95 -3.76 -12.31 -3.04 -3.92 -8.71 -7.03 -12.79 -7.03 -8.15 0 -17.27 9.11 -17.27 17.19 0 3.76 3.28 10.31 6.48 12.95 4.80 4.08 8.55 5.12 14.23 4z m-653.05 -8.71 l0 -3.60 -5.52 0 c-3.04 0 -6.64 -0.24 -7.99 -0.48 l-2.48 -0.48 0 4.08 0 4.08 7.99 0 7.99 0 0 -3.60z m36.61 -0.16 l-0.24 -3.84 -7.75 -0.24 -7.83 -0.24 0 4.08 0 4 8.07 0 7.99 0 -0.24 -3.76z m30.38 2.96 l5.76 0 0 -4 0 -4 -6.64 0 c-4.08 0 -7.03 0.40 -7.59 0.96 -0.56 0.56 -0.96 2.56 -0.96 4.48 0 3.28 0.16 3.52 1.84 3.04 0.96 -0.24 4.40 -0.48 7.59 -0.48z m-104.32 -3.36 c0.32 -2.24 0.16 -3.60 -0.48 -4 -0.56 -0.32 -4.08 -0.64 -7.91 -0.64 l-7.03 0 0 4 0 4 7.51 0 7.43 0 0.48 -3.36z m144.14 1.76 l2.72 0 0 -4.08 0 -4.16 -7.35 0.64 c-4.08 0.24 -7.75 0.80 -8.15 1.20 -0.32 0.32 -0.40 2.16 -0.08 4 l0.56 3.44 4.88 -0.56 c2.64 -0.24 6 -0.48 7.43 -0.48z m-180.35 -3.52 c0 -2 -0.24 -3.76 -0.64 -3.92 -0.32 -0.24 -3.84 -0.56 -7.75 -0.64 l-7.19 -0.24 -0.24 3.68 -0.24 3.76 3.44 0.32 c1.92 0.16 5.52 0.32 8.07 0.40 l4.56 0.16 0 -3.52z m215.68 1.44 l4.16 -0.56 0 -3.92 0 -3.92 -6.95 0.48 c-3.92 0.32 -7.43 0.64 -7.83 0.80 -0.48 0.08 -0.72 1.84 -0.56 3.92 l0.32 3.68 3.36 0 c1.76 0 5.20 -0.24 7.51 -0.48z m-252.86 -4 c0.24 -2 0.40 -3.76 0.24 -3.92 -0.16 -0.16 -3.52 -0.64 -7.43 -1.04 -8.07 -0.88 -8.39 -0.80 -8.39 4 l0 2.88 5.44 0.56 c2.96 0.24 5.92 0.64 6.56 0.72 2.72 0.64 3.04 0.32 3.60 -3.20z m127.43 -5.52 c0.56 -2.24 1.20 -4.56 1.44 -5.28 0.24 -0.88 -0.48 -1.60 -2.16 -2.32 -1.36 -0.56 -2.64 -0.80 -2.88 -0.56 -0.64 0.56 -5.92 12.79 -5.68 13.03 0.08 0.08 1.20 0.64 2.56 1.36 2.24 1.12 2.48 1.12 4 -0.56 0.88 -0.96 2.08 -3.52 2.72 -5.68z m164.52 6.80 c1.68 0 1.84 -0.32 1.84 -4.08 l0 -4.16 -2.96 0.56 c-1.68 0.24 -5.28 0.48 -7.99 0.48 l-5.04 0 0 4.08 0 4.16 6.16 -0.56 c3.36 -0.24 6.95 -0.48 7.99 -0.48z m-328.40 -6.88 c0.08 -2.16 -0.24 -2.56 -2.08 -2.96 -5.12 -1.04 -12.07 -1.52 -12.39 -0.88 -0.24 0.40 -0.64 2 -0.96 3.60 l-0.48 2.96 7.35 1.04 c8.31 1.28 8.47 1.20 8.55 -3.76z m365.33 3.12 c1.68 -0.40 1.84 -0.72 1.36 -3.68 -0.32 -1.84 -0.72 -3.44 -0.88 -3.60 -0.16 -0.16 -3.52 0 -7.51 0.24 l-7.27 0.64 0 3.92 0 4 6.24 -0.56 c3.36 -0.24 7.03 -0.72 8.07 -0.96z m32.62 -3.04 l5.76 -0.56 -0.48 -3.68 c-0.24 -2.08 -0.48 -3.84 -0.56 -3.84 -0.08 -0.08 -2.72 0.16 -6 0.56 -6.88 0.72 -8.87 2.16 -8.87 6.08 0 2.56 0.16 2.72 2.24 2.32 1.20 -0.24 4.72 -0.64 7.91 -0.88z m-434.32 -4.48 c0.32 -1.84 0.32 -3.52 0.16 -3.76 -0.72 -0.64 -14.07 -3.20 -14.39 -2.64 -0.16 0.24 -0.48 1.92 -0.56 3.68 l-0.32 3.12 6.40 1.36 c3.52 0.72 6.80 1.36 7.27 1.44 0.48 0.08 1.12 -1.44 1.44 -3.20z m474.77 0.40 c1.04 -0.32 1.36 -1.28 1.36 -4.08 l0 -3.60 -7.75 0.56 c-4.32 0.32 -7.91 0.64 -8.07 0.80 -0.08 0.08 0.08 1.84 0.32 3.92 l0.56 3.76 6.08 -0.48 c3.36 -0.32 6.72 -0.72 7.51 -0.88z m329.04 -3.28 c0.48 -1.68 0.88 -3.28 0.88 -3.52 0 -0.24 -3.12 -1.36 -6.88 -2.32 -7.19 -2 -8.23 -1.76 -8.31 1.76 0 0.72 -0.24 1.84 -0.48 2.48 -0.32 0.88 1.12 1.52 6.24 2.80 3.68 0.88 6.88 1.60 7.19 1.68 0.32 0 0.96 -1.28 1.36 -2.88z m-294.27 0.08 l3.44 -0.40 -0.56 -3.76 c-0.32 -2.08 -0.56 -3.76 -0.64 -3.84 0 0 -3.44 0.32 -7.43 0.72 l-7.43 0.88 0 3.28 c0 1.84 0.24 3.52 0.48 3.84 0.48 0.40 4.40 0.24 12.15 -0.72z m-545.52 -6.88 c0.48 -2.08 0.32 -2.16 -6.24 -4.16 -3.68 -1.12 -6.88 -2.08 -7.19 -2.08 -0.48 0 -2.32 6.48 -1.92 6.72 0.16 0.08 3.28 1.12 7.03 2.24 7.43 2.16 7.03 2.24 8.31 -2.72z m580.06 4.16 c5.04 0 5.76 -0.64 5.12 -4.64 -0.48 -3.28 -0.56 -3.36 -3.84 -3.36 -1.76 0 -5.20 0.24 -7.43 0.48 l-4.24 0.56 0 3.36 c0 4.16 0.48 4.64 4 4.08 1.52 -0.24 4.40 -0.48 6.40 -0.48z m39.81 -2.88 c1.52 -0.32 1.76 -0.88 1.76 -4 l0 -3.76 -7.35 0.64 c-4.08 0.24 -7.67 0.80 -7.91 1.04 -0.24 0.32 -0.32 2 -0.16 3.76 l0.40 3.28 5.68 -0.32 c3.20 -0.08 6.56 -0.40 7.59 -0.64z m184.67 -2.40 c0.24 -3.76 0.48 -3.68 -9.99 -4.80 l-5.04 -0.56 0 3.76 c0 3.12 0.24 3.68 1.84 4.08 2.80 0.56 7.11 0.96 10.15 0.88 2.72 -0.08 2.80 -0.24 3.04 -3.36z m-148.85 0.48 c2.72 0 2.72 0 2.72 -3.76 l0 -3.84 -7.99 0.24 c-8.79 0.32 -8.63 0.16 -7.43 5.76 l0.48 2.64 4.80 -0.56 c2.64 -0.24 6 -0.48 7.43 -0.48z m112.40 -3.68 c0.16 -2 0.08 -3.76 -0.08 -4 -0.16 -0.16 -3.68 -0.32 -7.83 -0.32 l-7.43 0 0 4 0 4 7.51 0 7.51 0 0.32 -3.68z m-72.91 -1.12 l0 -4 -7.99 0 c-8.79 0 -8.63 -0.16 -7.51 5.52 l0.56 2.48 7.43 0 7.51 0 0 -4z m36.77 0 l0 -4 -7.99 0 -7.99 0 0 4 0 4 7.99 0 7.99 0 0 -4z m-766.64 -7.27 c0 -0.88 -11.99 -6.40 -12.79 -5.92 -0.88 0.56 -2.72 5.20 -2.16 5.68 0.16 0.24 3.20 1.60 6.64 3.12 l6.24 2.72 1.04 -2.48 c0.56 -1.28 1.04 -2.72 1.04 -3.12z m283.31 -7.99 c1.20 -4 2.08 -7.35 1.92 -7.51 -0.16 -0.16 -1.60 -0.64 -3.28 -1.04 -2.24 -0.64 -3.12 -0.64 -3.36 0.08 -1.12 3.60 -3.68 13.51 -3.44 13.75 0.32 0.24 4.88 1.84 5.52 1.92 0.24 0.08 1.44 -3.20 2.64 -7.19z m-316.89 -6.32 c1.20 -2.88 1.20 -2.88 -5.76 -6.72 l-5.36 -2.96 -1.20 1.84 c-0.64 1.04 -1.28 2.32 -1.44 2.88 -0.24 0.96 11.27 8.15 12.23 7.67 0.32 -0.16 0.96 -1.36 1.52 -2.72z m-31.18 -20.86 c0.56 -0.96 -0.56 -2.16 -4.80 -5.36 l-5.52 -4.16 -2.08 2.16 c-1.12 1.28 -2 2.40 -2 2.64 0 0.24 2.64 2.24 5.84 4.56 6.16 4.48 6.24 4.48 8.55 0.16z m355.26 -6.08 c0.24 -2.16 0.64 -5.92 0.96 -8.39 l0.48 -4.64 -2.72 0 c-4.08 0 -5.12 1.76 -5.76 9.35 l-0.48 6.56 2.96 0.32 c1.68 0.16 3.28 0.32 3.60 0.40 0.24 0.08 0.72 -1.52 0.96 -3.60z m-387.72 -23.10 c-2.48 -2.80 -4.72 -5.12 -5.04 -5.12 -0.24 0.08 -1.52 0.88 -2.72 1.92 l-2.32 1.84 5.36 5.52 5.28 5.52 2 -2.24 1.92 -2.32 -4.48 -5.12z m387.64 -18.87 c-1.52 -9.91 -1.36 -9.67 -4.40 -9.03 -1.44 0.32 -2.96 0.88 -3.28 1.20 -0.40 0.32 -0.24 3.92 0.32 7.91 l1.04 7.27 3.68 0 3.76 0 -1.12 -7.35z m-408.74 -2.80 c1.12 -0.72 2.08 -1.36 2.24 -1.52 0.16 -0.08 -4.32 -9.83 -6 -12.95 -0.24 -0.56 -5.84 1.76 -5.84 2.48 0 1.12 6.48 13.35 7.11 13.35 0.32 0 1.44 -0.64 2.48 -1.36z m397.15 -32.94 c-1.44 -2.48 -3.12 -5.44 -3.84 -6.64 -1.44 -2.72 -1.76 -2.72 -4.48 -0.40 l-2.16 1.84 3.52 6 3.52 6 2.96 -1.12 3.04 -1.20 -2.56 -4.48z m-406.26 -3.12 c0.56 -0.32 1.04 -3.68 1.28 -7.83 l0.32 -7.35 -3.36 -0.72 c-3.28 -0.80 -3.36 -0.72 -3.84 1.52 -0.24 1.20 -0.72 5.12 -0.96 8.63 l-0.56 6.40 3.12 0 c1.68 0 3.52 -0.32 4 -0.64z m381.24 -29.66 l-5.20 -5.28 -2.16 2.24 -2.16 2.16 5.12 5.20 5.12 5.20 2.24 -2.16 2.32 -2.16 -5.28 -5.20z m-367.97 -12.15 l3.68 -5.76 -2.08 -1.76 c-1.20 -1.04 -2.40 -1.68 -2.80 -1.44 -0.32 0.16 -2.40 3.04 -4.56 6.24 l-4 5.92 2.16 1.20 c1.28 0.64 2.64 1.20 3.04 1.20 0.48 0.08 2.48 -2.48 4.56 -5.60z m342.71 -5.44 l1.68 -2.32 -5.12 -3.68 c-6.80 -4.88 -7.19 -4.96 -8.47 -2.32 -0.64 1.20 -1.12 2.48 -1.20 2.80 0 0.64 9.91 7.67 10.95 7.75 0.32 0.08 1.28 -0.96 2.16 -2.24z m-318.25 -20.55 c2.48 -2.08 4.80 -3.92 5.12 -4.24 0.32 -0.32 -0.08 -1.68 -0.96 -3.12 l-1.60 -2.64 -6 4.56 -5.92 4.64 1.60 2.24 c0.88 1.20 2 2.24 2.40 2.24 0.40 0 2.80 -1.68 5.36 -3.68z m286.83 1.12 c1.20 -2.40 1.20 -2.56 -0.16 -3.68 -2.72 -2 -10.79 -5.84 -11.43 -5.44 -0.80 0.56 -2.80 5.20 -2.40 5.60 0.64 0.56 11.51 6 12.07 6.08 0.32 0 1.20 -1.12 1.92 -2.56z m-33.58 -15.51 c0.72 -1.60 0.96 -3.20 0.56 -3.52 -1.60 -1.28 -12.39 -4.96 -12.95 -4.32 -0.40 0.40 -1.04 1.84 -1.52 3.20 l-0.80 2.48 6.08 2.48 c3.44 1.28 6.48 2.40 6.80 2.48 0.32 0 1.20 -1.20 1.84 -2.80z m-226.40 -2.64 c0.32 -0.40 2.96 -1.76 6.08 -2.96 l5.52 -2.16 -1.20 -2.80 c-0.64 -1.60 -1.36 -3.04 -1.52 -3.20 -0.48 -0.48 -13.19 5.60 -13.19 6.32 0 0.96 2.72 5.52 3.36 5.52 0.32 0 0.72 -0.32 0.96 -0.72z m191.06 -7.11 c0.16 -0.32 0.56 -1.84 0.88 -3.36 l0.48 -2.80 -6.95 -1.84 c-3.84 -1.04 -7.19 -1.52 -7.51 -1.20 -0.32 0.32 -0.80 1.92 -1.12 3.52 l-0.48 2.96 6.16 1.60 c7.27 1.84 7.99 2 8.55 1.12z m-153.01 -6.48 c2 -0.48 4.72 -0.88 6.08 -0.88 l2.56 0 -0.80 -3.76 c-0.48 -2.16 -0.88 -3.92 -1.04 -4.08 -0.32 -0.40 -7.83 1.36 -11.27 2.64 l-3.28 1.28 0.88 3.12 c0.56 2.32 1.12 3.12 2.08 2.80 0.64 -0.16 2.80 -0.72 4.80 -1.12z m117.83 -4.24 c0.32 -2.08 0.24 -3.52 -0.32 -3.84 -0.96 -0.56 -13.67 -2.56 -14.07 -2.16 -0.08 0.08 -0.40 1.84 -0.72 3.84 l-0.56 3.60 5.92 0.88 c9.75 1.36 9.19 1.44 9.75 -2.32z m-75.78 -1.44 l2.72 0 0 -4.08 0 -4 -6.95 0.48 c-8.95 0.64 -9.03 0.72 -9.03 3.52 0 4.72 0.56 5.12 5.84 4.56 2.64 -0.24 6 -0.48 7.43 -0.48z m39.33 -3.36 l-0.24 -4.24 -7.59 0 -7.59 0 -0.24 3.76 -0.24 3.76 7.43 0.32 c4.08 0.08 7.75 0.32 8.07 0.40 0.32 0.08 0.56 -1.76 0.40 -4z"/>
  <path d="M68.99 525.38 c-10.23 -3.68 -17.11 -12.07 -21.10 -25.90 -2.16 -7.43 -2.96 -29.10 -1.60 -41.49 2.24 -19.11 6.80 -36.21 12.15 -45.17 4 -6.80 12.95 -15.35 19.51 -18.87 10.23 -5.36 15.43 -6.64 27.18 -6.64 12.31 0 16.55 0.88 26.46 5.60 5.68 2.72 8.23 4.56 11.59 8.15 5.28 5.68 9.03 12.63 10.71 19.51 1.60 6.80 1.52 22.22 -0.08 30.14 -4.32 21.26 -17.03 44.37 -32.38 58.92 -7.43 7.03 -13.75 11.19 -21.42 14.31 -5.44 2.08 -7.19 2.40 -16.47 2.64 -8.55 0.24 -11.11 0 -14.55 -1.20z"/>
  <path d="M701.89 514.35 c-5.76 -1.52 -10.15 -4.24 -14.15 -8.55 -4.24 -4.64 -6.16 -8.39 -8.39 -16.63 -1.52 -5.84 -1.76 -8.71 -1.84 -22.30 0 -17.91 1.04 -24.30 5.68 -33.50 4.40 -8.79 10.71 -13.27 22.14 -15.59 7.27 -1.52 37.57 -1.76 47.41 -0.40 16.39 2.24 24.70 9.99 28.86 26.70 2 7.91 2 36.77 0.08 44.45 -3.84 15.27 -10.47 22.38 -23.90 25.90 -6.24 1.68 -49.64 1.60 -55.88 -0.08z"/>
 </g>
 <g fill="#000000">
  <path d="M258.21 605.64 c0 -0.16 0.72 -2.08 1.68 -4.24 3.44 -7.99 26.30 -62.75 26.30 -63.07 0 -0.16 -1.76 -0.32 -3.84 -0.32 -9.19 0 -17.35 -4.88 -21.42 -12.87 -1.04 -2.08 -4.32 -10.23 -7.35 -18.07 -6.24 -16.07 -18.55 -47.73 -34.22 -87.94 -5.92 -15.03 -10.95 -27.82 -11.19 -28.54 -0.40 -1.12 1.28 -1.28 15.75 -1.28 l16.31 0 8.55 21.82 c4.72 11.91 14.71 37.41 22.22 56.52 7.51 19.11 14.23 36.21 15.03 37.89 2 4.80 8.87 6.95 11.99 3.84 0.80 -0.80 4.16 -8.07 7.51 -16.23 5.84 -14.07 17.51 -41.81 29.58 -70.27 3.04 -7.27 7.43 -17.75 9.67 -23.34 l4.16 -10.23 16.63 0 16.63 0 -1.20 2.24 c-0.64 1.20 -4.16 9.51 -7.91 18.55 -3.76 9.03 -11.19 26.86 -16.55 39.57 -17.35 41.25 -17.43 41.41 -42.77 101.93 -9.11 21.74 -17.91 42.85 -19.59 46.77 l-3.04 7.19 -16.47 0.24 c-9.03 0.08 -16.47 0 -16.47 -0.16z"/>
  <path d="M68.43 555.12 c-12.47 -2.24 -22.46 -7.83 -31.82 -17.83 -7.35 -7.83 -10.95 -13.91 -14.55 -24.70 -11.83 -35.73 -5.04 -87.62 15.43 -117.99 11.67 -17.27 30.22 -30.86 50.12 -36.85 9.43 -2.88 26.70 -3.68 34.69 -1.68 16.39 4.08 27.42 14.15 33.74 30.70 1.36 3.60 2.80 6.56 3.04 6.56 1.12 0 4 -26.14 4 -36.37 0 -23.58 -8.63 -44.93 -23.74 -58.76 -9.35 -8.55 -18.55 -12.15 -31.02 -12.15 -17.03 -0.08 -36.21 7.67 -53.72 21.82 -9.91 7.91 -10.63 7.59 -8.23 -3.44 4.32 -20.23 15.11 -31.34 38.13 -39.33 19.43 -6.72 38.21 -7.11 54.28 -1.20 17.03 6.32 32.30 21.74 40.29 40.85 5.52 13.19 9.99 34.14 12.07 56.04 1.20 13.11 0.48 43.49 -1.28 54.92 -4.16 26.94 -12.31 52.36 -24.54 76.74 -7.99 15.83 -13.91 24.46 -23.82 34.45 -15.99 16.23 -35.09 26.22 -54.76 28.62 -8.79 1.04 -10.31 1.04 -18.31 -0.40z m29.18 -33.66 c7.67 -3.04 13.99 -7.19 21.42 -14.23 19.35 -18.39 33.66 -49.08 33.66 -72.11 0 -13.03 -3.68 -22.78 -11.91 -31.66 -3.36 -3.60 -5.92 -5.44 -11.59 -8.15 -9.35 -4.48 -14.23 -5.60 -24.06 -5.52 -9.11 0 -15.43 1.68 -24.78 6.56 -6.56 3.52 -15.51 12.07 -19.51 18.87 -10.63 17.83 -16.23 61.95 -10.55 81.86 4 13.75 10.87 22.22 21.10 25.90 6.48 2.32 18.23 1.60 26.22 -1.52z"/>
  <path d="M824.84 543.84 l-5.44 -0.32 0 -14.71 0 -14.71 47.01 -0.32 c50.12 -0.24 50.60 -0.32 55.40 -4.32 3.44 -2.96 4.72 -6.40 4.72 -12.87 0 -7.27 -2.24 -11.75 -7.19 -14.55 l-3.60 -2 -29.58 -0.48 c-26.54 -0.48 -30.30 -0.72 -36.29 -2.24 -21.58 -5.52 -32.06 -19.43 -32.06 -42.85 0 -19.19 7.59 -33.50 21.18 -39.97 10.47 -5.04 12.63 -5.20 64.75 -5.20 l46.77 0 0 14.79 0 14.71 -44.93 0.24 c-41.33 0.24 -45.25 0.32 -48.20 1.68 -7.03 3.20 -10.55 9.67 -9.51 17.83 0.72 6.16 3.20 9.91 7.91 12.31 l4 2 30.78 0.48 c28.46 0.48 31.26 0.64 36.61 2.24 14.95 4.40 23.74 12.15 27.50 24.38 2.40 7.51 2.56 25.18 0.32 33.18 -5.04 18.23 -18.79 28.22 -41.73 30.46 -7.91 0.72 -75.15 0.88 -88.42 0.24z"/>
  <path d="M384.52 474.22 c0 -77.94 -0.16 -75.15 5.52 -80.34 1.76 -1.60 4.56 -3.20 6.24 -3.68 4.08 -1.20 173.15 -1.20 182.27 -0.08 9.99 1.28 18.31 3.68 26.54 7.67 13.67 6.72 23.90 19.11 28.78 35.01 2.72 8.79 3.28 20.47 3.28 67.07 l0 43.73 -15.59 0 -15.59 0 0 -47.01 c0 -39.65 -0.16 -47.73 -1.20 -51.72 -3.52 -13.27 -11.83 -20.78 -26.94 -24.14 -4.64 -1.12 -10.47 -1.36 -29.02 -1.36 l-23.18 -0.08 -0.24 62.19 -0.16 62.11 -15.19 0 -15.19 0 0 -61.88 c0 -55.64 -0.16 -61.88 -1.28 -62.35 -0.72 -0.24 -18.07 -0.48 -38.69 -0.48 -33.02 0 -37.57 0.16 -38.69 1.28 -1.12 1.12 -1.28 7.83 -1.28 62.35 l0 61.08 -15.19 0 -15.19 0 0 -69.39z"/>
  <path d="M703.49 543.13 c-7.75 -1.36 -14.23 -3.36 -20.70 -6.48 -6.24 -2.96 -8.55 -4.64 -13.99 -10.07 -13.51 -13.59 -18.55 -27.82 -19.43 -54.60 -0.96 -28.70 4.08 -48.52 15.59 -62.03 7.59 -8.87 14.79 -13.67 26.54 -17.67 l7.59 -2.48 27.90 -0.32 c30.30 -0.32 34.77 0.16 45.97 4.32 14.15 5.36 26.46 17.75 32.38 32.54 8.39 21.10 8.47 57.96 0.24 79.78 -6.56 17.27 -21.10 30.06 -40.13 35.25 -5.92 1.60 -8.39 1.76 -33.18 1.92 -14.71 0.08 -27.66 0 -28.78 -0.16z m51.88 -31.10 c13.51 -3.52 20.07 -10.71 23.82 -25.90 1.92 -7.59 1.92 -31.82 0 -39.65 -4.08 -16.71 -12.47 -24.46 -28.86 -26.70 -9.67 -1.36 -35.33 -1.12 -42.61 0.40 -14.63 3.04 -21.66 9.99 -25.98 25.66 -1.44 5.20 -1.68 8.47 -1.76 20.23 0 12.07 0.24 14.87 1.76 20.70 2.24 8.23 4.16 11.99 8.39 16.63 4 4.32 8.39 7.03 14.15 8.55 6.24 1.68 44.93 1.76 51.08 0.08z"/>
 </g>
 <g fill="#1f3fa6">
  <path d="M373.97 377.09 l-4.56 -4.16 6.08 -7.59 c3.28 -4.16 6.48 -7.67 6.95 -7.83 0.48 -0.08 2.96 1.52 5.52 3.52 l4.56 3.68 -4.16 5.28 c-7.59 9.75 -8.87 11.35 -9.35 11.35 -0.24 -0.08 -2.56 -1.92 -5.04 -4.24z"/>
  <path d="M397.71 348.39 c-1.76 -1.28 -3.84 -2.88 -4.64 -3.44 -1.44 -0.96 -1.20 -1.52 3.28 -8.15 7.19 -10.63 6.88 -10.47 12.71 -6.48 l4.88 3.36 -5.68 8.39 c-3.20 4.64 -6.08 8.47 -6.56 8.55 -0.40 0.08 -2.24 -0.88 -4 -2.24z"/>
  <path d="M418.10 316.89 c-2.40 -1.60 -4.88 -3.12 -5.44 -3.44 -0.88 -0.48 -0.16 -2.24 2.96 -7.75 2.16 -3.92 4.56 -7.91 5.28 -8.87 l1.28 -1.84 5.60 2.80 5.60 2.88 -2.64 4.56 c-1.36 2.48 -3.84 6.80 -5.44 9.51 l-2.80 4.96 -4.40 -2.80z"/>
  <path d="M379 289.63 c-8.87 -0.32 -9.03 -0.32 -8.55 -2.08 0.24 -0.96 0.48 -3.84 0.48 -6.32 l0 -4.64 9.43 0 c5.12 0 9.83 0.32 10.47 0.72 0.88 0.56 0.96 2 0.48 6.80 -0.40 5.04 -0.80 6.08 -1.84 5.92 -0.80 -0.08 -5.44 -0.32 -10.47 -0.40z"/>
  <path d="M407.22 288.91 c0.24 -0.72 0.48 -3.52 0.48 -6.32 l0 -5.04 10.23 0.16 10.15 0.16 0.24 6.16 0.24 6.16 -10.95 0 c-9.59 0 -10.79 -0.16 -10.39 -1.28z"/>
  <path d="M444.48 285.39 c0 -5.28 -1.20 -6.32 -2.64 -2.40 -0.48 1.36 -1.20 2.40 -1.52 2.40 -0.56 0 -10.15 -4.56 -10.87 -5.20 -0.48 -0.40 7.67 -18.31 8.47 -18.63 0.40 -0.08 3.20 0.88 6.16 2.16 l5.28 2.40 -1.28 2.56 c-0.72 1.36 -1.84 3.92 -2.40 5.60 l-1.12 3.04 10.15 0.24 10.15 0.24 0.24 6.24 0.24 6.16 -10.47 0 -10.39 0 0 -4.80z"/>
  <path d="M481.09 284.83 c-0.56 -7.75 -0.08 -8.15 10.95 -8.31 l8.79 -0.16 0.48 6.32 c0.24 3.52 0.48 6.40 0.40 6.40 -0.08 0.08 -4.64 0.32 -10.15 0.64 l-10.15 0.48 -0.32 -5.36z"/>
  <path d="M349.51 288.03 c-1.76 -0.32 -1.84 -0.64 -1.36 -3.28 0.32 -1.60 0.88 -3.20 1.36 -3.44 1.20 -0.80 -0.08 -1.28 -5.12 -1.84 -4.64 -0.56 -4.64 -0.56 -4.64 1.52 0 1.60 0.48 2.16 2.40 2.56 1.84 0.32 2.40 0.88 2.40 2.40 0 1.84 -0.08 1.84 -5.36 1.36 -3.04 -0.32 -5.44 -0.56 -5.44 -0.64 -0.08 0 0.16 -2.80 0.40 -6.08 l0.40 -6 9.59 0.32 c5.28 0.08 9.91 0.48 10.23 0.88 0.32 0.32 0.56 3.20 0.40 6.48 -0.24 6.40 -0.56 6.72 -5.28 5.76z"/>
  <path d="M517.70 286.11 c-0.72 -3.68 -0.56 -9.35 0.24 -9.83 0.40 -0.32 5.12 -0.72 10.39 -1.04 l9.67 -0.48 0 5.28 c0 2.88 0.24 5.76 0.48 6.48 0.40 0.96 0 1.28 -1.52 1.28 -1.68 0 -2 -0.48 -2.48 -3.12 -0.56 -3.68 -1.36 -4.08 -8.15 -4.08 l-5.12 0 0 4 c0 3.36 -0.24 4 -1.52 4 -1.04 0 -1.60 -0.80 -2 -2.48z"/>
  <path d="M554.48 280.76 c-0.32 -3.28 -0.24 -6.24 0.08 -6.64 0.32 -0.32 5.04 -0.88 10.47 -1.12 l9.75 -0.64 0 2.80 c0 1.60 0.24 4.48 0.48 6.48 l0.48 3.60 -7.03 0.48 c-3.92 0.32 -8.63 0.64 -10.39 0.80 l-3.28 0.24 -0.56 -6z"/>
  <path d="M312.57 285.39 c-2 -0.32 -6.40 -0.88 -9.83 -1.20 l-6.24 -0.56 0.48 -4.48 c0.96 -9.03 0.40 -8.47 7.43 -7.83 3.36 0.32 7.91 0.72 10.07 1.04 l3.92 0.48 -0.48 6 c-0.24 3.28 -0.72 6.24 -1.12 6.56 -0.32 0.24 -2.24 0.24 -4.24 0z"/>
  <path d="M590.77 277.48 l0 -6.24 10.07 -0.56 c5.52 -0.32 10.23 -0.48 10.31 -0.32 0.16 0.16 0.40 2.96 0.56 6.24 l0.24 6 -4.80 0.48 c-2.64 0.32 -7.43 0.56 -10.55 0.64 l-5.84 0.08 0 -6.32z"/>
  <path d="M267.81 279.96 c-4.16 -0.64 -7.67 -1.20 -7.75 -1.28 -0.56 -0.48 1.68 -10.63 2.56 -11.59 0.88 -0.88 2.48 -0.88 10.39 0.32 l9.27 1.44 -0.48 4.08 c-1.04 8.31 -1.04 8.47 -3.84 8.39 -1.44 -0.08 -6 -0.64 -10.15 -1.36z"/>
  <path d="M627.94 280.60 c-0.08 -0.24 -0.32 -3.12 -0.48 -6.40 l-0.32 -6 9.99 -0.96 c5.52 -0.48 10.07 -0.80 10.15 -0.72 0.16 0.08 0.48 2.96 0.88 6.32 l0.64 6.08 -3.20 0.48 c-6.16 0.88 -17.35 1.68 -17.67 1.20z"/>
  <path d="M664.16 272.68 c-0.32 -7.03 0.72 -7.91 11.27 -9.03 4.48 -0.48 8.31 -0.72 8.47 -0.56 0.16 0.24 0.56 3.12 0.88 6.40 l0.48 6.08 -4.24 0.48 c-2.40 0.24 -7.03 0.72 -10.47 1.04 l-6.08 0.56 -0.32 -4.96z"/>
  <path d="M233.67 273.88 c-4.96 -0.96 -9.19 -2 -9.51 -2.24 -0.40 -0.48 1.68 -11.67 2.24 -12.31 0.32 -0.32 19.19 3.52 19.67 4.08 0.64 0.64 -1.84 12.39 -2.56 12.31 -0.48 0 -4.96 -0.88 -9.83 -1.84z"/>
  <path d="M700.77 270.04 c-0.24 -2.32 -0.48 -5.36 -0.48 -6.72 l0 -2.48 6.64 -0.48 c3.60 -0.32 8.23 -0.56 10.23 -0.56 l3.68 0 0.48 5.84 c0.24 3.12 0.24 5.92 0.16 6.08 -0.16 0.08 -4.72 0.72 -10.15 1.36 -5.44 0.56 -9.83 1.12 -9.91 1.12 -0.08 0 -0.32 -1.92 -0.64 -4.16z"/>
  <path d="M1043.80 272.12 c-1.68 -0.56 -5.92 -1.68 -9.43 -2.40 -5.76 -1.28 -6.40 -1.60 -6 -3.04 0.16 -0.96 0.80 -3.76 1.28 -6.32 l0.96 -4.72 3.52 0.56 c3.52 0.48 16.15 3.92 16.71 4.56 0.40 0.40 -2.80 11.19 -3.52 11.91 -0.24 0.32 -1.84 0.08 -3.52 -0.56z"/>
  <path d="M1056.03 271.40 c0 -1.52 2.56 -6.16 4.80 -8.71 4.08 -4.64 8.23 -6.40 14.79 -6.48 4.72 0 6.24 0.32 9.43 2.24 4.48 2.64 4.96 4.56 1.20 4.56 -1.44 0 -3.36 -0.56 -4.16 -1.20 -2.72 -2.08 -8.95 -1.52 -13.75 1.28 -4.40 2.48 -7.51 5.68 -7.51 7.59 0 0.72 -0.88 1.12 -2.40 1.12 -1.28 0 -2.40 -0.16 -2.40 -0.40z"/>
  <path d="M737.54 269.32 c-0.16 -0.64 -0.56 -3.44 -0.80 -6.32 l-0.48 -5.28 10.07 -1.04 c5.52 -0.56 10.15 -0.88 10.39 -0.72 0.16 0.24 0.56 3.12 0.80 6.40 l0.56 6.08 -3.12 0.48 c-1.76 0.24 -6.24 0.64 -10.07 0.96 -5.60 0.40 -7.11 0.32 -7.35 -0.56z"/>
  <path d="M201.45 266.29 c-13.35 -3.68 -14.55 -4.16 -13.99 -5.52 0.24 -0.80 1.04 -3.44 1.76 -5.92 1.04 -3.60 1.68 -4.64 2.88 -4.64 1.44 0 17.35 4.64 18.07 5.28 0.48 0.40 -2.56 12.31 -3.12 12.23 -0.24 0 -2.72 -0.64 -5.60 -1.44z"/>
  <path d="M774.32 266.13 c-0.72 -2.16 -1.12 -11.11 -0.56 -11.43 0.64 -0.40 19.43 -2.16 19.75 -1.84 0.08 0.08 0.48 2.96 0.88 6.32 l0.72 6.16 -2 0.40 c-1.12 0.24 -5.76 0.64 -10.23 0.96 -6.64 0.40 -8.23 0.32 -8.55 -0.56z"/>
  <path d="M1001.27 264.13 c-3.92 -0.56 -7.51 -1.04 -7.83 -1.04 -0.80 -0.08 0.16 -11.35 1.04 -12.31 0.32 -0.40 4.56 -0.08 9.51 0.56 4.88 0.72 9.27 1.28 9.75 1.28 0.80 0 0.40 7.83 -0.56 11.43 -0.48 1.60 -1.52 1.60 -11.91 0.08z"/>
  <path d="M810.21 259.01 c-0.32 -3.28 -0.24 -6.08 0.16 -6.48 0.40 -0.40 5.12 -0.96 10.47 -1.28 l9.75 -0.48 0 3.60 c0 2 0.24 4.72 0.48 6.08 0.48 2.32 0.32 2.48 -2.16 2.88 -1.52 0.24 -6.16 0.64 -10.39 0.88 l-7.75 0.48 -0.56 -5.68z"/>
  <path d="M847.06 259.73 c-0.24 -1.36 -0.48 -4.24 -0.48 -6.40 0 -3.84 0.08 -3.92 2.48 -3.92 2.48 0 2.48 0.08 2 3.04 -0.24 1.60 -0.48 4.48 -0.48 6.40 0 2.72 -0.24 3.36 -1.52 3.36 -1.04 0 -1.60 -0.80 -2 -2.48z"/>
  <path d="M966.10 261.41 c-5.28 -0.24 -9.51 -0.64 -9.35 -0.96 0.08 -0.40 0.16 -3.28 0.16 -6.48 l0 -5.84 9.83 0.32 c5.36 0.16 10.07 0.56 10.39 0.96 0.72 0.64 -0.16 12.87 -0.96 12.63 -0.24 -0.08 -4.80 -0.32 -10.07 -0.64z"/>
  <path d="M863.85 259.65 c-0.24 -1.04 -0.56 -2.56 -0.64 -3.44 -0.16 -0.88 -1.28 -2.08 -2.48 -2.64 -3.04 -1.44 -2.88 -3.84 0.32 -4.48 6.08 -1.20 6.16 -1.12 6.48 5.92 0.24 6.16 0.16 6.40 -1.52 6.40 -1.20 0 -1.92 -0.56 -2.16 -1.76z"/>
  <path d="M883.84 258.13 c-0.24 -1.36 -0.48 -4.24 -0.48 -6.40 l0 -3.92 10.39 0 10.39 0 0 6.40 0 6.40 -9.91 0 -9.83 0 -0.56 -2.48z"/>
  <path d="M920.13 254.22 l0 -6.40 10.39 0 10.39 0 0 6.40 0 6.40 -10.39 0 -10.39 0 0 -6.40z"/>
  <path d="M168.28 255.41 c-1.28 -0.64 -5.60 -2.56 -9.43 -4.32 l-7.03 -3.20 2.88 -5.68 c1.52 -3.04 3.12 -5.60 3.52 -5.60 0.32 0 4.08 1.60 8.23 3.60 4.24 2 7.99 3.60 8.55 3.60 0.48 0 0.88 0.32 0.88 0.72 0 1.44 -4.16 12.07 -4.72 11.99 -0.24 0 -1.52 -0.56 -2.88 -1.12z"/>
  <path d="M448.47 248.14 c-3.04 -1.04 -5.12 -2.24 -5.12 -2.88 0.16 -1.44 5.04 -18.39 5.44 -18.79 0.08 -0.16 2.80 0.32 6 1.12 4.80 1.12 5.68 1.60 5.60 2.96 -0.08 2.72 -5.20 19.19 -6 19.27 -0.40 0.08 -3.04 -0.64 -5.92 -1.68z"/>
  <path d="M128.71 235.03 c-4.64 -2.56 -8.47 -5.12 -8.63 -5.52 -0.40 -1.12 5.36 -10.47 6.32 -10.47 0.72 0 7.19 3.52 14.87 8.15 l2.64 1.52 -2.80 5.60 c-1.60 3.04 -3.12 5.52 -3.44 5.52 -0.32 -0.08 -4.32 -2.16 -8.95 -4.80z"/>
  <path d="M102.73 218.72 c-1.28 -0.96 -5.20 -3.84 -8.63 -6.40 l-6.24 -4.56 2.64 -3.36 c3.20 -4.08 4.64 -5.28 6.40 -5.36 1.44 0 14.87 9.51 14.95 10.63 0.08 0.80 -5.44 10.07 -6.24 10.47 -0.24 0.16 -1.52 -0.48 -2.88 -1.44z"/>
  <path d="M457.67 211.45 c-5.28 -0.80 -5.60 -0.96 -5.44 -2.80 0.72 -10.95 1.36 -15.75 2.48 -16.95 0.88 -1.12 2.48 -1.44 6.32 -1.44 l5.04 0 0 3.44 c0 4.96 -1.60 17.67 -2.24 18.15 -0.32 0.32 -3.04 0.08 -6.16 -0.40z"/>
  <path d="M67.79 189.38 c-3.92 -4 -7.03 -7.67 -7.03 -8.23 0 -0.56 2 -2.72 4.48 -4.80 l4.48 -3.92 7.11 7.43 7.19 7.35 -3.92 4.48 c-2.08 2.48 -4.16 4.56 -4.64 4.72 -0.40 0.08 -3.84 -3.04 -7.67 -7.03z"/>
  <path d="M453.99 173.87 c0 0 -0.80 -4.56 -1.76 -10.15 l-1.76 -10.15 6.16 -1.52 6.16 -1.52 0.40 2.08 c0.96 4.32 2.88 17.35 2.88 19.03 0 1.60 -0.48 1.76 -6 2 -3.28 0.16 -6 0.24 -6.08 0.24z"/>
  <path d="M47.65 163.48 c-2.88 -4.80 -7.67 -14.95 -7.67 -16.07 0 -0.48 2.56 -1.92 5.76 -3.12 4.64 -1.84 5.84 -2.08 6.16 -1.12 0.16 0.64 2.16 4.72 4.40 9.03 l4 7.91 -2.24 1.76 c-1.28 1.04 -3.60 2.56 -5.28 3.52 l-3.04 1.68 -2.08 -3.60z"/>
  <path d="M444.24 136.54 c-0.64 -1.44 -2.64 -5.12 -4.56 -8.23 -1.84 -3.04 -3.52 -5.84 -3.68 -6.16 -0.16 -0.24 1.92 -2.16 4.64 -4.16 3.84 -2.80 5.12 -3.44 6 -2.72 1.04 0.80 9.27 14.87 10.23 17.51 0.40 1.20 -1.28 2.16 -10.95 6.16 -0.32 0.16 -1.04 -0.96 -1.68 -2.40z"/>
  <path d="M35.41 127.43 c-0.56 -1.44 0.24 -15.27 1.04 -19.27 0.40 -2.16 0.88 -2.64 2.64 -2.64 3.92 0.08 10.07 2.08 9.83 3.28 -0.16 0.64 -0.48 4.96 -0.72 9.75 -0.56 9.67 0.16 8.87 -8.07 9.67 -3.36 0.32 -4.32 0.16 -4.72 -0.80z"/>
  <path d="M418.74 102.17 l-6.95 -7.27 1.44 -1.84 c5.12 -6.48 6.56 -7.67 7.91 -6.64 2.96 2.24 13.75 13.11 13.75 13.91 0 0.88 -8.15 9.27 -8.79 9.11 -0.24 -0.08 -3.52 -3.36 -7.35 -7.27z"/>
  <path d="M49.16 90.73 c-2.64 -1.52 -4.88 -3.04 -5.04 -3.44 -0.40 -1.28 11.03 -17.75 12.31 -17.75 0.72 0 3.12 1.68 5.52 3.68 l4.24 3.68 -2.64 3.52 c-1.52 1.92 -4 5.68 -5.68 8.31 -1.60 2.64 -3.20 4.72 -3.44 4.72 -0.24 -0.08 -2.64 -1.28 -5.28 -2.72z"/>
  <path d="M390.52 78.98 c-4.40 -3.04 -7.91 -5.92 -7.83 -6.24 0.16 -0.64 5.52 -9.35 6.32 -10.31 0.08 -0.08 4.24 2.56 9.11 5.92 l8.87 6.16 -1.92 2.48 c-1.04 1.44 -2.72 3.76 -3.76 5.20 -1.04 1.36 -2.08 2.56 -2.32 2.48 -0.24 0 -4.08 -2.56 -8.47 -5.68z"/>
  <path d="M72.43 61.24 c-2 -2.32 -3.68 -4.64 -3.68 -5.12 0 -1.04 16.07 -13.75 16.87 -13.27 0.32 0.16 2 2.56 3.76 5.44 l3.20 5.12 -4.96 3.60 c-2.64 2 -5.92 4.72 -7.27 6.08 -1.28 1.36 -2.80 2.48 -3.36 2.48 -0.48 0 -2.56 -1.92 -4.56 -4.32z"/>
  <path d="M359.58 60.84 c-4.80 -2.48 -8.63 -4.80 -8.63 -5.28 0 -1.60 4.72 -10.79 5.60 -10.79 1.04 0 11.27 5.12 15.27 7.67 l2.96 1.84 -2.96 5.60 c-1.60 3.12 -3.04 5.60 -3.28 5.52 -0.24 0 -4.24 -2.08 -8.95 -4.56z"/>
  <path d="M326.56 46.21 c-4.80 -1.84 -8.95 -3.44 -9.11 -3.60 -0.56 -0.40 3.36 -12.23 4.08 -12.23 1.04 0 17.75 6.48 18.47 7.11 0.64 0.64 -3.44 12.15 -4.24 11.99 -0.24 0 -4.32 -1.52 -9.19 -3.28z"/>
  <path d="M102.89 39.09 l-2.80 -5.68 9.19 -4.40 c5.04 -2.40 9.59 -4.16 10.15 -4 0.48 0.24 1.76 2.80 2.80 5.76 1.84 5.28 1.92 5.44 0.48 6.48 -0.80 0.64 -1.84 1.12 -2.24 1.12 -0.40 0 -3.76 1.44 -7.43 3.20 -3.76 1.76 -6.88 3.20 -7.03 3.20 -0.16 0 -1.52 -2.56 -3.12 -5.68z"/>
  <path d="M291.79 34.93 c-5.04 -1.36 -9.35 -2.56 -9.51 -2.64 -0.40 -0.32 1.68 -10.47 2.40 -11.67 0.48 -0.80 2.72 -0.48 9.91 1.36 5.12 1.28 9.59 2.56 9.99 2.80 0.72 0.40 -2.32 12.87 -3.12 12.71 -0.24 -0.08 -4.64 -1.20 -9.67 -2.56z"/>
  <path d="M138.70 30.22 c-0.56 -1.76 -2.80 -9.67 -2.80 -9.99 0 -1.28 19.51 -6.72 20.31 -5.68 0.56 0.64 2.56 12.63 2.24 13.03 -0.24 0.24 -1.52 0.40 -2.88 0.40 -1.36 0 -5.44 0.72 -9.11 1.60 -7.83 1.92 -7.35 1.84 -7.75 0.64z"/>
  <path d="M262.21 28.30 c-0.64 -0.24 -4.40 -0.80 -8.39 -1.36 -6.32 -0.96 -7.19 -1.28 -7.11 -2.64 0.64 -7.67 1.28 -10.63 2.56 -10.87 1.52 -0.32 18.47 2.24 19.11 2.80 0.16 0.24 -0.08 3.12 -0.64 6.48 -1.04 6.32 -1.36 6.64 -5.52 5.60z"/>
  <path d="M173.95 22.22 c-1.20 -7.83 -1.20 -9.27 -0.24 -10.07 0.48 -0.40 5.36 -1.04 10.79 -1.36 l9.75 -0.64 0 6.40 0 6.40 -8.15 0.56 c-4.56 0.32 -9.03 0.80 -9.99 1.04 -1.44 0.32 -1.84 0 -2.16 -2.32z"/>
  <path d="M217.60 23.42 l-7.43 -0.32 0.24 -6.16 0.24 -6.16 9.59 -0.24 c5.28 -0.08 10.07 0.16 10.63 0.48 0.72 0.48 0.80 2.32 0.48 6.80 l-0.56 6.16 -2.88 -0.16 c-1.60 -0.08 -6.24 -0.32 -10.31 -0.40z"/>
 </g>
 <g fill="#2748ab">
  <path d="M1071.38 295.70 c-9.43 -1.84 -15.27 -9.51 -15.35 -20.15 0 -4.08 0.32 -5.52 1.20 -5.84 0.64 -0.32 1.20 -0.96 1.20 -1.52 0 -1.84 3.20 -5.12 7.51 -7.51 3.76 -2.16 5.04 -2.48 10.63 -2.48 4.16 0 6.88 0.40 7.83 1.12 0.88 0.64 1.92 0.96 2.48 0.72 1.52 -0.56 5.92 5.44 7.27 10.07 2.32 8.15 0.08 15.67 -6.56 21.50 -2.56 2.24 -4.72 3.36 -7.03 3.76 -1.84 0.32 -3.92 0.64 -4.56 0.80 -0.64 0.08 -2.72 -0.08 -4.64 -0.48z"/>
  <path d="M422.49 288.03 c-1.12 -1.12 -1.20 -1.44 -0.32 -1.68 0.64 -0.16 1.60 -0.88 2.08 -1.60 1.28 -1.52 1.84 -1.04 2.08 1.92 0.16 2.72 -1.76 3.44 -3.84 1.36z"/>
  <path d="M518.82 283.47 c0 -5.76 0 -5.76 6.40 -5.60 10.87 0.16 11.03 0.24 11.91 5.68 l0.64 4 -6.48 0.56 c-3.60 0.24 -7.83 0.48 -9.43 0.48 l-3.04 0 0 -5.12z"/>
  <path d="M342.15 287.15 c0 -0.40 -1.04 -0.96 -2.24 -1.20 -2 -0.40 -5.20 -4.56 -3.52 -4.56 0.32 0 0.48 -1.28 0.32 -2.80 -0.32 -2.80 -0.32 -2.80 2.32 -2.40 1.52 0.16 4.80 0.56 7.35 0.80 2.56 0.16 5.04 0.56 5.44 0.80 0.40 0.32 0.72 2.16 0.72 4.24 0 2.56 -0.24 3.36 -0.72 2.64 -0.56 -0.88 -0.80 -0.72 -1.04 0.80 -0.24 1.68 -0.72 1.92 -4.40 2.16 -2.32 0.16 -4.24 -0.08 -4.24 -0.48z"/>
  <path d="M415.86 284.83 c-0.08 -1.28 -0.56 -2.32 -0.96 -2.48 -0.48 -0.16 -0.80 -0.80 -0.80 -1.44 0 -1.28 2.96 -1.52 4.72 -0.40 0.88 0.56 0.80 0.88 -0.40 1.52 -1.20 0.64 -1.28 1.04 -0.56 1.84 0.72 0.72 0.72 1.20 -0.16 2 -1.52 1.52 -1.60 1.44 -1.84 -1.04z"/>
  <path d="M776.08 260.53 c-0.80 -1.36 -1.44 -2.96 -1.44 -3.60 0 -0.64 -0.40 -1.12 -0.96 -1.12 -0.56 0 -0.64 -0.24 -0.16 -0.72 0.40 -0.32 2.32 -0.48 4.32 -0.24 2.96 0.32 3.28 0.48 1.60 0.96 -1.76 0.40 -2 0.88 -1.92 3.84 0.08 1.84 0.08 3.36 0 3.36 0 0 -0.72 -1.12 -1.44 -2.48z"/>
  <path d="M848.26 255.81 l0.16 -6.40 6.08 0.08 c7.59 0.08 10.63 1.60 11.35 5.60 0.24 1.52 0.80 3.44 1.36 4.40 0.88 1.68 0.72 1.68 -6.40 2.24 -4 0.24 -8.47 0.48 -9.99 0.48 l-2.72 0 0.16 -6.40z"/>
  <path d="M972.09 260.53 c-2.40 -0.40 -4.48 -1.12 -4.64 -1.52 -0.16 -0.48 -0.88 -0.80 -1.60 -0.88 -0.88 0 -0.96 -0.16 -0.32 -0.48 0.48 -0.16 0.80 -0.72 0.48 -1.12 -0.24 -0.40 -0.08 -0.64 0.40 -0.56 0.40 0.16 1.36 -0.48 2 -1.36 0.80 -1.04 1.20 -1.20 1.28 -0.48 0 1.52 2.40 -0.48 2.40 -2.08 0 -0.64 0.40 -0.88 0.80 -0.64 0.48 0.24 0.80 0.08 0.80 -0.32 0 -0.48 0.64 -0.88 1.44 -0.88 1.20 0 1.44 0.80 1.44 5.60 0.08 3.12 0.08 5.52 0 5.52 -0.08 -0.08 -2.08 -0.40 -4.48 -0.80z"/>
  <path d="M40.21 126.55 c-0.32 -0.80 -0.96 -1.76 -1.52 -2.08 -1.68 -0.96 -1.20 -7.67 0.56 -8.63 0.96 -0.48 1.52 -0.48 1.52 0 0 0.80 3.12 2.16 4.24 1.84 0.32 -0.08 0.56 0.88 0.56 2.24 0 1.36 -0.40 2.40 -0.96 2.40 -0.72 0 -0.72 0.24 0.08 0.72 0.96 0.64 1.04 0.96 0.08 2.08 -0.56 0.72 -1.52 1.12 -2.08 0.88 -0.56 -0.24 -1.28 -0.08 -1.52 0.32 -0.24 0.40 0.24 0.88 0.96 1.04 1.36 0.32 1.36 0.40 0 0.48 -0.80 0 -1.68 -0.56 -1.92 -1.28z"/>
 </g>
</svg>