<?xml version="1.0" encoding="UTF-8"?>
<svg width="600" height="320" version="1.1" xmlns="http://www.w3.org/2000/svg">
 <path d="m243.33 194.7-5.3026 0.54362-0.18113 40.585zm-116.17 12.023-18.926 1.954-67.004 75.734z" fill="#0061aa"/>
 <path d="m201.92 169.26-11.1 10.155c-1.2324 0.0511-2.466 0.10751-3.6982 0.16731-0.82133 2e-3 -1.5938 0.20746-2.2709 0.56989l-13.676-9.6308 11.715 11.569c-0.38018 0.69012-0.59604 1.4815-0.59604 2.3249 1e-5 0.73998 0.166 1.4419 0.46358 2.0687l-10.384 13.261 12.243-11.201c0.73013 0.44392 1.5875 0.69886 2.5044 0.69886 0.61371 0 1.2218-0.11714 1.7916-0.34508 0.13444-0.0455 0.26798-0.0909 0.40258-0.13593l13.803 9.7214-10.814-10.678c1.3283-0.4066 2.6635-0.78945 4.005-1.1502 15.018-4.0391 30.96-5.1533 46.188-1.999 5.6291 1.166 11.137 2.906 16.438 5.1291 2.5314 1.0615 5.057 2.2605 7.0967 4.0973 1.0199 0.91845 1.9073 1.993 2.5445 3.2085 0.63739 1.2156 1.0186 2.575 1.023 3.9475 8e-3 2.4128-1.1466 4.721-2.7623 6.5129-1.6157 1.7919-3.6676 3.1288-5.7495 4.3483-12.336 7.2261-26.405 10.95-40.463 13.552-19.006 3.5181-38.322 5.1306-57.635 5.9203-17.851 0.72989-35.738 0.76192-53.572-0.29279-8.3247-0.49232-16.782-1.2558-24.518-4.371-0.81626-0.32869-1.6302-0.68774-2.3336-1.2165-0.70335-0.5287-1.2956-1.2458-1.5267-2.0948-0.13917-0.51261-0.14215-1.0576-0.04008-1.579 0.1019-0.52136 0.30646-1.0196 0.57513-1.4779 0.53734-0.91659 1.3154-1.6651 2.1071-2.3737 6.041-5.4073 13.378-9.1615 20.865-12.273 6.5478-2.7211 13.279-4.9969 20.135-6.8074l-0.75812-2.8634c-6.9874 1.8453-13.84 4.177-20.509 6.9486-7.632 3.1717-15.277 7.041-21.698 12.789-0.83885 0.75092-1.8778 1.6866-2.6944 3.0795-0.41338 0.70516-0.74565 1.5098-0.92194 2.412-0.17709 0.90646-0.18879 1.8987 0.08714 2.914 0.45722 1.681 1.5156 2.8672 2.6072 3.6878 1.0569 0.79443 2.1143 1.2429 3.0011 1.5999 8.2743 3.3321 17.065 4.0825 25.45 4.5784 17.954 1.0618 35.933 1.0312 53.861 0.29801 19.397-0.7931 38.854-2.4187 58.053-5.9726 14.207-2.6298 28.622-6.4083 41.421-13.906 2.1637-1.2675 4.4917-2.7513 6.4519-4.9252 1.989-2.2058 3.5343-5.1274 3.5222-8.4927-8e-3 -1.9148-0.5306-3.7227-1.3629-5.3103-0.82699-1.5774-1.9413-2.9224-3.1841-4.0416-2.467-2.2217-5.3172-3.5284-7.9332-4.6254-1.5765-0.69112-3.178-1.3247-4.798-1.9049-3.9687-1.4213-8.0532-2.525-12.182-3.3828-13.278-2.7586-26.946-2.9829-40.505-2.7118-2.8425 0.0567-5.6842 0.13461-8.5258 0.23528zm-14.805 10.316h9e-3z" fill="#bd9b04"/>
 <path d="m107.84 287.67 2.7542-7.837h6.0313l-1.1267 7.837h9.2385l4.1901-45.535h-12.015l-18.12 45.535zm10.187-16.589h-4.4038l7.7718-22.882zm10.237 16.589h8.329l5.5948-22.596c0.62321-2.517 1.3456-5.4344 3.4039-5.4344 1.7232 0 1.1425 2.3454 0.44848 5.1484l-5.6656 22.882h8.3768l5.5948-22.596c0.56656-2.2882 1.3739-5.5488 3.3843-5.5488 1.819 0 1.1391 2.7458 0.65754 4.6907l-5.8072 23.454h8.4247l7.0678-28.545c0.33993-1.3729 2.0679-8.3518-4.0113-8.3518-4.4038 0-7.0673 3.6039-8.3499 6.4641 0.94557-3.4322 0.49956-6.4641-3.8085-6.4641-4.0688 0-6.9857 3.6611-7.9264 5.7204l1.1898-4.8052h-7.9939zm63.191-25.799c1.7563-7.0933-0.45933-11.098-7.3044-11.098-6.893 0-11.348 4.4619-13.161 11.784l-3.6826 14.873c-1.8413 7.4366 0.73238 11.155 7.5296 11.155 10.531 0 12.242-9.0383 13.545-14.301h-8.0896l-1.0765 4.3475c-0.11331 0.45763-0.80735 3.2606-2.6742 3.2606-2.0583 0-1.3643-2.803-0.58526-5.9492l1.1473-4.6336h12.015zm-8.8457 2.8602h-4.1645c0.864-3.4894 1.7422-7.0361 3.9441-7.0361 2.1062 0 1.0844 3.5467 0.22041 7.0361zm14.805 23.854c9.9706-0.0572 12.095-8.6378 12.52-10.354 0.94899-3.8327 0.57576-6.5785-2.7746-10.64l-2.5043-3.0318c-1.5909-1.8877-1.797-3.375-1.4854-4.6335 0.0425-0.17161 0.49574-2.0022 2.2668-2.0022 1.7232 0 1.3091 2.0594 0.82067 4.8052h7.0366c0.97731-3.9471 2.9603-11.956-5.9431-11.956-9.5736 0-11.939 9.5531-12.137 10.354-1.0623 4.2903-0.61826 6.7501 1.8382 9.7819l2.1248 2.6314c2.6054 3.2034 2.7051 4.3475 2.3227 5.892-0.085 0.34323-0.58072 2.3454-2.2561 2.3454-2.0583 0-1.3022-2.8602-0.78014-5.5488h-7.228c-1.3881 5.606-3.0594 12.356 6.179 12.356zm25.799-0.91527h9.047l4.8299-19.507c3.4553-0.22882 4.5015 0.57204 3.6234 4.1187l-2.36 9.7247c-0.77902 3.1462-0.81758 4.4619-0.58848 5.6632h8.8076c-0.23303-2.3454 0.40973-4.748 1.1604-7.7798l1.8521-7.0933c0.48158-1.9449 1.6714-6.7501-1.9549-8.9239 4.3339-2.231 5.8783-6.9217 6.6857-10.182 1.8838-7.6082-0.58535-11.555-5.2764-11.555h-14.552zm15.832-27.401 2.507-10.125c2.6664 0.0573 4.8293-0.17161 3.6678 4.5191-1.5014 6.0636-2.4607 5.4916-6.1748 5.606zm38.169 1.6017c1.7563-7.0933-0.45933-11.098-7.3044-11.098-6.893 0-11.348 4.4619-13.161 11.784l-3.6826 14.873c-1.8413 7.4366 0.73237 11.155 7.5296 11.155 10.531 0 12.242-9.0383 13.545-14.301h-8.0896l-1.0765 4.3475c-0.11331 0.45763-0.80734 3.2606-2.6742 3.2606-2.0583 0-1.3643-2.803-0.58526-5.9492l1.1473-4.6336h12.015zm-8.8457 2.8602h-4.1645c0.864-3.4894 1.7422-7.0361 3.9441-7.0361 2.1062 0 1.0844 3.5467 0.22042 7.0361zm14.805 23.854c9.9706-0.0572 12.095-8.6378 12.52-10.354 0.94898-3.8327 0.57576-6.5785-2.7746-10.64l-2.5043-3.0318c-1.5909-1.8877-1.797-3.375-1.4854-4.6335 0.0425-0.17161 0.49574-2.0022 2.2668-2.0022 1.7232 0 1.3091 2.0594 0.82067 4.8052h7.0366c0.97732-3.9471 2.9603-11.956-5.9431-11.956-9.5735 0-11.939 9.5531-12.137 10.354-1.0623 4.2903-0.61826 6.7501 1.8382 9.7819l2.1248 2.6314c2.6054 3.2034 2.7051 4.3475 2.3227 5.892-0.085 0.34323-0.58072 2.3454-2.2561 2.3454-2.0583 0-1.3022-2.8602-0.78014-5.5488h-7.228c-1.3881 5.606-3.0594 12.356 6.1791 12.356zm39.867-26.714c1.7563-7.0933-0.45933-11.098-7.3044-11.098-6.893 0-11.348 4.4619-13.161 11.784l-3.6826 14.873c-1.8413 7.4366 0.73237 11.155 7.5296 11.155 10.531 0 12.242-9.0383 13.545-14.301h-8.0896l-1.0765 4.3475c-0.11331 0.45763-0.80735 3.2606-2.6742 3.2606-2.0583 0-1.3643-2.803-0.58526-5.9492l1.1473-4.6336h12.015zm-8.8457 2.8602h-4.1645c0.864-3.4894 1.7422-7.0361 3.9441-7.0361 2.1062 0 1.0844 3.5467 0.2204 7.0361zm19.93-1.4873c0.57198-2.1166 1.2674-5.892 3.7087-5.892 1.7232 0 1.1 2.517 1.015 2.8602-1.9971 8.0658-12.87 3.2606-16.439 17.676-1.0765 4.3475-2.0742 10.697 4.0865 10.754 2.9341-0.0572 4.9421-2.1738 6.298-3.2034l-0.5524 2.231h7.9939l6.303-25.456c1.0198-4.1187 2.8328-11.441-6.9322-11.441-8.0896 0-11.359 5.6632-12.534 10.411-0.16997 0.68645-0.3541 1.4301-0.41416 2.0594zm-2.5625 19.049c-1.0052 0-1.734-0.34322-1.04-3.1462 0 0 1.4251-5.9492 3.3252-7.4366l2.6639-2.0593-2.2237 8.9811s-0.97731 3.9471-2.7255 3.6611zm12.726 5.3772h8.5204l4.7166-19.049c1.4306-5.7776 4.6856-5.7776 6.7971-5.606l3.0311-12.242c-4.3804 1.2585-3.0332 0.45763-7.5254 6.8073l1.4589-5.892h-8.0896zm35.83-36.897c-10.196 0-12.405 8.9238-13.284 12.471l-3.0169 12.184c-0.93482 3.7755-3.162 13.157 6.8902 13.157 10.866 0 12.062-8.695 14.069-16.418h-8.2332l-1.1756 4.748c-0.65154 2.6314-1.1614 4.6907-2.8847 4.6907-1.6754 0-1.0805-2.4026-0.51393-4.6907l3.5693-14.415c0.5099-2.0594 1.1756-4.748 2.851-4.748 1.7232 0 1.0292 2.803 1.0292 2.803l-1.1614 4.6908h8.2332c2.1778-8.409 2.8655-14.473-6.373-14.473zm4.6823 36.897h8.5683l6.3454-25.627c0.38243-1.5445 1.2704-2.231 2.515-2.231 1.3403 0 0.75079 2.5742 0.63748 3.0318l-6.1472 24.827h8.5204l6.6996-27.058c0.80734-3.2606 2.4362-9.8391-3.4515-9.8391-3.1114 0-4.1039 0.91526-7.1449 4.6907l3.3002-13.329h-8.5683zm59.797-46.393c-11.632 0-14.238 10.526-15.088 13.958l-4.9432 19.964c-0.58073 2.3454-3.3002 13.329 7.9966 13.329 11.584 0 14.02-9.8391 16.329-19.163h-9.1427l-1.4589 5.892c-0.3541 1.4301-1.1898 4.8052-3.4396 4.8052-2.3455 0-1.5098-3.375-1.4107-3.7755l5.5948-22.596c0.33993-1.3729 1.0198-4.1187 3.4132-4.1187 2.2019 0 1.522 2.7458 1.4229 3.1462l-1.5439 6.2353h9.1427c2.3654-9.5531 4.3767-17.676-6.8723-17.676zm30.212 20.594c1.7563-7.0933-0.45933-11.098-7.3044-11.098-6.893 0-11.348 4.4619-13.161 11.784l-3.6826 14.873c-1.8413 7.4366 0.73237 11.155 7.5296 11.155 10.531 0 12.242-9.0383 13.545-14.301h-8.0896l-1.0765 4.3475c-0.11331 0.45763-0.80734 3.2606-2.6742 3.2606-2.0583 0-1.3643-2.803-0.58526-5.9492l1.1473-4.6336h12.015zm-8.8457 2.8602h-4.1645c0.864-3.4894 1.7422-7.0361 3.9441-7.0361 2.1062 0 1.0844 3.5467 0.22042 7.0361zm6.3193 22.939h8.4726l5.2265-21.108c0.84984-3.4322 1.728-6.9789 3.6427-6.9789 1.4839 0 0.94567 2.1738 0.53491 3.8327l-6.0055 24.255h8.6162l7.2094-29.117c0.29745-1.2013 1.9263-7.7798-4.1529-7.7798-4.4038 0-6.6418 3.4322-7.7066 5.606l1.1614-4.6908h-8.0896zm30.952-28.602h1.7232l-5.4106 21.852c-1.6714 6.7501 2.1796 7.4365 4.5251 7.4365 1.101 0 3.3986 0 4.4497-0.57204l1.6943-7.0361c-1.8244-0.17161-2.3118 0.0572-1.4195-3.5467l4.49-18.134h2.2019l1.8272-7.3793h-2.2019l1.8555-7.4938h-8.329l-1.8555 7.4938h-1.7232zm35 2.803c1.7563-7.0933-0.45933-11.098-7.3044-11.098-6.8929 0-11.348 4.4619-13.161 11.784l-3.6826 14.873c-1.8413 7.4366 0.73237 11.155 7.5296 11.155 10.531 0 12.242-9.0383 13.545-14.301h-8.0896l-1.0765 4.3475c-0.11331 0.45763-0.80734 3.2606-2.6742 3.2606-2.0583 0-1.3643-2.803-0.58527-5.9492l1.1473-4.6336h12.015zm-8.8457 2.8602h-4.1645c0.864-3.4894 1.7422-7.0361 3.9441-7.0361 2.1062 0 1.0844 3.5467 0.22041 7.0361zm6.3193 22.939h8.5204l4.7166-19.049c1.4306-5.7776 4.6856-5.7776 6.7971-5.606l3.0311-12.242c-4.3804 1.2585-3.0332 0.45763-7.5254 6.8073l1.4589-5.892h-8.0896z" fill="#ee3a43"/>
 <path d="m265.1 31.361-165.91 187.53 16.373-1.694 96.991-87.694c2.7878-2.5205 5.6453-5.0716 9.0846-6.5869 1.7196-0.7576 3.5735-1.2362 5.4523-1.2685 1.8789-0.0323 3.7842 0.39131 5.3972 1.3552 1.3231 0.79076 2.4305 1.9298 3.2698 3.2226 0.83937 1.2928 1.4149 2.7376 1.7964 4.2311 0.76304 2.9868 0.72242 6.1121 0.70915 9.1948l-0.2836 64.876 4.0893-0.42547z" fill="#0061aa"/>
</svg>
