<?xml version="1.0" encoding="UTF-8"?>
<svg version="1.1" xmlns="http://www.w3.org/2000/svg" width="320" height="158">
<path d="M0 0 C105.6 0 211.2 0 320 0 C320 52.14 320 104.28 320 158 C214.4 158 108.8 158 0 158 C0 105.86 0 53.72 0 0 Z " fill="#FDFDFD" transform="translate(0,0)"/>
<path d="M0 0 C6.67165276 6.11465021 9.50672333 12.27458065 10.04296875 21.26171875 C10.42929913 32.56213455 10.35704695 42.38722811 2.48046875 51.1796875 C-5.38009824 58.15037898 -13.16265528 59.10115622 -23.35546875 58.69140625 C-28.22844577 58.21751163 -31.46562949 57.2551088 -35.33203125 54.3046875 C-36.40453125 53.5415625 -37.47703125 52.7784375 -38.58203125 51.9921875 C-45.93436067 44.80695648 -47.51941361 36.44836663 -47.64453125 26.4296875 C-47.56266543 15.96049443 -45.89235059 8.88973483 -38.51953125 1.21875 C-27.77588269 -8.18194249 -11.46709455 -8.33621279 0 0 Z " fill="#242424" transform="translate(201.33203125,39.6953125)"/>
<path d="M0 0 C3.02796132 2.53360029 4.82063192 4.73094788 7 8 C7.125 11.1875 7.125 11.1875 7 14 C3.7 14.33 0.4 14.66 -3 15 C-3.65104167 13.2421875 -4.30208333 11.484375 -4.953125 9.7265625 C-6.37075543 7.38853022 -7.40898274 6.88251091 -10 6 C-13.37021655 5.6454035 -13.37021655 5.6454035 -17 5.6875 C-18.216875 5.67074219 -19.43375 5.65398438 -20.6875 5.63671875 C-24.18918274 6.02074764 -25.60902729 6.45080116 -28 9 C-28.66666667 12.5 -28.66666667 12.5 -28 16 C-25.15536717 18.71286846 -22.32391465 19.68367709 -18.5703125 20.68359375 C-17.00603516 21.11575195 -17.00603516 21.11575195 -15.41015625 21.55664062 C-13.22831706 22.14166409 -11.04602751 22.72501063 -8.86328125 23.30664062 C-1.72729306 25.2820159 3.32069926 27.0386676 8.375 32.625 C10.6067724 37.26021959 10.98712183 40.95049215 10 46 C7.42739447 52.01839469 3.9170702 55.74681292 -2.0703125 58.34375 C-9.98728174 61.03616059 -21.87191418 62.00250406 -29.6875 58.4375 C-35.27146583 54.84870398 -38.89907014 50.58119023 -40.375 44.0625 C-40.6049949 42.71184368 -40.82134414 41.35840061 -41 40 C-37.55280655 39.51806228 -34.42566455 39.29905633 -31 40 C-29.21465485 41.86808066 -28.28019611 43.60478505 -27.23046875 45.95703125 C-25.56313233 48.72533901 -23.91887882 49.64897609 -21 51 C-15.67602266 51.79537212 -9.94363916 52.14243235 -5.3125 49.0625 C-2.15787363 46.58675716 -2.15787363 46.58675716 -1.6875 42.625 C-1.5941378 39.02240056 -1.5941378 39.02240056 -3.72558594 37.36279297 C-6.07629592 35.95428469 -8.05257927 35.23902817 -10.703125 34.5703125 C-11.60160156 34.33183594 -12.50007813 34.09335938 -13.42578125 33.84765625 C-15.29205614 33.37011703 -17.15923438 32.89609289 -19.02734375 32.42578125 C-26.23133202 30.50403259 -31.75530244 27.67687549 -37.5 22.9375 C-39.970289 18.09985071 -39.81500554 13.30456191 -39 8 C-36.97320504 3.25696753 -33.71898408 0.0851325 -29 -2 C-18.77820742 -5.29176371 -9.69571566 -4.84785783 0 0 Z " fill="#262626" transform="translate(261,38)"/>
<path d="M0 0 C3.92342665 3.2710536 5.75391877 7.10688522 7 12 C7.26386674 15.62489409 7.23292146 19.23438185 7.1953125 22.8671875 C7.1924826 23.90191193 7.18965271 24.93663635 7.18673706 26.00271606 C7.17558048 29.29359714 7.15048397 32.58420178 7.125 35.875 C7.11496437 38.11197522 7.10583953 40.34895473 7.09765625 42.5859375 C7.0756559 48.05739748 7.041157 53.52865194 7 59 C3.37 59 -0.26 59 -4 59 C-4.029729 56.94120605 -4.029729 56.94120605 -4.06005859 54.84082031 C-4.13612345 49.74916214 -4.22483979 44.6577894 -4.31738281 39.56640625 C-4.35566886 37.36268753 -4.39052237 35.15890639 -4.421875 32.95507812 C-4.4675333 29.78753348 -4.52552702 26.62041838 -4.5859375 23.453125 C-4.59748871 22.46757629 -4.60903992 21.48202759 -4.62094116 20.46661377 C-4.64081085 19.5459613 -4.66068054 18.62530884 -4.68115234 17.67675781 C-4.69447601 16.8684552 -4.70779968 16.06015259 -4.7215271 15.22735596 C-5.03431643 12.72552123 -5.65930285 11.12925209 -7 9 C-11.44842388 6.03438408 -15.73813583 5.07561846 -21 6 C-25.25116855 7.65135033 -28.73134936 9.96684331 -31 14 C-31.83269964 16.7803302 -32.14276109 19.32208473 -32.20532227 22.21777344 C-32.22526749 23.03832214 -32.24521271 23.85887085 -32.26576233 24.70428467 C-32.29083107 26.01855438 -32.29083107 26.01855438 -32.31640625 27.359375 C-32.33718735 28.26375305 -32.35796844 29.1681311 -32.37937927 30.09991455 C-32.4446594 32.98320055 -32.50365952 35.8665761 -32.5625 38.75 C-32.60570571 40.70704044 -32.64932065 42.66407188 -32.69335938 44.62109375 C-32.80031872 49.4139712 -32.90164673 54.20693854 -33 59 C-36.3 59 -39.6 59 -43 59 C-43 38.54 -43 18.08 -43 -3 C-40.03 -3 -37.06 -3 -34 -3 C-33.67 -0.69 -33.34 1.62 -33 4 C-32.48050781 3.59007812 -31.96101563 3.18015625 -31.42578125 2.7578125 C-21.29169535 -5.0722206 -11.55240191 -6.64827392 0 0 Z " fill="#292929" transform="translate(135,38)"/>
<path d="M0 0 C5.41293903 2.0686912 9.05903348 5.19422573 11.5625 10.4375 C14.21691969 18.5353149 14.56712264 28.16777974 11.3125 36.125 C8.95276221 40.53704496 6.10388153 43.77273578 1.75 46.3125 C-3.46317865 47.61579466 -8.15815566 47.6375615 -13.25 45.875 C-18.08016233 42.5817075 -21.30277584 38.58513853 -23 33 C-23.36118121 29.72628331 -23.41570216 26.47897423 -23.4375 23.1875 C-23.47037109 22.32318359 -23.50324219 21.45886719 -23.53710938 20.56835938 C-23.59044074 14.14435436 -22.09092046 9.9728669 -18 5 C-12.24103913 -0.22324358 -7.66668961 -1.02155099 0 0 Z " fill="#FAFAFA" transform="translate(188,43)"/>
<path d="M0 0 C1.640625 1.16015625 1.640625 1.16015625 4.078125 4.09765625 C4.74834134 9.37560992 4.06747193 13.12428893 2.078125 18.09765625 C3.068125 18.74734375 3.068125 18.74734375 4.078125 19.41015625 C6.82405046 23.09999359 6.69328225 25.95543867 6.54296875 30.46484375 C5.87217273 34.26414221 4.12097666 35.85174193 1.078125 38.09765625 C0.418125 38.75765625 -0.241875 39.41765625 -0.921875 40.09765625 C-6.08422734 41.00771212 -10.94871288 41.0552608 -15.71484375 38.7421875 C-19.51021545 36.0087958 -21.67698651 34.42005409 -22.546875 29.72265625 C-21.921875 27.09765625 -21.921875 27.09765625 -20.921875 26.09765625 C-17.30128268 25.80409471 -15.04483538 26.24701306 -11.921875 28.09765625 C-12.251875 26.44765625 -12.581875 24.79765625 -12.921875 23.09765625 C-14.571875 22.76765625 -16.221875 22.43765625 -17.921875 22.09765625 C-18.251875 20.77765625 -18.581875 19.45765625 -18.921875 18.09765625 C-18.261875 17.76765625 -17.601875 17.43765625 -16.921875 17.09765625 C-16.261875 18.08765625 -15.601875 19.07765625 -14.921875 20.09765625 C-12.3564156 17.53219685 -12.38141413 15.62078957 -11.921875 12.09765625 C-12.499375 12.28328125 -13.076875 12.46890625 -13.671875 12.66015625 C-16.12880025 13.13789171 -17.56585034 12.85494989 -19.921875 12.09765625 C-20.63848208 6.12593054 -20.63848208 6.12593054 -18.69140625 3.33203125 C-13.2513368 -2.20206409 -7.20483018 -3.38275564 0 0 Z " fill="#FAF5E8" transform="translate(296.921875,11.90234375)"/>
<path d="M0 0 C2.97 0 5.94 0 9 0 C9.33 2.31 9.66 4.62 10 7 C11.65 5.68 13.3 4.36 15 3 C15.33 3.99 15.66 4.98 16 6 C16.66 6.66 17.32 7.32 18 8 C13.25 10 13.25 10 11 10 C11 10.66 11 11.32 11 12 C11.99 12 12.98 12 14 12 C13.78937424 12.5354393 13.57874847 13.0708786 13.36174011 13.62254333 C11.21347019 19.47887909 10.53493939 24.63837345 10.48828125 30.84765625 C10.47033005 31.74495956 10.45237885 32.64226288 10.43388367 33.5667572 C10.3802267 36.39862537 10.34602966 39.23032942 10.3125 42.0625 C10.27928743 43.99676742 10.2447942 45.9310133 10.20898438 47.86523438 C10.12452653 52.57670357 10.05750447 57.28812789 10 62 C6.7 62 3.4 62 0 62 C0 41.54 0 21.08 0 0 Z " fill="#222222" transform="translate(92,35)"/>
<path d="M0 0 C3.76515172 1.88617543 6.3412888 4.1885442 7.796875 8.19140625 C8.50492917 12.37600638 8.23880049 14.52239903 6.3125 18.375 C1.50703625 23.82985075 1.50703625 23.82985075 -3.875 24.4375 C-8.1659538 24.26938427 -10.72018157 22.81127294 -14 20 C-16.54727184 15.81582151 -16.82674977 11.77861365 -16 7 C-12.56225166 0.62694347 -6.99034044 -1.30350041 0 0 Z " fill="#EE7925" transform="translate(120,106)"/>
<path d="M0 0 C1.640625 1.16015625 1.640625 1.16015625 4.078125 4.09765625 C4.74834134 9.37560992 4.06747193 13.12428893 2.078125 18.09765625 C3.068125 18.74734375 3.068125 18.74734375 4.078125 19.41015625 C6.82405046 23.09999359 6.69328225 25.95543867 6.54296875 30.46484375 C5.87217273 34.26414221 4.12097666 35.85174193 1.078125 38.09765625 C0.418125 38.75765625 -0.241875 39.41765625 -0.921875 40.09765625 C-5.58883863 40.76137114 -10.62135003 41.09956712 -15.01171875 39.1875 C-17.86282546 37.01954356 -18.88837749 35.22446825 -19.796875 31.78515625 C-19.838125 30.89828125 -19.879375 30.01140625 -19.921875 29.09765625 C-18.271875 29.09765625 -16.621875 29.09765625 -14.921875 29.09765625 C-14.57125 30.06703125 -14.220625 31.03640625 -13.859375 32.03515625 C-12.18242647 35.45172376 -12.18242647 35.45172376 -8.421875 36.03515625 C-4.94839955 36.2915619 -4.94839955 36.2915619 -1.921875 35.09765625 C0.36670532 31.84546317 0.32109706 28.98520925 0.078125 25.09765625 C-0.251875 23.77765625 -0.581875 22.45765625 -0.921875 21.09765625 C-3.891875 20.76765625 -6.861875 20.43765625 -9.921875 20.09765625 C-9.921875 18.77765625 -9.921875 17.45765625 -9.921875 16.09765625 C-6.951875 15.10765625 -3.981875 14.11765625 -0.921875 13.09765625 C-0.68759187 8.30792415 -0.68759187 8.30792415 -2.921875 4.09765625 C-5.96796473 3.40404948 -8.86610817 3.46620628 -11.921875 4.09765625 C-13.7843188 6.50624339 -13.7843188 6.50624339 -14.921875 9.09765625 C-16.241875 9.09765625 -17.561875 9.09765625 -18.921875 9.09765625 C-19.234375 6.91015625 -19.234375 6.91015625 -18.921875 4.09765625 C-13.62862646 -2.19701769 -7.51783061 -3.52971315 0 0 Z " fill="#DB813D" transform="translate(296.921875,11.90234375)"/>
<path d="M0 0 C3.01286852 1.76997892 5.41228811 3.82457623 7 7 C7.77010288 13.6008818 7.77010288 13.6008818 5.9765625 16.859375 C3.82810746 19.35205765 2.02985054 20.74483204 -1.19140625 21.54296875 C-5.37597419 21.80494678 -7.78762707 21.10804938 -11.5625 19.1875 C-14.22519324 16.58447496 -14.52830459 14.15058446 -14.75 10.5 C-14.53090284 6.81020457 -14.21503255 4.41564934 -11.5 1.8125 C-7.39995512 -0.31073753 -4.51419508 -1.14874149 0 0 Z " fill="#F28536" transform="translate(90,123)"/>
<path d="M0 0 C3.62364079 0.8665228 5.09430301 2.48714036 7.15625 5.515625 C8.26574563 9.39885969 8.5674722 11.51041518 7.03125 15.265625 C4.85001849 17.88310281 3.32178069 19.22063517 0.15625 20.515625 C-4.12991677 20.515625 -6.26551604 19.92161906 -9.78125 17.453125 C-11.95789784 14.3530508 -12.5978772 12.32299771 -12.31640625 8.51953125 C-10.7747969 1.98361722 -6.49611509 -0.47638177 0 0 Z " fill="#F4924E" transform="translate(52.84375,117.484375)"/>
<path d="M0 0 C8.94158328 -0.69825813 17.03875064 0.68548523 24.0625 6.5625 C27.35653942 10.70661411 28.23451909 12.72332047 28 18 C23.05 18.495 23.05 18.495 18 19 C17.34895833 17.2421875 16.69791667 15.484375 16.046875 13.7265625 C14.65733079 11.43485152 13.50914387 10.9068134 11 10 C8.38664973 9.61922019 8.38664973 9.61922019 5.625 9.5 C1.4573771 9.19314691 -2.09379776 8.5835955 -6 7 C-5 4 -5 4 -3 2 C-1.68 2 -0.36 2 1 2 C0.67 1.34 0.34 0.68 0 0 Z " fill="#2B2B2B" transform="translate(240,34)"/>
<path d="M0 0 C3.625 0.1875 3.625 0.1875 6.625 2.1875 C6.625 2.8475 6.625 3.5075 6.625 4.1875 C7.285 4.1875 7.945 4.1875 8.625 4.1875 C10.1033226 7.14414519 9.68532783 9.92979737 9.625 13.1875 C8.965 13.1875 8.305 13.1875 7.625 13.1875 C7.3775 13.80625 7.13 14.425 6.875 15.0625 C5.36744918 17.6253364 4.41582862 18.23064447 1.625 19.1875 C-0.8125 19.625 -0.8125 19.625 -3.375 19.1875 C-6.90682022 16.13729163 -9.12718912 14.04608163 -9.75 9.375 C-9.25454982 5.1636735 -7.53147263 3.88204981 -4.375 1.1875 C-3.375 0.1875 -3.375 0.1875 0 0 Z " fill="#ECA46D" transform="translate(28.375,93.8125)"/>
<path d="M0 0 C2.26275631 1.61625451 2.95297288 2.56909059 3.75 5.25 C3.375 9 3.375 9 2.75 12.25 C1.76 12.58 0.77 12.91 -0.25 13.25 C-0.25 13.91 -0.25 14.57 -0.25 15.25 C-3.02100394 16.63550197 -5.1834706 16.4377467 -8.25 16.25 C-9.24 15.59 -10.23 14.93 -11.25 14.25 C-11.25 13.59 -11.25 12.93 -11.25 12.25 C-11.91 12.25 -12.57 12.25 -13.25 12.25 C-14.68671608 5.22605473 -14.68671608 5.22605473 -13.25 2.25 C-9.01633655 -1.13693076 -5.13798665 -1.71266222 0 0 Z " fill="#EFB186" transform="translate(30.25,64.75)"/>
<path d="M0 0 C1.80859375 0.63671875 1.80859375 0.63671875 3.87109375 2.26171875 C5.26724325 5.79863083 4.84441655 8.01133893 3.80859375 11.63671875 C1.62109375 14.13671875 1.62109375 14.13671875 -1.19140625 15.63671875 C-4.35652986 15.57341628 -6.31537886 15.18045989 -9.00390625 13.51171875 C-10.91229069 10.49848016 -11.19140625 8.18267433 -11.19140625 4.63671875 C-8.07472532 -0.18910979 -5.38570016 -1.10971894 0 0 Z " fill="#EFBFA1" transform="translate(47.19140625,33.36328125)"/>
<path d="M0 0 C1.45880109 0.14107747 2.91703551 0.28802415 4.375 0.4375 C5.59316406 0.55931641 5.59316406 0.55931641 6.8359375 0.68359375 C9 1 9 1 11 2 C11.125 9.75 11.125 9.75 10 12 C9.34 12 8.68 12 8 12 C8 12.66 8 13.32 8 14 C4.65854032 14.23312509 2.28416126 14.10501612 -0.875 12.9375 C-3 11 -3 11 -3.375 7.4375 C-3 4 -3 4 -2 2 C-1.34 2 -0.68 2 0 2 C0 1.34 0 0.68 0 0 Z " fill="#F3C9AB" transform="translate(72,22)"/>
<path d="M0 0 C3.62364079 0.8665228 5.09430301 2.48714036 7.15625 5.515625 C8.26574563 9.39885969 8.5674722 11.51041518 7.03125 15.265625 C4.85001849 17.88310281 3.32178069 19.22063517 0.15625 20.515625 C-4.12991677 20.515625 -6.26551604 19.92161906 -9.78125 17.453125 C-11.95789784 14.3530508 -12.5978772 12.32299771 -12.31640625 8.51953125 C-10.7747969 1.98361722 -6.49611509 -0.47638177 0 0 Z M-7.15625 4.265625 C-8.8799451 6.56388513 -9.53289182 7.69717753 -9.84375 10.515625 C-8.37569916 13.64594351 -6.35268446 16.14638623 -3.84375 18.515625 C-0.7554996 19.51639497 -0.7554996 19.51639497 2.15625 18.515625 C4.69627013 17.14279077 4.69627013 17.14279077 6.15625 14.515625 C6.64395192 11.03989022 6.75785199 7.71882897 5.15625 4.515625 C3.83625 4.515625 2.51625 4.515625 1.15625 4.515625 C1.15625 3.855625 1.15625 3.195625 1.15625 2.515625 C-2.44002792 2.18869064 -4.22010888 2.04368037 -7.15625 4.265625 Z " fill="#DF996A" transform="translate(52.84375,117.484375)"/>
<path d="M0 0 C0.91007812 0.00902344 1.82015625 0.01804687 2.7578125 0.02734375 C3.45648438 0.03894531 4.15515625 0.05054687 4.875 0.0625 C4.92899736 1.52042884 4.96779177 2.97892712 5 4.4375 C5.02320313 5.24960938 5.04640625 6.06171875 5.0703125 6.8984375 C4.875 9.0625 4.875 9.0625 2.875 11.0625 C0.875 11 0.875 11 -1.125 10.0625 C-2.375 7.5 -2.375 7.5 -3.125 5.0625 C-4.115 7.0425 -5.105 9.0225 -6.125 11.0625 C-7.115 10.7325 -8.105 10.4025 -9.125 10.0625 C-9.125 8.0825 -9.125 6.1025 -9.125 4.0625 C-8.465 4.0625 -7.805 4.0625 -7.125 4.0625 C-7.125 3.0725 -7.125 2.0825 -7.125 1.0625 C-4.60024538 -0.19987731 -2.81299534 -0.03606404 0 0 Z " fill="#F3A163" transform="translate(30.125,95.9375)"/>
<path d="M0 0 C3.0159732 1.76148435 5.41370439 3.82740878 7 7 C7.77010288 13.6008818 7.77010288 13.6008818 5.9765625 16.859375 C3.82810746 19.35205765 2.02985054 20.74483204 -1.19140625 21.54296875 C-5.48766 21.81193895 -8.21317166 21.26339383 -11.5625 18.5 C-12.366875 17.675 -13.17125 16.85 -14 16 C-13.67 15.01 -13.34 14.02 -13 13 C-11.2925002 14.28062485 -9.62626404 15.61767557 -8 17 C-8 17.66 -8 18.32 -8 19 C-5.36 19.33 -2.72 19.66 0 20 C0.33 18.35 0.66 16.7 1 15 C2.32 15 3.64 15 5 15 C5 12.03 5 9.06 5 6 C3.68 5.67 2.36 5.34 1 5 C0.67 4.34 0.34 3.68 0 3 C-5.26327456 2.49601593 -5.26327456 2.49601593 -9.9375 4.3125 C-11.17571726 6.13070391 -11.17571726 6.13070391 -12 9 C-12.66 9 -13.32 9 -14 9 C-13.72253508 5.67042093 -13.18903896 4.21195277 -10.9375 1.6875 C-7.23575438 -0.43903472 -4.12254886 -0.95817054 0 0 Z " fill="#D8996A" transform="translate(90,123)"/>
<path d="M0 0 C0.99 0.66 1.98 1.32 3 2 C2.67 3.98 2.34 5.96 2 8 C1.34 8 0.68 8 0 8 C-0.309375 8.61875 -0.61875 9.2375 -0.9375 9.875 C-1.625 11.25 -2.3125 12.625 -3 14 C-2.34 14.33 -1.68 14.66 -1 15 C-1.33 15.66 -1.66 16.32 -2 17 C-2.15745826 20.0604194 -2.25866877 23.101419 -2.31640625 26.1640625 C-2.33718735 27.07127045 -2.35796844 27.97847839 -2.37937927 28.91317749 C-2.44487135 31.8170398 -2.50375814 34.72099405 -2.5625 37.625 C-2.60568555 39.59115542 -2.64929985 41.55730147 -2.69335938 43.5234375 C-2.80055239 48.34886362 -2.90182081 53.1743824 -3 58 C-3.33 58 -3.66 58 -4 58 C-4.00586624 57.43703217 -4.01173248 56.87406433 -4.01777649 56.29403687 C-4.081837 50.42112064 -4.16628904 44.548746 -4.26245117 38.67626953 C-4.2956531 36.48623812 -4.3236997 34.29612211 -4.34643555 32.10595703 C-4.38006809 28.9530847 -4.43238948 25.80098427 -4.48828125 22.6484375 C-4.49467117 21.67321136 -4.5010611 20.69798523 -4.50764465 19.69320679 C-4.6220386 14.3734662 -5.0852269 10.63513394 -8 6 C-7.236875 5.566875 -6.47375 5.13375 -5.6875 4.6875 C-3.41906232 3.26313215 -1.7800277 1.96739903 0 0 Z " fill="#3E3E3E" transform="translate(135,39)"/>
<path d="M0 0 C0.33 0.66 0.66 1.32 1 2 C-0.65 2.33 -2.3 2.66 -4 3 C-4 3.99 -4 4.98 -4 6 C-5.32 6.33 -6.64 6.66 -8 7 C-6.35 7.33 -4.7 7.66 -3 8 C-3 8.33 -3 8.66 -3 9 C-4.76756294 9.39012425 -6.53924783 9.7616098 -8.3125 10.125 C-9.29863281 10.33382812 -10.28476563 10.54265625 -11.30078125 10.7578125 C-14 11 -14 11 -17 9 C-16.42655063 6.13275314 -16.1385485 5.1385485 -14 3 C-14.33 2.34 -14.66 1.68 -15 1 C-10.03926578 -0.32286246 -5.08888488 -0.08893197 0 0 Z " fill="#2A2A2A" transform="translate(188,34)"/>
<path d="M0 0 C1.258125 0.12375 2.51625 0.2475 3.8125 0.375 C4.87404297 0.47941406 4.87404297 0.47941406 5.95703125 0.5859375 C8 1 8 1 11 3 C11.8125 6 11.8125 6 12 9 C10 11 10 11 7.375 11.125 C6.59125 11.08375 5.8075 11.0425 5 11 C5 10.01 5 9.02 5 8 C4.01 7.67 3.02 7.34 2 7 C0 4 0 4 0 0 Z " fill="#F7B98E" transform="translate(38,37)"/>
<path d="M0 0 C1.6875 2.01953125 1.6875 2.01953125 3 4 C1.96939453 4.12955078 1.96939453 4.12955078 0.91796875 4.26171875 C-1.81078284 4.68723223 -4.3698916 5.15171544 -7 6 C-8.89942124 8.49552137 -8.89942124 8.49552137 -10 11 C-11.32 11 -12.64 11 -14 11 C-14.3125 8.8125 -14.3125 8.8125 -14 6 C-9.82836504 1.0391368 -6.50378474 -0.67747758 0 0 Z " fill="#DB7A33" transform="translate(292,10)"/>
<path d="M0 0 C0.66 0 1.32 0 2 0 C2.33 0.66 2.66 1.32 3 2 C3.99 2 4.98 2 6 2 C6 2.66 6 3.32 6 4 C6.66 4 7.32 4 8 4 C8.33 3.01 8.66 2.02 9 1 C10.0625 2.8125 10.0625 2.8125 11 5 C10.67 5.99 10.34 6.98 10 8 C9.34 8 8.68 8 8 8 C8 8.66 8 9.32 8 10 C5.36 10.33 2.72 10.66 0 11 C-1.05404945 7.01803543 -0.84098656 4.01804691 0 0 Z " fill="#F6AC7C" transform="translate(20,69)"/>
<path d="M0 0 C1.32 0 2.64 0 4 0 C4 0.99 4 1.98 4 3 C3.01 3.33 2.02 3.66 1 4 C1 4.66 1 5.32 1 6 C1.99 6.33 2.98 6.66 4 7 C5.44207941 9.88415883 5.09394887 12.41721528 5.0625 15.625 C5.05347656 16.81351563 5.04445312 18.00203125 5.03515625 19.2265625 C5.02355469 20.14179687 5.01195312 21.05703125 5 22 C4.01 22.33 3.02 22.66 2 23 C2.09539062 22.40832031 2.19078125 21.81664063 2.2890625 21.20703125 C3.24588814 14.85674995 3.24588814 14.85674995 1 9 C-3.02699476 4.73612319 -6.39070732 4.38029103 -12 4 C-12 3.67 -12 3.34 -12 3 C-10.82630859 2.80083984 -10.82630859 2.80083984 -9.62890625 2.59765625 C-8.61699219 2.42105469 -7.60507813 2.24445313 -6.5625 2.0625 C-5.55316406 1.88847656 -4.54382813 1.71445313 -3.50390625 1.53515625 C-1.0712562 1.25248903 -1.0712562 1.25248903 0 0 Z " fill="#FDF4E3" transform="translate(124,102)"/>
<path d="M0 0 C0.66 0.99 1.32 1.98 2 3 C0.73046875 4.49739583 -0.5390625 5.99479167 -1.80859375 7.4921875 C-3.0878152 9.00594079 -3.0878152 9.00594079 -4 11 C-5.32 10.67 -6.64 10.34 -8 10 C-8 9.34 -8 8.68 -8 8 C-9.65 7.67 -11.3 7.34 -13 7 C-13.33 5.68 -13.66 4.36 -14 3 C-12.1746875 3.3403125 -12.1746875 3.3403125 -10.3125 3.6875 C-7.08158824 4.10568539 -6.1345775 4.06299372 -3.0625 2.625 C-1.12430473 1.16357731 -1.12430473 1.16357731 0 0 Z " fill="#FDFAF0" transform="translate(59,133)"/>
<path d="M0 0 C3.6875 1.375 3.6875 1.375 7 3 C7.36923077 8.53846154 7.36923077 8.53846154 5.5 10.875 C5.005 11.24625 4.51 11.6175 4 12 C3.34 10.68 2.68 9.36 2 8 C0.35 8.33 -1.3 8.66 -3 9 C-3 8.34 -3 7.68 -3 7 C-2.34 6.67 -1.68 6.34 -1 6 C-1 5.34 -1 4.68 -1 4 C-1.66 3.34 -2.32 2.68 -3 2 C-2.01 1.34 -1.02 0.68 0 0 Z M4 7 C5 9 5 9 5 9 Z " fill="#212121" transform="translate(263,69)"/>
<path d="M0 0 C0.33 0 0.66 0 1 0 C1 2.31 1 4.62 1 7 C3.64 7 6.28 7 9 7 C9 7.33 9 7.66 9 8 C7.02 8.33 5.04 8.66 3 9 C3 10.65 3 12.3 3 14 C1.68 13.67 0.36 13.34 -1 13 C-1 12.01 -1 11.02 -1 10 C-2.65 9.67 -4.3 9.34 -6 9 C-6.33 7.68 -6.66 6.36 -7 5 C-6.34 4.67 -5.68 4.34 -5 4 C-4.01 5.485 -4.01 5.485 -3 7 C-0.64046906 4.64046906 -0.50858587 3.22104383 0 0 Z " fill="#FDFAEE" transform="translate(285,25)"/>
<path d="M0 0 C0.66 0.33 1.32 0.66 2 1 C1.525625 1.86625 1.05125 2.7325 0.5625 3.625 C-0.97021969 6.93567453 -1.76848884 9.37299184 -2 13 C-1.37400383 14.68236471 -0.71247732 16.3523962 0 18 C-0.33 18.99 -0.66 19.98 -1 21 C-3.70392431 18.53119954 -4.77895833 16.65781254 -5.2734375 12.94921875 C-5.46931075 8.58727218 -5.38690653 5.86264335 -2.5 2.4375 C-1.675 1.633125 -0.85 0.82875 0 0 Z " fill="#DA833F" transform="translate(109,107)"/>
<path d="M0 0 C3.4375 0.8125 3.4375 0.8125 5.4375 2.8125 C5.0625 4.9375 5.0625 4.9375 4.4375 6.8125 C2.8596875 7.0290625 2.8596875 7.0290625 1.25 7.25 C-1.71710549 7.68776966 -4.63044366 8.19054866 -7.5625 8.8125 C-6.2425 7.8225 -4.9225 6.8325 -3.5625 5.8125 C-4.5525 4.8225 -5.5425 3.8325 -6.5625 2.8125 C-4.51257555 -0.20209478 -3.75198575 -0.19747293 0 0 Z " fill="#1F1F1F" transform="translate(254.5625,62.1875)"/>
<path d="M0 0 C1.98 0.66 3.96 1.32 6 2 C5.67 2.99 5.34 3.98 5 5 C5.33 5.33 5.66 5.66 6 6 C4 9 4 9 1.5 9.8125 C0.2625 9.9053125 0.2625 9.9053125 -1 10 C-3.35953094 7.64046906 -3.49141413 6.22104383 -4 3 C-2.35 2.67 -0.7 2.34 1 2 C0.67 1.34 0.34 0.68 0 0 Z " fill="#222222" transform="translate(257,37)"/>
<path d="M0 0 C3.63 0 7.26 0 11 0 C11 0.99 11 1.98 11 3 C10.01 3 9.02 3 8 3 C8 3.66 8 4.32 8 5 C7.01 5.495 7.01 5.495 6 6 C7.32 6.66 8.64 7.32 10 8 C7.03 8 4.06 8 1 8 C1 7.34 1 6.68 1 6 C1.66 6 2.32 6 3 6 C2.67 5.34 2.34 4.68 2 4 C1.01 3.67 0.02 3.34 -1 3 C-0.34 3 0.32 3 1 3 C0.67 2.01 0.34 1.02 0 0 Z " fill="#1D1D1D" transform="translate(177,90)"/>
<path d="M0 0 C4.88328831 -0.51403035 7.93073167 -0.58004544 11.9375 2.4375 C15.16821403 5.5718854 16.09315663 8.35550258 16.2890625 12.80859375 C15.81895703 16.3725014 14.29923897 18.28271759 12 21 C11.67 19.68 11.34 18.36 11 17 C11.66 16.67 12.32 16.34 13 16 C13 12.7 13 9.4 13 6 C12.21625 5.71125 11.4325 5.4225 10.625 5.125 C8 4 8 4 6 2 C4.01178687 1.60235737 2.01055661 1.26224651 0 1 C0 0.67 0 0.34 0 0 Z " fill="#D9894E" transform="translate(112,106)"/>
<path d="M0 0 C1.67542976 0.28604898 3.34385343 0.61781233 5 1 C4.68289062 1.80695312 4.36578125 2.61390625 4.0390625 3.4453125 C2.81087411 7.64700961 2.55200991 11.5235065 2.375 15.875 C2.31699219 17.050625 2.31699219 17.050625 2.2578125 18.25 C2.16433378 20.16631367 2.08111505 22.08312319 2 24 C1.67 24 1.34 24 1 24 C0.95101562 23.07316406 0.90203125 22.14632812 0.8515625 21.19140625 C0.77679688 19.99386719 0.70203125 18.79632813 0.625 17.5625 C0.55539063 16.36753906 0.48578125 15.17257813 0.4140625 13.94140625 C0.27742187 12.97074219 0.14078125 12.00007813 0 11 C-0.66 10.67 -1.32 10.34 -2 10 C-1.85950482 8.52031676 -1.71245174 7.04125484 -1.5625 5.5625 C-1.48128906 4.73878906 -1.40007812 3.91507813 -1.31640625 3.06640625 C-1 1 -1 1 0 0 Z " fill="#393939" transform="translate(163,49)"/>
<path d="M0 0 C0.33 0.66 0.66 1.32 1 2 C0.40832031 2.08636719 -0.18335938 2.17273438 -0.79296875 2.26171875 C-4.87247732 2.98711261 -7.61368121 3.73194206 -11.0625 6.125 C-13.7122106 10.05682863 -13.39534115 12.33497447 -13 17 C-15 16 -15 16 -15.75 14.375 C-16.1254725 10.80801125 -15.30498914 8.32179054 -14 5 C-9.52866408 0.64331371 -6.12072198 -0.13601604 0 0 Z " fill="#FDF0E1" transform="translate(33,91)"/>
<path d="M0 0 C0.99 0.33 1.98 0.66 3 1 C2.01 1.495 2.01 1.495 1 2 C1 2.66 1 3.32 1 4 C-0.32 4 -1.64 4 -3 4 C-1.47444034 8.81122847 -1.47444034 8.81122847 2 12 C2 12.99 2 13.98 2 15 C2.99 15.33 3.98 15.66 5 16 C-0.34586466 15.40601504 -0.34586466 15.40601504 -2.8125 13.875 C-4.72088444 10.86176141 -5 8.54595558 -5 5 C-2.5625 2.0625 -2.5625 2.0625 0 0 Z " fill="#EAC5A9" transform="translate(41,33)"/>
<path d="M0 0 C0.33 0 0.66 0 1 0 C1.41271158 4.20965814 1.42484735 6.35587659 -0.9375 9.9375 C-4.50482358 12.33998323 -6.55393164 12.7194934 -10.7734375 12.5078125 C-14.49226268 11.65965939 -16.36914107 9.69831685 -19 7 C-18.67 6.01 -18.34 5.02 -18 4 C-16.2925002 5.28062485 -14.62626404 6.61767557 -13 8 C-13 8.66 -13 9.32 -13 10 C-10.36 10.33 -7.72 10.66 -5 11 C-4.67 9.35 -4.34 7.7 -4 6 C-2.68 6 -1.36 6 0 6 C0 4.02 0 2.04 0 0 Z " fill="#D98C52" transform="translate(95,132)"/>
<path d="M0 0 C3.5625 0.1875 3.5625 0.1875 5.5625 2.1875 C1.9325 2.5175 -1.6975 2.8475 -5.4375 3.1875 C-5.4375 4.1775 -5.4375 5.1675 -5.4375 6.1875 C-6.0975 6.1875 -6.7575 6.1875 -7.4375 6.1875 C-6.7775 9.4875 -6.1175 12.7875 -5.4375 16.1875 C-6.0975 16.1875 -6.7575 16.1875 -7.4375 16.1875 C-9.53928633 12.77209721 -10.00571226 10.16498585 -9.4375 6.1875 C-7 3.375 -7 3.375 -4.4375 1.1875 C-3.4375 0.1875 -3.4375 0.1875 0 0 Z " fill="#DDAD88" transform="translate(28.4375,93.8125)"/>
<path d="M0 0 C0 1.65 0 3.3 0 5 C-5.39460953 7.27141454 -10.26157749 7.20413361 -16 7 C-16 6.01 -16 5.02 -16 4 C-17.32 4 -18.64 4 -20 4 C-19.67 3.01 -19.34 2.02 -19 1 C-18.34 1.495 -17.68 1.99 -17 2.5 C-13.20657317 4.39671342 -10.17084826 4.80046583 -6 4 C-0.125 0 -0.125 0 0 0 Z " fill="#FCEDD2" transform="translate(126,125)"/>
<path d="M0 0 C1.65 0.33 3.3 0.66 5 1 C3.7934375 2.11375 3.7934375 2.11375 2.5625 3.25 C0.23011409 5.75304829 -0.63534394 6.7180955 -1 10 C0.11375 10.1546875 0.11375 10.1546875 1.25 10.3125 C4.17014018 11.04253504 5.73187554 12.06789398 8 14 C4.65854032 14.23312509 2.28416126 14.10501612 -0.875 12.9375 C-3 11 -3 11 -3.375 7.4375 C-3 4 -3 4 -2 2 C-1.34 2 -0.68 2 0 2 C0 1.34 0 0.68 0 0 Z " fill="#F2D7C1" transform="translate(72,22)"/>
<path d="M0 0 C1.1653125 0.06703125 2.330625 0.1340625 3.53125 0.203125 C5.00078125 0.47382813 5.00078125 0.47382813 6.5 0.75 C7.16 1.74 7.82 2.73 8.5 3.75 C7.76394531 3.64300781 7.02789062 3.53601563 6.26953125 3.42578125 C0.24802407 2.5748067 0.24802407 2.5748067 -5.5 4.0625 C-6.16 4.619375 -6.82 5.17625 -7.5 5.75 C-8.49 6.41 -9.48 7.07 -10.5 7.75 C-9.92415568 5.36435923 -9.27772405 3.08317216 -8.5 0.75 C-5.59529235 -0.70235382 -3.21964927 -0.21369354 0 0 Z " fill="#FDF0D6" transform="translate(288.5,8.25)"/>
<path d="M0 0 C1.77007714 -0.08114106 3.54122098 -0.13925505 5.3125 -0.1875 C6.29863281 -0.22230469 7.28476562 -0.25710937 8.30078125 -0.29296875 C11 0 11 0 12.85546875 1.51171875 C13.23316406 2.00285156 13.61085938 2.49398437 14 3 C11.60517863 4.19741068 10.27826335 4.00722243 7.625 3.875 C4.42973775 3.8235465 3.26109691 3.84716278 0.4375 5.5 C-0.036875 5.995 -0.51125 6.49 -1 7 C-1.33 6.34 -1.66 5.68 -2 5 C-1.34 5 -0.68 5 0 5 C0 3.35 0 1.7 0 0 Z " fill="#FDF2E2" transform="translate(43,115)"/>
<path d="M0 0 C0.66 0.33 1.32 0.66 2 1 C2.66666667 3 3.33333333 5 4 7 C3.34 7 2.68 7 2 7 C2 7.66 2 8.32 2 9 C-0.31 8.67 -2.62 8.34 -5 8 C-4.690625 7.401875 -4.38125 6.80375 -4.0625 6.1875 C-2.89790296 3.91043228 -2.89790296 3.91043228 -2 1 C-1.34 0.67 -0.68 0.34 0 0 Z " fill="#292929" transform="translate(176,89)"/>
<path d="M0 0 C0.33 0 0.66 0 1 0 C0.52083333 7.1875 0.52083333 7.1875 -1.5625 10.4375 C-4.93155675 12.59715176 -8.02021244 13.10601893 -12 13 C-14.5 12.0625 -14.5 12.0625 -16 11 C-16 10.34 -16 9.68 -16 9 C-12.37 9.66 -8.74 10.32 -5 11 C-4.34 9.68 -3.68 8.36 -3 7 C-2.34 7 -1.68 7 -1 7 C-0.67 4.69 -0.34 2.38 0 0 Z " fill="#D8A077" transform="translate(60,125)"/>
<path d="M0 0 C2.10353495 -0.0810206 4.20795952 -0.13919907 6.3125 -0.1875 C7.48425781 -0.22230469 8.65601563 -0.25710937 9.86328125 -0.29296875 C13 0 13 0 14.90625 1.25 C16.86697193 4.38715509 16.17776593 7.38542599 16 11 C14.58101234 8.35122304 13.68088981 5.91985181 13 3 C11.41870971 2.77668801 9.83478911 2.57195356 8.25 2.375 C7.36828125 2.25898437 6.4865625 2.14296875 5.578125 2.0234375 C2.77140122 1.99792183 1.36615134 2.55156156 -1 4 C-0.67 2.68 -0.34 1.36 0 0 Z " fill="#FEF1E3" transform="translate(19,63)"/>
<path d="M0 0 C0.7425 0.66 1.485 1.32 2.25 2 C6.99678878 5.16452585 12.53680937 4.77619102 18 4 C20.50953858 2.92182787 21.93524005 1.83534218 24 0 C23.75 1.875 23.75 1.875 23 4 C19.21919219 6.83560586 14.74351637 6.22187515 10.25 6.125 C9.45722656 6.11597656 8.66445313 6.10695313 7.84765625 6.09765625 C5.89830719 6.07417012 3.94911425 6.03830137 2 6 C1.34 4.02 0.68 2.04 0 0 Z " fill="#FBDAB9" transform="translate(278,47)"/>
<path d="M0 0 C0.680625 -0.00257812 1.36125 -0.00515625 2.0625 -0.0078125 C4 0.125 4 0.125 7 1.125 C7.8125 3.0625 7.8125 3.0625 8 5.125 C7.34 5.785 6.68 6.445 6 7.125 C5.34 6.135 4.68 5.145 4 4.125 C2.14188086 3.50888153 2.14188086 3.50888153 0.0625 3.375 C-0.62714844 3.29765625 -1.31679688 3.2203125 -2.02734375 3.140625 C-4.21511562 3.01685413 -4.21511562 3.01685413 -7 4.125 C-7 3.135 -7 2.145 -7 1.125 C-4.32356043 0.23285348 -2.74615622 -0.01040211 0 0 Z " fill="#FDF5E6" transform="translate(45,30.875)"/>
<path d="M0 0 C1.5625 1.125 1.5625 1.125 3 3 C3 6 3 6 2 9 C-1.29325975 11.6702106 -2.68141026 12 -7 12 C-7.33 13.32 -7.66 14.64 -8 16 C-8 13.69 -8 11.38 -8 9 C-5.03 8.34 -2.06 7.68 1 7 C0.67 4.69 0.34 2.38 0 0 Z " fill="#FCE8C8" transform="translate(294,16)"/>
<path d="M0 0 C1.99097846 2.98646769 2.94124926 5.59687262 4 9 C3.34 9 2.68 9 2 9 C2.33 10.98 2.66 12.96 3 15 C2.34 15 1.68 15 1 15 C-2.25601751 5.98468271 -2.25601751 5.98468271 -1.1875 1.875 C-0.795625 1.25625 -0.40375 0.6375 0 0 Z " fill="#EA761E" transform="translate(108,113)"/>
<path d="M0 0 C0.66 0 1.32 0 2 0 C3.06775224 1.96466413 4.06553465 3.96855359 5 6 C4.67 6.66 4.34 7.32 4 8 C2.68 7.67 1.36 7.34 0 7 C-0.66 8.32 -1.32 9.64 -2 11 C-2.99 10.67 -3.98 10.34 -5 10 C-5 9.34 -5 8.68 -5 8 C-4.34 7.67 -3.68 7.34 -3 7 C-1.94647157 4.69034152 -0.94280904 2.3570226 0 0 Z " fill="#1D1D1D" transform="translate(164,77)"/>
<path d="M0 0 C3.1875 -0.3125 3.1875 -0.3125 6 0 C5.21625 0.598125 4.4325 1.19625 3.625 1.8125 C0.97296016 4.0225332 -0.8456169 5.57915217 -1.23046875 9.12109375 C-1.21628906 9.88550781 -1.20210938 10.64992188 -1.1875 11.4375 C-1.17783203 12.58025391 -1.17783203 12.58025391 -1.16796875 13.74609375 C-1.00451771 15.93937857 -0.60116513 17.88870807 0 20 C-0.66 20 -1.32 20 -2 20 C-3.40053506 17.19892988 -3.2075504 14.81108319 -3.25 11.6875 C-3.27578125 10.55699219 -3.3015625 9.42648438 -3.328125 8.26171875 C-2.96719293 4.67388209 -2.24599228 2.80358202 0 0 Z " fill="#FCE7CA" transform="translate(106,106)"/>
<path d="M0 0 C2.97 0 5.94 0 9 0 C8.67 1.32 8.34 2.64 8 4 C8 4.99 8 5.98 8 7 C4.84859577 6.65930765 3.39218439 6.41923159 1.1875 4.0625 C0 2 0 2 0 0 Z " fill="#2B2B2B" transform="translate(229,61)"/>
<path d="M0 0 C0.66 0 1.32 0 2 0 C2 0.66 2 1.32 2 2 C1.34 2 0.68 2 0 2 C0.33 2.66 0.66 3.32 1 4 C3.52733235 4.65555119 3.52733235 4.65555119 6 5 C5.67 5.66 5.34 6.32 5 7 C2.35139573 7.59355614 -0.29197322 7.74209269 -3 8 C-3.33 7.34 -3.66 6.68 -4 6 C-2.7260411 3.96166576 -1.38938077 1.96147874 0 0 Z " fill="#232323" transform="translate(191,89)"/>
<path d="M0 0 C0.66 0.66 1.32 1.32 2 2 C1.625 5.625 1.625 5.625 1 9 C0.01 9.33 -0.98 9.66 -2 10 C-2 10.66 -2 11.32 -2 12 C-4.70879335 13.35439668 -7.00933268 13.06501451 -10 13 C-7 11 -7 11 -4 11 C-4 10.34 -4 9.68 -4 9 C-3.34 9 -2.68 9 -2 9 C-1.34 6.03 -0.68 3.06 0 0 Z " fill="#E2B89A" transform="translate(32,68)"/>
<path d="M0 0 C2.4375 0.375 2.4375 0.375 5 1 C6.44207941 3.88415883 6.09394887 6.41721528 6.0625 9.625 C6.05347656 10.81351563 6.04445312 12.00203125 6.03515625 13.2265625 C6.02355469 14.14179687 6.01195312 15.05703125 6 16 C5.01 16.33 4.02 16.66 3 17 C3.09539062 16.40832031 3.19078125 15.81664063 3.2890625 15.20703125 C4.18994022 8.78565865 3.64559539 5.46839309 0 0 Z " fill="#FDEDD9" transform="translate(123,108)"/>
<path d="M0 0 C0.99 0.33 1.98 0.66 3 1 C2.93489583 2.98567708 2.86979167 4.97135417 2.8046875 6.95703125 C2.86745538 9.31359719 2.86745538 9.31359719 5 12 C3.68 12 2.36 12 1 12 C-0.41404314 8.19975907 -1.34892324 5.07077118 -1 1 C-0.67 0.67 -0.34 0.34 0 0 Z " fill="#FEF3DE" transform="translate(39,123)"/>
<path d="M0 0 C0.804375 0.66 1.60875 1.32 2.4375 2 C4.58961915 4.10254514 4.58961915 4.10254514 6 4 C6 5.98 6 7.96 6 10 C4.35 10.33 2.7 10.66 1 11 C1.020625 9.9275 1.04125 8.855 1.0625 7.75 C1.0142016 4.85209576 0.86844115 2.71387859 0 0 Z " fill="#DC792E" transform="translate(297,32)"/>
<path d="M0 0 C1.875 2 1.875 2 3 4 C0.29120665 5.35439668 -2.00933268 5.06501451 -5 5 C-5.33 4.34 -5.66 3.68 -6 3 C-8.02463255 2.34786708 -8.02463255 2.34786708 -10 2 C-6.60686626 -0.0880823 -3.95400991 -0.50476722 0 0 Z " fill="#E58F55" transform="translate(292,10)"/>
<path d="M0 0 C0.66 0 1.32 0 2 0 C2.33 1.65 2.66 3.3 3 5 C3.99 5.33 4.98 5.66 6 6 C6 6.99 6 7.98 6 9 C1.25 8.25 1.25 8.25 -1 6 C-0.625 2.875 -0.625 2.875 0 0 Z " fill="#FC903E" transform="translate(46,125)"/>
<path d="M0 0 C0.33 0.66 0.66 1.32 1 2 C0.01 2.99 -0.98 3.98 -2 5 C-2.66 4.34 -3.32 3.68 -4 3 C-3 1 -3 1 0 0 Z M-5 5 C-4.01 5 -3.02 5 -2 5 C-2 5.99 -2 6.98 -2 8 C-1.01 8.66 -0.02 9.32 1 10 C-1.97 9.67 -4.94 9.34 -8 9 C-7.67 8.34 -7.34 7.68 -7 7 C-6.34 7 -5.68 7 -5 7 C-5 6.34 -5 5.68 -5 5 Z " fill="#313131" transform="translate(190,88)"/>
<path d="M0 0 C2.95331336 2.95331336 3.15667419 4.68099282 3.1875 8.75 C3.15769958 12.86245814 2.61256067 16.17016842 1 20 C0.34 19.67 -0.32 19.34 -1 19 C-0.67 18.175 -0.34 17.35 0 16.5 C1.20394622 12.28618824 1.3527296 9.37384709 1 5 C-0.33830958 2.5404226 -0.33830958 2.5404226 -2 1 C-1.34 0.67 -0.68 0.34 0 0 Z " fill="#FCDCBB" transform="translate(299,11)"/>
<path d="M0 0 C0.33 0 0.66 0 1 0 C1.48648649 7.2972973 1.48648649 7.2972973 -0.6875 10.4375 C-3.18625279 12.12584648 -5.02247554 12.66916395 -8 13 C-8.33 12.01 -8.66 11.02 -9 10 C-7.02 10 -5.04 10 -3 10 C-3 9.34 -3 8.68 -3 8 C-2.34 8 -1.68 8 -1 8 C-0.67 5.36 -0.34 2.72 0 0 Z " fill="#FBF2E3" transform="translate(83,26)"/>
<path d="M0 0 C1.2065625 0.0309375 1.2065625 0.0309375 2.4375 0.0625 C2.7675 1.0525 3.0975 2.0425 3.4375 3.0625 C1.7875 3.0625 0.1375 3.0625 -1.5625 3.0625 C-1.2325 4.7125 -0.9025 6.3625 -0.5625 8.0625 C-1.5525 7.7325 -2.5425 7.4025 -3.5625 7.0625 C-3.60504356 5.06295254 -3.60330783 3.06208364 -3.5625 1.0625 C-2.5625 0.0625 -2.5625 0.0625 0 0 Z " fill="#FBEACD" transform="translate(278.5625,37.9375)"/>
<path d="M0 0 C2.31 0 4.62 0 7 0 C7.33 0.66 7.66 1.32 8 2 C6.68 2 5.36 2 4 2 C4 2.99 4 3.98 4 5 C2.68 4.67 1.36 4.34 0 4 C0 2.68 0 1.36 0 0 Z " fill="#E4792A" transform="translate(111,107)"/>
<path d="M0 0 C1.32 0.66 2.64 1.32 4 2 C3.67 3.32 3.34 4.64 3 6 C1.68 6.33 0.36 6.66 -1 7 C-1.04254356 5.00045254 -1.04080783 2.99958364 -1 1 C-0.67 0.67 -0.34 0.34 0 0 Z " fill="#FC9C52" transform="translate(31,100)"/>
<path d="M0 0 C0 3 0 3 -1.17578125 4.64453125 C-3.54854652 6.40759238 -5.2579619 6.49727025 -8.1875 6.6875 C-9.53908203 6.78611328 -9.53908203 6.78611328 -10.91796875 6.88671875 C-11.60503906 6.92410156 -12.29210938 6.96148437 -13 7 C-13.33 5.68 -13.66 4.36 -14 3 C-12.1746875 3.3403125 -12.1746875 3.3403125 -10.3125 3.6875 C-7.08158824 4.10568539 -6.1345775 4.06299372 -3.0625 2.625 C-1.12430473 1.16357731 -1.12430473 1.16357731 0 0 Z " fill="#FDEDD8" transform="translate(59,133)"/>
<path d="M0 0 C2.91517292 1.07401108 4.77810176 1.77810176 7 4 C6.01 6.97 5.02 9.94 4 13 C3 11 3 11 2.5625 7.625 C2.08304729 4.53519368 1.57875508 2.63125846 0 0 Z " fill="#FCE9D3" transform="translate(57,119)"/>
<path d="M0 0 C0.33 0.66 0.66 1.32 1 2 C-1.52475462 3.26237731 -3.31200466 3.09856404 -6.125 3.0625 C-7.03507812 3.05347656 -7.94515625 3.04445313 -8.8828125 3.03515625 C-9.58148437 3.02355469 -10.28015625 3.01195313 -11 3 C-7.63114177 -0.36885823 -4.54278442 -0.10095076 0 0 Z " fill="#FEF8EB" transform="translate(33,91)"/>
<path d="M0 0 C0.66 0 1.32 0 2 0 C2 2.97 2 5.94 2 9 C2.66 9 3.32 9 4 9 C5.625 11 5.625 11 7 13 C4.03 12.505 4.03 12.505 1 12 C0.01751476 7.9472484 -0.08159574 4.16138263 0 0 Z " fill="#FCF4E4" transform="translate(15,68)"/>
<path d="M0 0 C-0.598125 0.268125 -1.19625 0.53625 -1.8125 0.8125 C-5.31088537 2.71162349 -6.73345454 4.20036361 -8 8 C-8.66 8 -9.32 8 -10 8 C-9.64505955 5.37344067 -9.27538036 3.42031739 -7.8125 1.1875 C-5.20638339 -0.51995571 -3.0400645 -0.20267097 0 0 Z " fill="#D69260" transform="translate(86,124)"/>
<path d="M0 0 C0.66 0 1.32 0 2 0 C3.4783226 2.95664519 3.06032783 5.74229737 3 9 C2.34 9 1.68 9 1 9 C0.67 9.99 0.34 10.98 0 12 C-1.43348316 9.13303368 -0.55925559 7.10697549 0 4 C0 2.68 0 1.36 0 0 Z " fill="#DCB08D" transform="translate(35,98)"/>
<path d="M0 0 C2.0625 0.4375 2.0625 0.4375 4 1 C4 3.31 4 5.62 4 8 C3.34 7.34 2.68 6.68 2 6 C1.01 6 0.02 6 -1 6 C-1.042721 4.33388095 -1.04063832 2.66617115 -1 1 C-0.67 0.67 -0.34 0.34 0 0 Z " fill="#2B2B2B" transform="translate(203,79)"/>
<path d="M0 0 C0.90492188 0.02320313 1.80984375 0.04640625 2.7421875 0.0703125 C4.10730469 0.09738281 4.10730469 0.09738281 5.5 0.125 C6.19867188 0.14820313 6.89734375 0.17140625 7.6171875 0.1953125 C7.9471875 0.8553125 8.2771875 1.5153125 8.6171875 2.1953125 C3.96181357 3.03327981 0.24640275 3.2114817 -4.3828125 2.1953125 C-2.3828125 0.1953125 -2.3828125 0.1953125 0 0 Z " fill="#383838" transform="translate(180.3828125,33.8046875)"/>
<path d="M0 0 C0.61875 0.495 1.2375 0.99 1.875 1.5 C6.26029741 3.60494276 10.21713261 3.25075227 15 3 C15 3.66 15 4.32 15 5 C13.06257659 5.02703381 11.12504521 5.04641125 9.1875 5.0625 C8.10855469 5.07410156 7.02960938 5.08570313 5.91796875 5.09765625 C3 5 3 5 0 4 C0 2.68 0 1.36 0 0 Z " fill="#FAE5CC" transform="translate(77,140)"/>
<path d="M0 0 C1.32 0.33 2.64 0.66 4 1 C3.51917969 1.38800781 3.03835937 1.77601562 2.54296875 2.17578125 C0.54250502 4.54088647 0.51123932 6.12691453 0.3125 9.1875 C0.24675781 10.08855469 0.18101563 10.98960937 0.11328125 11.91796875 C0.07589844 12.60503906 0.03851563 13.29210937 0 14 C-0.33 14 -0.66 14 -1 14 C-1.22226864 12.23086176 -1.42733873 10.45955629 -1.625 8.6875 C-1.74101563 7.70136719 -1.85703125 6.71523437 -1.9765625 5.69921875 C-2 3 -2 3 0 0 Z " fill="#F9E4CA" transform="translate(76,124)"/>
<path d="M0 0 C-0.33 0.99 -0.66 1.98 -1 3 C-1.99 3.33 -2.98 3.66 -4 4 C-5.32 2.68 -6.64 1.36 -8 0 C-4.71023192 -1.09658936 -3.28696233 -0.79953138 0 0 Z " fill="#323232" transform="translate(263,73)"/>
<path d="M0 0 C1.2380014 3.57644848 0.74926071 6.33694766 0 10 C-1.98 10 -3.96 10 -6 10 C-5.360625 9.79375 -4.72125 9.5875 -4.0625 9.375 C-1.66547511 8.11815733 -1.66547511 8.11815733 -1.3125 5 C-1.209375 4.01 -1.10625 3.02 -1 2 C-0.67 1.34 -0.34 0.68 0 0 Z " fill="#E97A30" transform="translate(299,18)"/>
<path d="M0 0 C0.33 0.99 0.66 1.98 1 3 C-2.63 2.67 -6.26 2.34 -10 2 C-5.86678317 -0.75547789 -4.77928863 -1.13193678 0 0 Z " fill="#FDEED5" transform="translate(56,116)"/>
<path d="M0 0 C-0.99 1.32 -1.98 2.64 -3 4 C-2.34 4.66 -1.68 5.32 -1 6 C-2.32 6 -3.64 6 -5 6 C-5.66 4.02 -6.32 2.04 -7 0 C-4.3333581 -1.33332095 -2.83319697 -0.67102033 0 0 Z " fill="#3B3B3B" transform="translate(263,47)"/>
<path d="M0 0 C0.99 0.33 1.98 0.66 3 1 C-1.75 6.75 -1.75 6.75 -4 9 C-3.38461538 3.46153846 -3.38461538 3.46153846 -1.4375 1.125 C-0.963125 0.75375 -0.48875 0.3825 0 0 Z " fill="#E6E6E6" transform="translate(227,36)"/>
<path d="M0 0 C2.375 -0.1875 2.375 -0.1875 5 0 C5.66 0.99 6.32 1.98 7 3 C4.69 3.33 2.38 3.66 0 4 C0 2.68 0 1.36 0 0 Z " fill="#F6771B" transform="translate(115,109)"/>
<path d="M0 0 C0.94875 0.04125 1.8975 0.0825 2.875 0.125 C2.875 1.115 2.875 2.105 2.875 3.125 C0.235 2.795 -2.405 2.465 -5.125 2.125 C-3.125 0.125 -3.125 0.125 0 0 Z " fill="#EFFDFA" transform="translate(125.125,129.875)"/>
<path d="M0 0 C1.65 0 3.3 0 5 0 C5.33 1.65 5.66 3.3 6 5 C5.01 5.495 5.01 5.495 4 6 C2.68 4.02 1.36 2.04 0 0 Z " fill="#FEEED8" transform="translate(92,124)"/>
<path d="M0 0 C2 3 2 3 1.625 5.1875 C1.41875 5.785625 1.2125 6.38375 1 7 C0.01 7 -0.98 7 -2 7 C-1.34 4.69 -0.68 2.38 0 0 Z " fill="#F47513" transform="translate(108,113)"/>
<path d="M0 0 C0.33 0.66 0.66 1.32 1 2 C0.01 2.99 -0.98 3.98 -2 5 C-3.32 3.68 -4.64 2.36 -6 1 C-4 0 -4 0 0 0 Z " fill="#313131" transform="translate(166,87)"/>
<path d="M0 0 C1.65 0.33 3.3 0.66 5 1 C5 1.99 5 2.98 5 4 C2.69 3.67 0.38 3.34 -2 3 C-1.34 2.01 -0.68 1.02 0 0 Z " fill="#343434" transform="translate(173,94)"/>
<path d="M0 0 C1.98 0.99 1.98 0.99 4 2 C3.67 4.31 3.34 6.62 3 9 C1.4375 7.1875 1.4375 7.1875 0 5 C0.33 4.01 0.66 3.02 1 2 C0.67 1.34 0.34 0.68 0 0 Z " fill="#303030" transform="translate(254,88)"/>
<path d="M0 0 C0.33 0 0.66 0 1 0 C1.04254356 1.99954746 1.04080783 4.00041636 1 6 C0 7 0 7 -2.5625 7.0625 C-3.7690625 7.0315625 -3.7690625 7.0315625 -5 7 C-4.34 6.67 -3.68 6.34 -3 6 C-3 5.34 -3 4.68 -3 4 C-2.34 3.67 -1.68 3.34 -1 3 C-0.67 2.01 -0.34 1.02 0 0 Z " fill="#FBECDB" transform="translate(33,74)"/>
<path d="M0 0 C1.65 0.33 3.3 0.66 5 1 C3.35 2.65 1.7 4.3 0 6 C-0.66 5.67 -1.32 5.34 -2 5 C-2 4.01 -2 3.02 -2 2 C-1.34 2 -0.68 2 0 2 C0 1.34 0 0.68 0 0 Z " fill="#EED1BA" transform="translate(72,22)"/>
<path d="M0 0 C2.125 0.9375 2.125 0.9375 4 2 C3.67 2.66 3.34 3.32 3 4 C1.35 3.67 -0.3 3.34 -2 3 C-2 2.34 -2 1.68 -2 1 C-1.34 0.67 -0.68 0.34 0 0 Z " fill="#FEFAF1" transform="translate(124,133)"/>
<path d="M0 0 C0.66 0.66 1.32 1.32 2 2 C1.625 4.125 1.625 4.125 1 6 C-0.65 6 -2.3 6 -4 6 C-4 5.34 -4 4.68 -4 4 C-2.68 3.67 -1.36 3.34 0 3 C0 2.01 0 1.02 0 0 Z " fill="#242424" transform="translate(204,83)"/>
<path d="M0 0 C0.99 0 1.98 0 3 0 C2.34 1.98 1.68 3.96 1 6 C-1 5 -1 5 -2 3 C-1.34 2.01 -0.68 1.02 0 0 Z " fill="#1E1E1E" transform="translate(238,62)"/>
<path d="M0 0 C1.16945792 0.80847729 2.33550461 1.62189112 3.5 2.4375 C4.47453125 3.11619141 4.47453125 3.11619141 5.46875 3.80859375 C5.9740625 4.20175781 6.479375 4.59492187 7 5 C7 5.33 7 5.66 7 6 C5.35 6 3.7 6 2 6 C1.34 4.02 0.68 2.04 0 0 Z " fill="#FDE8D1" transform="translate(278,47)"/>
<path d="M0 0 C0.99 0.33 1.98 0.66 3 1 C3.33 1.99 3.66 2.98 4 4 C3.01 4.99 2.02 5.98 1 7 C-0.0625 5.1875 -0.0625 5.1875 -1 3 C-0.67 2.01 -0.34 1.02 0 0 Z " fill="#EFEFEF" transform="translate(233,49)"/>
<path d="M0 0 C2 2 2 2 2 6 C0.35 6.33 -1.3 6.66 -3 7 C-2.34 6.01 -1.68 5.02 -1 4 C-1 3.01 -1 2.02 -1 1 C-0.67 0.67 -0.34 0.34 0 0 Z " fill="#303030" transform="translate(263,40)"/>
<path d="M0 0 C0.33 0.99 0.66 1.98 1 3 C1.66 3.33 2.32 3.66 3 4 C3.33 3.34 3.66 2.68 4 2 C3.67 3.32 3.34 4.64 3 6 C1.68 6 0.36 6 -1 6 C-1.042721 4.33388095 -1.04063832 2.66617115 -1 1 C-0.67 0.67 -0.34 0.34 0 0 Z " fill="#D08B53" transform="translate(279,15)"/>
</svg>
