<?xml version="1.0" encoding="UTF-8"?>
<svg version="1.1" xmlns="http://www.w3.org/2000/svg" width="360" height="220">
<path d="M0 0 C2.72100539 2.19906359 5.3474855 4.47097241 7.95703125 6.80078125 C8.80910156 7.52136719 9.66117188 8.24195312 10.5390625 8.984375 C15.86464616 13.57370286 20.31805023 18.47192848 24.67578125 23.98046875 C27.00430334 26.8592238 29.44593953 29.58043189 31.95703125 32.30078125 C36.05054216 36.74805237 39.88145624 41.34795588 43.67578125 46.05078125 C46.02422093 48.88177703 48.46613027 51.59461723 50.95703125 54.30078125 C55.04808171 58.74537928 58.87747066 63.3416796 62.66796875 68.04296875 C65.84264586 71.86775039 69.22041875 75.49169667 72.58984375 79.14453125 C75.43896305 82.34156281 78.03536488 85.68064543 80.58203125 89.12109375 C81.86950797 90.92736328 81.86950797 90.92736328 83.95703125 91.80078125 C84.19333252 91.2377832 84.42963379 90.67478516 84.6730957 90.09472656 C86.25510231 87.26823215 88.18567134 85.36473526 90.5 83.09765625 C91.40943359 82.19917969 92.31886719 81.30070312 93.25585938 80.375 C94.21837656 79.43321194 95.18126944 78.4918077 96.14453125 77.55078125 C101.69624393 72.10251663 107.15993288 66.68004783 112.21606445 60.76660156 C116.32977439 56.12158791 120.86292203 51.85975441 125.28515625 47.51171875 C129.43354395 43.40566154 133.38003102 39.22267956 137.18359375 34.796875 C141.1141719 30.37281017 145.42040225 26.30097681 149.640625 22.15625 C153.02066395 18.81288416 156.3116283 15.45513848 159.41015625 11.84765625 C163.43403022 7.17001785 167.81042175 2.87531519 172.20703125 -1.44921875 C173.79792737 -3.01453776 175.38655993 -4.58216144 176.97265625 -6.15234375 C177.66649414 -6.83458008 178.36033203 -7.51681641 179.07519531 -8.21972656 C181.00976772 -10.16542424 181.00976772 -10.16542424 182.58105469 -12.45214844 C183.03512695 -13.02868164 183.48919922 -13.60521484 183.95703125 -14.19921875 C184.61703125 -14.19921875 185.27703125 -14.19921875 185.95703125 -14.19921875 C185.95703125 54.77078125 185.95703125 123.74078125 185.95703125 194.80078125 C171.43703125 194.80078125 156.91703125 194.80078125 141.95703125 194.80078125 C141.62703125 161.14078125 141.29703125 127.48078125 140.95703125 92.80078125 C135.61476972 98.73662739 130.4759604 104.56584609 125.47265625 110.75 C122.52778073 114.32134749 119.49983038 117.81289765 116.45703125 121.30078125 C111.96731489 126.45012419 107.58139442 131.66305094 103.28125 136.97265625 C99.98302512 140.98595846 96.59666586 144.92145251 93.20483398 148.85571289 C90.08555587 152.47466335 87.00637896 156.12264468 83.95703125 159.80078125 C79.98865915 158.23748315 77.54128256 155.47960485 74.76953125 152.36328125 C74.28685791 151.82904541 73.80418457 151.29480957 73.30688477 150.74438477 C69.45965578 146.45117369 65.81748824 142.00619751 62.203125 137.515625 C59.86872535 134.6940463 57.43712527 131.99487413 54.95703125 129.30078125 C50.91748307 124.90699577 47.11023506 120.38239301 43.36328125 115.73828125 C40.65923964 112.43724344 37.87580268 109.21323424 35.08203125 105.98828125 C30.65265383 100.8598228 26.40389547 95.62377696 22.24926758 90.27124023 C17.92077053 84.71000702 13.44045629 79.27974588 8.94897461 73.84985352 C5.19831639 69.31389637 1.49060261 64.74825812 -2.171875 60.140625 C-5.07081911 56.51543184 -8.01891277 52.93079186 -10.96484375 49.34375 C-12.33080103 47.67224964 -13.66681173 45.97573942 -14.96875 44.25390625 C-25.1091297 32.2611408 -41.69923803 24.95471531 -57.12646484 23.62060547 C-75.91082613 22.46240949 -93.17407089 27.37825052 -107.73046875 39.671875 C-121.00759127 51.89490165 -129.1346012 67.40092187 -130.28125 85.578125 C-130.76213135 103.52599712 -126.02388613 120.71819978 -113.66796875 134.23828125 C-105.42420342 142.84259776 -97.12796249 148.36678376 -86.04296875 152.80078125 C-84.80353516 153.31511719 -84.80353516 153.31511719 -83.5390625 153.83984375 C-67.81150811 159.24224606 -48.56791567 156.65949688 -33.91796875 149.61328125 C-18.14342164 141.55938272 -7.07955466 128.72512382 -0.68359375 112.3125 C2.6564093 101.62691052 3.01383503 90.92012119 2.95703125 79.80078125 C8.2381774 83.95827929 12.32298462 88.50343301 16.51171875 93.75 C18.62340116 96.38454307 20.76811506 98.97812297 22.95385742 101.55078125 C23.87395833 102.63566905 24.78819318 103.72555881 25.6965332 104.8203125 C28.10445399 107.70692403 30.57002372 110.44831572 33.2421875 113.09375 C40.90634254 120.88221376 40.90634254 120.88221376 41.03515625 125.7578125 C40.0272791 129.05993633 38.64406629 131.78795267 36.95703125 134.80078125 C36.37092601 136.00719504 35.79174078 137.21699003 35.21875 138.4296875 C22.03869986 165.53833628 -1.28054548 184.47008316 -29.35546875 194.61328125 C-58.47502174 203.68632092 -88.72139966 200.97564681 -115.79296875 187.05078125 C-123.33901885 183.04166107 -129.70568451 178.55584149 -136.04296875 172.80078125 C-137.25063431 171.84160655 -138.45890099 170.88318784 -139.66796875 169.92578125 C-158.05314922 153.9044097 -170.49487226 127.863466 -173.04296875 103.80078125 C-173.65612361 89.35316956 -174.12783788 74.78836343 -170.04296875 60.80078125 C-169.77613281 59.81207031 -169.50929687 58.82335937 -169.234375 57.8046875 C-162.04269966 33.73654738 -145.65814744 10.85389364 -124.04296875 -2.19921875 C-122.96402344 -2.864375 -121.88507813 -3.52953125 -120.7734375 -4.21484375 C-113.18297589 -8.78988747 -105.52404108 -12.52449224 -97.04296875 -15.19921875 C-95.18091797 -15.78896484 -95.18091797 -15.78896484 -93.28125 -16.390625 C-62.27059249 -25.15094983 -26.11926468 -18.87695252 0 0 Z " fill="#0059AC" transform="translate(174.04296875,19.19921875)"/>
</svg>
