<svg width="194" height="49" viewBox="0 0 194 49" fill="none" xmlns="http://www.w3.org/2000/svg">
<path d="M27.4652 13.8213C18.3909 11.77 16.984 10.363 14.9326 1.28875C14.844 0.886767 14.4834 0.603027 14.0755 0.603027C13.6676 0.603027 13.307 0.886767 13.2183 1.28875C11.167 10.363 9.76002 11.77 0.685743 13.8213C0.283756 13.91 0 14.2706 0 14.6785C0 15.0864 0.283756 15.447 0.685743 15.5357C9.76002 17.587 11.167 18.9939 13.2183 28.0682C13.307 28.4702 13.6676 28.754 14.0755 28.754C14.4834 28.754 14.844 28.4702 14.9326 28.0682C16.984 18.9939 18.3909 17.587 27.4652 15.5357C27.8672 15.447 28.1509 15.0864 28.1509 14.6785C28.1509 14.2706 27.8672 13.91 27.4652 13.8213Z" fill="#F3994B"/>
<path d="M60.5706 43.775H53.5654C52.8028 43.775 52.2826 43.1898 52.2826 42.4331V1.86789C52.2826 1.0521 51.6382 0.407715 50.8224 0.407715H48.7829C47.9671 0.407715 47.2637 1.0521 47.2637 1.86789V47.0974C47.2637 47.9131 47.9671 48.5575 48.7829 48.5575H60.5706C61.3864 48.5575 62.0308 47.9131 62.0308 47.0974V45.2293C62.0308 44.4135 61.3864 43.7691 60.5706 43.7691V43.775Z" fill="#110D3E"/>
<path d="M77.909 0C74.699 0 72.1275 1.22371 70.3777 3.15088C68.8584 4.90071 67.8652 7.17665 67.8652 10.8536V47.0975C67.8652 47.9133 68.5687 48.5577 69.3845 48.5577H71.424C72.2398 48.5577 72.8842 47.9133 72.8842 47.0975V29.5874C72.8842 28.8899 73.4694 28.3046 74.167 28.3046H81.6392C82.3368 28.3046 82.922 28.8899 82.922 29.5874V47.0975C82.922 47.9133 83.5664 48.5577 84.3822 48.5577H86.4217C87.2375 48.5577 87.941 47.9133 87.941 47.0975V10.8536C87.941 7.17665 86.9478 4.90071 85.4344 3.15088C83.6846 1.22371 81.1131 0 77.9031 0H77.909ZM82.9279 22.3576C82.9279 23.0552 82.3427 23.6404 81.6451 23.6404H74.1729C73.4694 23.6404 72.8901 23.0552 72.8901 22.3576V11.2675C72.8901 8.87328 73.2389 7.12345 74.3502 6.01798C75.2843 5.02484 76.508 4.55784 77.909 4.55784C79.3101 4.55784 80.5337 5.02484 81.4678 6.01798C82.5792 7.12936 82.9279 8.87919 82.9279 11.2675V22.3576Z" fill="#110D3E"/>
<path d="M106.333 0C104.932 0 103.59 0.348799 102.656 0.644378C101.432 1.05228 100.67 1.46018 100.203 1.46018C99.6764 1.46018 99.3867 1.34192 98.9197 0.993141L98.6892 0.815801C98.163 0.467018 97.6369 0.23056 97.0517 0.23056C96.5846 0.23056 96.1767 0.348793 95.828 0.638461C95.4201 0.928128 95.1836 1.33603 95.1836 2.15774V47.0975C95.1836 47.9133 95.8812 48.5577 96.7029 48.5577H98.7483C99.5641 48.5577 100.208 47.9133 100.208 47.0975V11.2615C100.208 8.86736 100.557 7.11753 101.669 6.01207C102.603 5.01892 103.826 4.55192 105.227 4.55192C106.628 4.55192 107.852 5.01892 108.786 6.01207C109.838 7.12344 110.246 8.87327 110.246 11.2615V47.0975C110.246 47.9133 110.944 48.5577 111.766 48.5577H113.805C114.621 48.5577 115.265 47.9133 115.265 47.0975V10.7945C115.265 6.76876 114.213 4.31544 112.64 2.68384C110.95 0.874901 108.496 0 106.339 0H106.333Z" fill="#110D3E"/>
<path d="M132.591 0.413574H124.013C123.198 0.413574 122.494 1.05792 122.494 1.87372V47.1032C122.494 47.919 123.198 48.5634 124.013 48.5634H132.532C135.742 48.5634 138.308 47.3397 140.004 45.4125C141.577 43.6627 142.57 41.3867 142.57 37.7097V11.2731C142.57 7.59614 141.636 5.32016 140.063 3.57034C138.373 1.64316 135.801 0.419492 132.591 0.419492V0.413574ZM137.557 37.1185C137.557 39.5127 137.208 41.2626 136.156 42.3739C135.222 43.3671 133.939 43.8341 132.597 43.8341H128.802C127.927 43.8341 127.519 43.4262 127.519 42.5513V6.42564C127.519 5.55073 127.986 5.14284 128.979 5.14284H132.656C133.998 5.14284 135.281 5.60983 136.215 6.60298C137.267 7.71436 137.557 9.46419 137.557 11.8584V37.1304V37.1185Z" fill="#110D3E"/>
<path d="M163.586 0.413632H151.332C150.516 0.413632 149.812 1.05798 149.812 1.87377V47.1033C149.812 47.9191 150.51 48.5635 151.332 48.5635H163.586C164.402 48.5635 165.047 47.9191 165.047 47.1033V45.2352C165.047 44.4194 164.402 43.7751 163.586 43.7751H156.114C155.358 43.7751 154.831 43.1898 154.831 42.4331V27.9616C154.831 27.2049 155.358 26.6197 156.114 26.6197H163.586C164.402 26.6197 165.047 25.9753 165.047 25.1595V23.2915C165.047 22.4757 164.402 21.8313 163.586 21.8313H156.114C155.358 21.8313 154.831 21.2461 154.831 20.4894V6.53802C154.831 5.78134 155.358 5.19608 156.114 5.19608H163.586C164.402 5.01873 165.047 4.55173 165.047 3.73594V1.86789C165.047 1.0521 164.402 0.407715 163.586 0.407715V0.413632Z" fill="#110D3E"/>
<path d="M192.535 0.413574H190.549C189.674 0.413574 189.089 0.939702 188.971 1.81462L183.485 42.6104C183.366 43.4853 182.958 43.9524 182.202 43.9524C181.445 43.9524 181.031 43.4853 180.919 42.6104L175.492 1.81462C175.374 0.939702 174.907 0.413574 173.973 0.413574H171.933C170.881 0.413574 170.414 1.22937 170.414 1.81462C170.414 2.1634 170.532 2.74863 170.651 3.38708L176.663 46.1101C176.893 47.6293 178.005 48.5634 179.465 48.5634H184.832C186.293 48.5634 187.404 47.6293 187.634 46.1101L193.765 3.38708C193.883 2.74863 194.001 2.1634 194.001 1.81462C194.001 1.22937 193.534 0.413574 192.541 0.413574H192.535Z" fill="#110D3E"/>
<path d="M37.6923 3.56446C36.0016 1.63728 33.3709 0.413574 30.161 0.413574H21.5951C20.7793 0.413574 20.1172 1.07567 20.1172 1.89147V3.66494C20.1172 4.48074 20.7793 5.14284 21.5951 5.14284H30.161C31.5029 5.14284 32.9039 5.60983 33.838 6.60298C34.8902 7.71436 35.1799 9.46419 35.1799 11.8584V17.3443C35.1799 19.7385 34.8311 21.4884 33.7788 22.5938C32.8448 23.587 31.562 24.2313 30.2201 24.2313H21.5951C20.7793 24.2313 20.1172 24.8934 20.1172 25.7092V47.1091C20.1172 47.9249 20.8207 48.5693 21.6365 48.5693H23.676C24.4918 48.5693 25.1361 47.9249 25.1361 47.1091V30.3025C25.1361 29.5458 25.6622 28.9606 26.4189 28.9606H30.155C33.365 28.9606 35.9307 27.7369 37.6273 25.8097C39.1998 24.0599 40.1929 21.7839 40.1929 18.1069V11.2791C40.1929 7.60206 39.2589 5.32608 37.6864 3.57625L37.6923 3.56446Z" fill="#110D3E"/>
</svg>
