<?xml version="1.0" encoding="UTF-8"?>
<svg version="1.1" xmlns="http://www.w3.org/2000/svg" width="1899" height="621">
<path d="M0 0 C2.93307136 2.55166766 4.40650345 5.41539746 6.15234375 8.86328125 C6.44813828 9.44238754 6.7439328 10.02149384 7.0486908 10.6181488 C7.68448565 11.86372369 8.31781403 13.11056006 8.94891357 14.35852051 C10.63156583 17.6843481 12.33344249 21.00030165 14.03515625 24.31640625 C14.37591187 24.98118988 14.71666748 25.64597351 15.06774902 26.3309021 C17.90833493 31.85736741 20.86457583 37.31420528 23.875 42.75 C29.32704439 52.62090253 34.47459228 62.63810659 39.61322021 72.67419434 C43.9693159 81.17731996 48.37498645 89.63890308 53 98 C58.01922129 107.07374546 62.77470977 116.27113404 67.5 125.5 C72.69027391 135.63685562 77.96219157 145.7080986 83.47265625 155.67578125 C88.16591013 164.20781073 92.59904858 172.86857291 97.04229736 181.53234863 C101.23689281 189.70652059 105.49189276 197.83349992 109.9375 205.875 C115.36974092 215.7040547 120.49594509 225.67976372 125.61349487 235.67474365 C129.9694993 244.1776854 134.37508585 252.63908277 139 261 C144.0192257 270.07375342 148.77455141 279.27120824 153.5 288.5 C159.7113943 300.62929371 166.09490805 312.64361445 172.66992188 324.58056641 C174.88280373 328.60583424 177.07598062 332.64111944 179.25 336.6875 C179.63349609 337.38939453 180.01699219 338.09128906 180.41210938 338.81445312 C183 343.65521664 183 343.65521664 183 347 C181.12109375 348.40234375 181.12109375 348.40234375 178.4375 349.9375 C173.59476001 352.88525478 169.20293026 356.10422726 164.8125 359.6875 C159.64785111 363.89622077 154.41844911 367.97490996 149.0625 371.9375 C142.83459247 376.55759368 136.78932987 381.36379751 130.79370117 386.28051758 C126.70369926 389.63008378 122.57617621 392.91600007 118.375 396.125 C108.85817833 403.39430659 99.45640465 410.79176268 90.1875 418.375 C84.72694409 422.84152589 79.18786606 427.18067578 73.5625 431.4375 C66.96184154 436.43529277 60.54004736 441.61457422 54.17089844 446.90332031 C48.0944117 451.94407425 41.91369014 456.83708491 35.68408203 461.68652344 C33.43666847 463.43936266 31.19782139 465.20295881 28.95922852 466.96704102 C27.23288317 468.32597391 25.50332533 469.68073679 23.7734375 471.03515625 C21.01688468 473.19511965 18.276113 475.37398083 15.5390625 477.55859375 C-2.84582783 492.16097458 -25.01510117 506.40643931 -49.5703125 505.32421875 C-56.10782695 504.45184946 -61.14988488 502.54223514 -66 498 C-67.74718773 495.19935466 -69.09967341 492.24619138 -70.46875 489.24609375 C-71.07293762 487.96195335 -71.07293762 487.96195335 -71.68933105 486.65187073 C-72.97156335 483.91917605 -74.23590457 481.17862414 -75.5 478.4375 C-76.3491056 476.62120448 -77.19935521 474.8054433 -78.05078125 472.99023438 C-82.0932281 464.35423225 -86.08582415 455.69495426 -90 447 C-112.28157166 448.06102722 -132.19033071 458.45256446 -147.4375 474.4375 C-157.59493461 485.75032657 -166.07124073 498.55369557 -174.5625 511.125 C-181.03214 520.6998338 -187.76860143 529.98573974 -195 539 C-195.46905762 539.58620117 -195.93811523 540.17240234 -196.42138672 540.77636719 C-209.0912342 556.44755482 -223.4948843 571.36632259 -240 583 C-241.01779541 583.71978027 -241.01779541 583.71978027 -242.05615234 584.45410156 C-262.1796842 598.54464104 -283.59483573 609.45184982 -306.5625 618.125 C-307.3661499 618.43268311 -308.1697998 618.74036621 -308.99780273 619.05737305 C-314.63759596 621.12080135 -314.63759596 621.12080135 -318 620 C-319.61889648 617.38989258 -319.61889648 617.38989258 -321.37109375 613.89453125 C-321.68926559 613.26784042 -322.00743744 612.6411496 -322.33525085 611.99546814 C-323.02013396 610.64432952 -323.70064607 609.29096829 -324.3772583 607.93566895 C-326.16547189 604.3547123 -327.985243 600.78981391 -329.80078125 597.22265625 C-330.34294281 596.15414932 -330.34294281 596.15414932 -330.89605713 595.0640564 C-333.86222719 589.23081313 -336.95537145 583.47530781 -340.125 577.75 C-344.55002194 569.73317594 -348.80656531 561.64029747 -353 553.5 C-357.21481769 545.31846399 -361.49438498 537.1848825 -365.9375 529.125 C-370.94536646 520.03814554 -375.7263871 510.84354897 -380.46798706 501.61627197 C-384.5447805 493.68744808 -388.69370779 485.80734278 -393 478 C-397.64748517 469.57407161 -402.10236215 461.05791777 -406.5 452.5 C-411.37687303 443.00967741 -416.3602153 433.59100431 -421.51171875 424.24609375 C-426.08737309 415.91448785 -430.43859813 407.47200984 -434.79150391 399.02246094 C-438.41622969 392.00435363 -442.12424615 385.04230414 -445.9375 378.125 C-450.94536646 369.03814554 -455.7263871 359.84354897 -460.46798706 350.61627197 C-464.54478437 342.68744056 -468.69397665 334.80749638 -473 327 C-477.76168033 318.36060255 -482.34853187 309.63915565 -486.875 300.875 C-487.34486328 299.96596924 -487.34486328 299.96596924 -487.82421875 299.03857422 C-491.94645919 291.05716882 -496.00251787 283.04458819 -500 275 C-499.37359619 274.73485596 -498.74719238 274.46971191 -498.10180664 274.1965332 C-470.03399462 262.24893757 -442.29859172 249.05206664 -419 229 C-417.87306421 228.05519179 -416.74539911 227.11125311 -415.6171875 226.16796875 C-406.01656108 218.09471472 -397.0572472 209.63800237 -389 200 C-388.5570459 199.47083984 -388.1140918 198.94167969 -387.65771484 198.39648438 C-381.17339063 190.6178457 -374.96144765 182.68661195 -369 174.5 C-359.99108339 162.13590044 -350.50630923 150.13520802 -340 139 C-339.1853125 138.12085938 -338.370625 137.24171875 -337.53125 136.3359375 C-316.44712721 114.32163282 -286.73993597 98.61186865 -255.9375 97.75 C-233.04208229 97.98849393 -215.49531703 107.90595218 -199.50390625 123.421875 C-196.92943366 126.07265801 -194.58079858 128.82093061 -192.25 131.6875 C-191.47140625 132.64011719 -190.6928125 133.59273437 -189.890625 134.57421875 C-188 137 -188 137 -187 139 C-180.97540346 138.516057 -176.35035137 135.87003134 -171.125 133.0625 C-170.19534424 132.56741943 -169.26568848 132.07233887 -168.30786133 131.56225586 C-143.59799357 118.25563665 -122.40961015 101.1173492 -102 82 C-100.76846039 80.85001275 -99.53668309 79.70028 -98.3046875 78.55078125 C-97.67900879 77.96683594 -97.05333008 77.38289063 -96.40869141 76.78125 C-95.13757592 75.59500561 -93.86641715 74.4088076 -92.59521484 73.22265625 C-91.65863037 72.34867188 -91.65863037 72.34867188 -90.703125 71.45703125 C-90.08501953 70.88033691 -89.46691406 70.30364258 -88.83007812 69.70947266 C-87.63497465 68.59312867 -86.4409164 67.47566435 -85.24804688 66.35693359 C-78.84515214 60.35284143 -72.37484747 54.55933321 -65.5234375 49.0625 C-63.23313064 47.1905464 -61.05167092 45.25153647 -58.875 43.25 C-51.9563241 37.04281914 -44.43125634 31.57073351 -37 26 C-36.22769043 25.41879395 -35.45538086 24.83758789 -34.65966797 24.23876953 C-23.3628197 15.7526428 -11.83352675 7.71936154 0 0 Z " fill="#020202" transform="translate(1716,0)"/>
<path d="M0 0 C34.32 0 68.64 0 104 0 C102.13472656 9.18199219 100.26945312 18.36398438 98.34765625 27.82421875 C94.04470207 49.0068092 89.74317913 70.18968922 85.44382679 91.37301099 C83.61989108 100.35959984 81.79545231 109.34608658 79.97098351 118.33256721 C78.54564437 125.35323034 77.120582 132.37394948 75.69604492 139.39477539 C74.41204512 145.72295574 73.12755239 152.05103582 71.84249645 158.3790018 C71.17486787 161.66667257 70.50753508 164.95440263 69.84066582 168.24222755 C69.10592544 171.86449643 68.37043698 175.48661227 67.63452148 179.10864258 C67.40707969 180.22905347 67.17963789 181.34946436 66.94530392 182.5038271 C65.90464352 187.61600297 64.8516668 192.72486844 63.76272583 197.82699585 C63.57342278 198.71449618 63.38411974 199.60199652 63.18908024 200.5163908 C62.8409278 202.14083858 62.49002694 203.76470097 62.13574123 205.38782215 C61.50520423 208.32270813 61 210.98789112 61 214 C66.97255463 207.14146431 72.87501987 200.25985306 78.4375 193.0625 C82.86864546 187.33695327 87.52821816 181.8509681 92.2956543 176.40356445 C96.99017544 171.035692 101.5188601 165.54728471 106 160 C110.77775812 154.11835553 115.59476663 148.2755578 120.5 142.5 C124.55000511 137.73078305 128.54351856 132.92087884 132.49609375 128.0703125 C140.30428617 118.4958363 148.15168017 108.9558494 156.15649414 99.54492188 C159.77292811 95.28728575 163.31512052 90.97283 166.83203125 86.6328125 C167.54746094 85.76398438 168.26289062 84.89515625 169 84 C169.38539507 83.41906051 169.77079014 82.83812101 170.16786385 82.23957729 C172.19233254 79.42551392 173.7832209 77.35295424 177.19050217 76.36459541 C179.86281133 76.13869016 182.45518857 76.13366035 185.13623047 76.20532227 C186.1417244 76.20430008 187.14721832 76.20327789 188.18318176 76.20222473 C191.49560533 76.20708867 194.80524758 76.26147661 198.1171875 76.31640625 C200.41788223 76.32946661 202.71859646 76.33942871 205.01931763 76.34642029 C211.06638611 76.37311078 217.11227226 76.44184423 223.15887451 76.51934814 C229.33231614 76.59103449 235.50594937 76.62294347 241.6796875 76.65820312 C253.78697699 76.73321217 265.89339007 76.85264017 278 77 C276.3738426 80.39121482 274.47416668 83.0373945 272.0625 85.9375 C271.25941406 86.90558594 270.45632813 87.87367188 269.62890625 88.87109375 C266.46100288 92.6499073 263.27301874 96.41174402 260.08154297 100.1706543 C256.50729445 104.3848907 252.99462503 108.64590739 249.50390625 112.9296875 C241.69208052 122.50861889 233.84027163 132.05229952 225.83251953 141.46826172 C222.26971596 145.66328182 218.78674425 149.91914278 215.3125 154.1875 C212.27632634 157.88014364 209.1815003 161.52121788 206.0859375 165.1640625 C202.44140593 169.46013044 198.8721266 173.81368341 195.31640625 178.18359375 C192.72212734 181.33785192 190.08393735 184.4520298 187.4375 187.5625 C184.23260809 191.33088939 181.07312306 195.12246028 178 199 C174.47116597 203.45253701 170.81770671 207.78685979 167.13671875 212.11328125 C163.47897786 216.41769457 159.897494 220.7796193 156.3359375 225.1640625 C154.60916244 227.26044827 152.86774925 229.33576301 151.1015625 231.3984375 C150.60720703 231.97658203 150.11285156 232.55472656 149.60351562 233.15039062 C148.64449162 234.26904081 147.68242719 235.38509432 146.71679688 236.49804688 C145.45051109 237.97568929 144.22395644 239.48710958 143 241 C142.39752441 241.7211499 141.79504883 242.4422998 141.17431641 243.18530273 C139.62946663 246.09030764 139.62946663 246.09030764 140.95019531 249.66479492 C141.55415242 251.11273533 142.18203592 252.55083085 142.828125 253.98046875 C143.3305648 255.16211357 143.3305648 255.16211357 143.84315491 256.36763 C144.57423486 258.08005913 145.31523582 259.78827847 146.06484985 261.49267578 C147.26960443 264.23207704 148.44897295 266.98117644 149.62182617 269.734375 C150.84844692 272.61308882 152.07657583 275.49104774 153.31242371 278.36581421 C157.09837596 287.17578395 160.71428341 296.04902623 164.28707886 304.94717407 C166.03158279 309.29018465 167.78568512 313.62931599 169.5390625 317.96875 C169.89590622 318.85238724 170.25274994 319.73602448 170.6204071 320.6464386 C174.69110043 330.72115738 178.79291968 340.78316292 182.8991394 350.84344482 C183.75368265 352.93712335 184.60795388 355.03091293 185.46194458 357.12481689 C189.73976452 367.61308906 194.03006443 378.09563798 198.37890625 388.5546875 C199.04469065 390.1588488 199.71046256 391.7630153 200.3762207 393.3671875 C201.59134014 396.29424919 202.81340675 399.21826967 204.03979492 402.140625 C204.57363634 403.42438297 205.10726101 404.7082311 205.640625 405.9921875 C206.09985352 407.08901855 206.55908203 408.18584961 207.03222656 409.31591797 C208 412 208 412 208 415 C173.02 415 138.04 415 102 415 C97.38 403.12 92.76 391.24 88 379 C84.57189179 370.3086346 81.1377579 361.62003841 77.6875 352.9375 C76.34527423 349.55563113 75.00349221 346.1735864 73.66172791 342.79153442 C72.76233995 340.52461362 71.86281563 338.25774691 70.96315002 335.99093628 C66.40225219 324.49817839 61.85623928 312.99955026 57.3125 301.5 C56.25405916 298.82126777 55.195608 296.14253962 54.13705444 293.46385193 C53.51871786 291.89908681 52.90048434 290.33428097 52.28237915 288.76942444 C50.86269556 285.17647333 49.4383304 281.58553031 48 278 C46.65082415 281.8737176 45.55945746 285.6777819 44.73446655 289.6947937 C44.50453506 290.80529587 44.27460358 291.91579803 44.03770447 293.05995178 C43.79242508 294.26332687 43.54714569 295.46670197 43.29443359 296.70654297 C43.03079514 297.98513687 42.76715668 299.26373077 42.49552917 300.58106995 C41.77544818 304.07373675 41.05987584 307.56731349 40.34512663 311.06107473 C39.59637111 314.71713015 38.84344852 318.37232719 38.0909729 322.02761841 C36.6679202 328.94355551 35.2486014 335.86025332 33.83063185 342.7772342 C31.91344204 352.12835468 29.99046756 361.47828535 28.0678215 370.82828522 C25.04049339 385.55122377 22.02088076 400.27573381 19 415 C-14.99 415 -48.98 415 -84 415 C-82.87499493 402.62494428 -82.87499493 402.62494428 -81.92251587 397.97802734 C-81.60044552 396.38448126 -81.60044552 396.38448126 -81.27186871 394.75874233 C-81.03729363 393.62921674 -80.80271856 392.49969114 -80.56103516 391.3359375 C-80.18606384 389.49415594 -80.18606384 389.49415594 -79.80351734 387.61516666 C-79.11680419 384.24305763 -78.42268715 380.87251121 -77.72721934 377.50219846 C-76.98001599 373.87461658 -76.23972741 370.24562304 -75.49855042 366.61680603 C-74.05269531 359.54344461 -72.60042491 352.47141516 -71.1459927 345.399813 C-69.44013262 337.10432049 -67.74117508 328.80741848 -66.04230726 320.51049173 C-61.7065804 299.33791982 -57.35528934 278.16855522 -53 257 C-52.68344319 255.4612911 -52.36688689 253.9225821 -52.05033112 252.38387299 C-46.81020073 226.91368659 -41.56352854 201.44484841 -36.30633903 175.97817743 C-35.07516113 170.01413019 -33.84414811 164.05004893 -32.61328125 158.0859375 C-32.47873394 157.43400051 -32.34418662 156.78206353 -32.20556211 156.11037087 C-27.71715637 134.36102299 -23.24905095 112.60755502 -18.79296875 90.8515625 C-18.57202675 89.77291565 -18.57202675 89.77291565 -18.34662127 88.67247796 C-15.49716252 74.76117775 -12.64918178 60.84957545 -9.80422717 46.93735337 C-8.64810749 41.28386354 -7.49124632 35.63052562 -6.33417702 29.97723007 C-5.63404093 26.55503414 -4.93488301 23.13263934 -4.23576355 19.7102356 C-3.81722062 17.6649675 -3.39862932 15.61970931 -2.97998047 13.57446289 C-2.79215594 12.65352309 -2.60433142 11.73258329 -2.41081524 10.78373623 C-2.23817559 9.94136441 -2.06553595 9.0989926 -1.88766479 8.23109436 C-1.73929609 7.50525681 -1.59092739 6.77941927 -1.43806267 6.03158665 C-1.00240197 4.01113952 -0.50129285 2.0051714 0 0 Z " fill="#030303" transform="translate(1056,43)"/>
<path d="M0 0 C34.32 0 68.64 0 104 0 C102.8748737 10.12613667 102.8748737 10.12613667 102.16796875 13.55419922 C101.93267456 14.70986893 101.93267456 14.70986893 101.69262695 15.8888855 C101.44258911 17.08470749 101.44258911 17.08470749 101.1875 18.3046875 C101.01371826 19.1504837 100.83993652 19.99627991 100.66088867 20.8677063 C100.29635961 22.63778787 99.92988244 24.4074693 99.56152344 26.17675781 C98.99734832 28.88774191 98.43960113 31.5999902 97.8828125 34.3125 C97.52641418 36.03913943 97.16965624 37.76570468 96.8125 39.4921875 C96.56246216 40.70622757 96.56246216 40.70622757 96.30737305 41.9447937 C95.66406882 45.02688009 94.99662478 48.01012565 94 51 C122.38 51 150.76 51 180 51 C178.14375 60.3225 176.2875 69.645 174.375 79.25 C173.80313965 82.12750977 173.2312793 85.00501953 172.64208984 87.96972656 C172.16519648 90.36005745 171.68815442 92.75035868 171.2109375 95.140625 C170.98253174 96.29288574 170.75412598 97.44514648 170.51879883 98.63232422 C167.8215358 112.12132318 164.88329073 125.54464325 162 139 C133.62 139 105.24 139 76 139 C73.525 151.87 73.525 151.87 71 165 C68.23941687 178.67105549 68.23941687 178.67105549 67.28303528 183.3162384 C66.39062438 187.65584056 65.49996725 191.9957918 64.61161804 196.33622742 C62.69376341 205.70520054 60.77253869 215.07347991 58.84838867 224.44116211 C57.65985753 230.22830821 56.47443486 236.01608414 55.29088402 241.80425072 C54.84437375 243.98475557 54.39669012 246.16502052 53.94774818 248.34502602 C46.30709546 277.04997871 46.30709546 277.04997871 51 305 C56.73641325 311.13662813 62.58987263 312.01194026 70.61279297 312.33422852 C96.68036477 312.84650017 116.82892457 295.27344923 135.296875 278.97265625 C139.82102941 275 139.82102941 275 142 275 C136.97914603 301.16129175 128.45373882 328.63381398 112 350 C111.57525391 350.55204102 111.15050781 351.10408203 110.71289062 351.67285156 C94.71221913 372.15325971 74.0212038 384.48748432 48 388 C43.74554399 388.28574453 39.51310715 388.33426503 35.25 388.3125 C34.10764893 388.30758545 32.96529785 388.3026709 31.78833008 388.29760742 C8.88814723 387.98074546 -11.65526263 380.31781029 -28 364 C-29.15822266 362.85917969 -29.15822266 362.85917969 -30.33984375 361.6953125 C-48.35637478 342.90884424 -56.08363077 315.37097261 -56.25 289.8125 C-56.270625 289.07064453 -56.29125 288.32878906 -56.3125 287.56445312 C-56.43015072 269.34329717 -51.72939586 250.94175131 -48 233.21875 C-47.51769624 230.90347195 -47.03593652 228.58808052 -46.5546875 226.27258301 C-45.55341837 221.46148854 -44.5480113 216.6512866 -43.5390625 211.84179688 C-42.25262783 205.70957369 -40.9731334 199.57593032 -39.69628906 193.4417038 C-38.46632748 187.53360677 -37.2334654 181.62611638 -36 175.71875 C-35.65340332 174.05784584 -35.65340332 174.05784584 -35.29980469 172.36338806 C-34.63891915 169.19961424 -33.9760444 166.036264 -33.3125 162.87304688 C-33.12228271 161.96159912 -32.93206543 161.05015137 -32.73608398 160.11108398 C-31.25105668 153.04798353 -29.62391802 146.03697808 -28 139 C-50.77 139 -73.54 139 -97 139 C-94.74949994 124.37174963 -94.74949994 124.37174963 -93.41186523 117.85473633 C-93.26687592 117.14403992 -93.1218866 116.43334351 -92.97250366 115.70111084 C-92.50436698 113.41075503 -92.03166788 111.12137185 -91.55859375 108.83203125 C-91.22734481 107.21876549 -90.89629897 105.60545801 -90.56544495 103.99211121 C-89.87748227 100.64104048 -89.18726934 97.29044382 -88.49536133 93.94018555 C-87.60796771 89.64256534 -86.72607285 85.34383807 -85.84577847 81.0447588 C-85.16585598 77.72702053 -84.48321922 74.4098454 -83.7997303 71.09284019 C-83.47317733 69.50653388 -83.1474422 67.92005899 -82.82253838 66.33341408 C-82.37068272 64.12900733 -81.91521496 61.92537803 -81.45874023 59.72192383 C-81.20051987 58.46873856 -80.9422995 57.21555328 -80.67625427 55.9243927 C-80 53 -80 53 -79 51 C-56.23 51 -33.46 51 -10 51 C-7.525 37.635 -7.525 37.635 -5 24 C-2.525 12.12 -2.525 12.12 0 0 Z " fill="#030303" transform="translate(97,69)"/>
<path d="M0 0 C-4.67736829 25.06384909 -9.87260184 50.0253311 -15 75 C-18.71156444 74.1387171 -21.95587857 72.74849939 -25.4375 71.1875 C-62.73642185 55.02093405 -113.22133764 53.0699298 -151.4921875 67.63671875 C-171.45489895 75.77267487 -186.44180064 88.19256044 -195.375 108 C-205.258018 132.58434948 -204.85412882 161.77781702 -194.71875 186.21875 C-185.55272674 207.00070134 -169.73245744 221.11803194 -148.875 229.5625 C-122.22290172 239.78089341 -93.73964285 235.59140735 -68 225 C-61.57033038 222.13337816 -55.20659172 219.01947053 -49.24609375 215.265625 C-47 214 -47 214 -44 214 C-47.19027466 230.8228404 -50.49768338 247.61816736 -53.96704102 264.38574219 C-54.70273803 267.94879936 -55.43040657 271.5134467 -56.15820312 275.078125 C-56.62971999 277.36208004 -57.10170638 279.64593821 -57.57421875 281.9296875 C-57.89612434 283.51534012 -57.89612434 283.51534012 -58.22453308 285.13302612 C-58.53044121 286.59834274 -58.53044121 286.59834274 -58.8425293 288.09326172 C-59.10636665 289.37461502 -59.10636665 289.37461502 -59.37553406 290.68185425 C-60.00402598 293.01494528 -60.77022524 294.92234414 -62 297 C-63.80566406 298.03320313 -63.80566406 298.03320313 -66.015625 298.78125 C-67.25820068 299.20543213 -67.25820068 299.20543213 -68.52587891 299.63818359 C-69.42483887 299.92258301 -70.32379883 300.20698242 -71.25 300.5 C-72.1786084 300.80115723 -73.1072168 301.10231445 -74.06396484 301.41259766 C-93.1793023 307.36991741 -112.57604907 309.21660061 -132.5 309.1875 C-133.26633759 309.18689575 -134.03267517 309.1862915 -134.82223511 309.18566895 C-185.43065448 309.07812679 -240.02767946 302.73341938 -278 266 C-278.73863281 265.28714844 -279.47726562 264.57429688 -280.23828125 263.83984375 C-309.14773499 233.90341119 -315.00099897 188.46764367 -314.38598633 148.72662354 C-313.80914716 123.52806072 -307.20622147 98.85307347 -294.98242188 76.77636719 C-294.01228847 75.02221941 -293.07617739 73.24939497 -292.140625 71.4765625 C-285.32524834 58.94415501 -276.72118622 47.58624639 -267.00390625 37.15625 C-265.14217233 35.15298076 -263.3826884 33.09426703 -261.625 31 C-235.95857279 1.68375974 -197.59640961 -17.80234635 -160 -26 C-159.28247559 -26.16371094 -158.56495117 -26.32742187 -157.82568359 -26.49609375 C-106.24951027 -37.79406519 -45.45770554 -25.21990147 0 0 Z " fill="#030303" transform="translate(997,149)"/>
<path d="M0 0 C-3.50716431 19.88829883 -7.1691564 39.74437514 -10.90606689 59.59057617 C-11.59782012 63.26593722 -12.28809225 66.94157645 -12.97851562 70.6171875 C-14.31761962 77.74505365 -15.658268 84.87262802 -17 92 C-20.47954397 92.75831432 -22.91370545 93.05757438 -26.3984375 92.2578125 C-27.20796875 92.07863281 -28.0175 91.89945312 -28.8515625 91.71484375 C-29.68429687 91.52019531 -30.51703125 91.32554687 -31.375 91.125 C-50.21071086 86.85753426 -71.27818374 85.32737595 -90 91 C-90.62841797 91.18804199 -91.25683594 91.37608398 -91.90429688 91.56982422 C-118.49330308 99.7857487 -138.02476405 118.63987472 -150.8828125 142.8984375 C-151.59023882 144.26474761 -152.29598918 145.63192687 -153 147 C-153.51191895 147.97114746 -153.51191895 147.97114746 -154.03417969 148.96191406 C-163.69402881 167.4404197 -168.80537835 187.24407349 -173.0625 207.52734375 C-173.44919606 209.35177058 -173.83616194 211.17614025 -174.22337341 213.00045776 C-179.27329037 236.85359609 -184.16075425 260.7411066 -189.0625 284.625 C-192.341875 300.58875 -195.62125 316.5525 -199 333 C-233.32 333 -267.64 333 -303 333 C-300.74994729 319.49968374 -300.74994729 319.49968374 -299.76429749 314.66795349 C-299.53978912 313.56211473 -299.31528076 312.45627598 -299.08396912 311.31692696 C-298.84364456 310.14427221 -298.60332001 308.97161747 -298.35571289 307.76342773 C-298.09588623 306.48692289 -297.83605957 305.21041805 -297.56835938 303.89523125 C-296.85558142 300.39386304 -296.14012339 296.89304743 -295.4241364 293.39233422 C-294.65346937 289.62206113 -293.88519769 285.8512998 -293.11656189 282.08061218 C-291.62096083 274.74586487 -290.12287223 267.41162774 -288.62383121 260.07758278 C-287.40779987 254.12796429 -286.19274471 248.17814717 -284.97827148 242.22821045 C-272.40367218 180.62556111 -259.74862091 119.03951274 -247.01902771 57.46870422 C-244.91485115 47.28954352 -242.81459213 37.10968994 -240.73828125 26.92480469 C-240.40368281 25.28660337 -240.06904896 23.64840928 -239.734375 22.01022339 C-239.14143116 19.10762319 -238.55198455 16.20434651 -237.96484375 13.30056763 C-237.58972656 11.46351761 -237.58972656 11.46351761 -237.20703125 9.58935547 C-236.9953833 8.54536591 -236.78373535 7.50137634 -236.56567383 6.42575073 C-236 4 -236 4 -235 2 C-201.01 2 -167.02 2 -132 2 C-133.12473489 12.12261404 -133.12473489 12.12261404 -133.84790039 15.53833008 C-134.00799088 16.30554886 -134.16808136 17.07276764 -134.33302307 17.86323547 C-134.58776649 19.05435188 -134.58776649 19.05435188 -134.84765625 20.26953125 C-135.02380966 21.11295578 -135.19996307 21.95638031 -135.38145447 22.82536316 C-135.93782659 25.48859523 -136.49950677 28.15066029 -137.0625 30.8125 C-137.80795233 34.33890455 -138.54810254 37.86636299 -139.28515625 41.39453125 C-139.54293602 42.60082939 -139.54293602 42.60082939 -139.80592346 43.83149719 C-140.53471234 47.32111145 -141 50.41851061 -141 54 C-140.45214844 53.23558594 -139.90429688 52.47117188 -139.33984375 51.68359375 C-117.34022035 21.66856688 -86.81528287 3.05570984 -50.125 -3.375 C-32.99039327 -5.35363911 -16.66692708 -4.17630011 0 0 Z " fill="#030303" transform="translate(550,125)"/>
<path d="M0 0 C34.32 0 68.64 0 104 0 C98.254528 29.8764544 98.254528 29.8764544 96.10693359 40.36694336 C95.73118808 42.21149644 95.73118808 42.21149644 95.34785175 44.09331322 C94.67362406 47.40149058 93.99812072 50.70940189 93.32194686 54.01718163 C92.58754428 57.61136052 91.85480802 61.20587924 91.1217804 64.80033875 C89.5367539 72.57082784 87.94938818 80.34083785 86.36141586 88.1107254 C85.37101898 92.95670101 84.38112418 97.80277911 83.39126587 102.64886475 C78.7713158 125.26557361 74.14448065 147.88087024 69.51298428 170.49521732 C69.0023671 172.988442 68.49178666 175.48167419 67.9812088 177.97490692 C63.67110842 199.02102047 59.3536357 220.06560651 55.02678084 241.10828191 C53.98409043 246.18002152 52.94328997 251.25214675 51.90325928 256.32443237 C50.51312095 263.10392572 49.11895656 269.88258008 47.72191429 276.66065407 C47.210899 279.14293719 46.70117424 281.62548636 46.19280434 284.10831261 C45.50405005 287.47089536 44.81065304 290.83248622 44.1159668 294.19384766 C43.91415487 295.18459258 43.71234295 296.17533751 43.50441551 297.196105 C43.31928209 298.08695828 43.13414867 298.97781157 42.94340515 299.8956604 C42.78418422 300.66985132 42.62496328 301.44404224 42.46091747 302.2416935 C42 304 42 304 41 305 C39.65927183 305.09527037 38.31357497 305.1218877 36.96946716 305.12025452 C36.10143463 305.12162918 35.2334021 305.12300385 34.33906555 305.12442017 C32.89976936 305.11902725 32.89976936 305.11902725 31.43139648 305.11352539 C30.42663269 305.11367142 29.4218689 305.11381744 28.38665771 305.1139679 C25.04811483 305.1132683 21.70962695 305.10547374 18.37109375 305.09765625 C16.06323782 305.09579224 13.75538149 305.09436826 11.44752502 305.09336853 C5.35982174 305.08954204 -0.72785786 305.07971065 -6.81555176 305.06866455 C-13.02221354 305.05845323 -19.22887913 305.05387151 -25.43554688 305.04882812 C-37.62370835 305.0380885 -49.81185221 305.02101052 -62 305 C-60.42072658 293.43168298 -58.04376403 282.04879667 -55.6796875 270.62109375 C-55.23163224 268.44292588 -54.78387767 266.26469615 -54.33639526 264.08641052 C-53.36540033 259.36278535 -52.39240403 254.63957848 -51.41784668 249.91668701 C-49.85130831 242.32481544 -48.28905031 234.73206709 -46.72753906 227.13916016 C-46.17873724 224.47081978 -45.62990332 221.80248602 -45.08105469 219.13415527 C-44.94255993 218.46082366 -44.80406518 217.78749204 -44.66137362 217.09375644 C-43.65204774 212.18694959 -42.64205861 207.28027951 -41.63183594 202.37365723 C-37.06981073 180.21472174 -32.52138204 158.05301272 -27.97813082 135.89022088 C-27.43095577 133.22103054 -26.88374796 130.55184692 -26.33652878 127.88266563 C-24.52440649 119.04363323 -22.71238594 110.20457998 -20.90045166 101.36550903 C-20.72259459 100.49787927 -20.54473752 99.63024952 -20.36149085 98.73632795 C-19.46662898 94.37095903 -18.57178421 90.00558661 -17.67696381 85.6402092 C-15.78280025 76.39965805 -13.88833244 67.15916943 -11.99306953 57.91884369 C-11.05012387 53.32145673 -10.10759058 48.72398552 -9.16540968 44.12644178 C-8.58355311 41.28771677 -8.00126984 38.4490794 -7.41887307 35.61046517 C-7.03281324 33.72821384 -6.64723517 31.84586372 -6.26168633 29.96350765 C-4.21007068 19.96776529 -2.10225007 9.98568783 0 0 Z " fill="#020202" transform="translate(577,152)"/>
<path d="M0 0 C0.63534668 0.20898926 1.27069336 0.41797852 1.92529297 0.63330078 C22.27560469 7.56206032 41.74197567 21.21474656 51.5078125 40.67578125 C52.73382703 43.21200915 53.93073395 45.76120413 55.125 48.3125 C55.78326423 49.69758095 56.4423787 51.08225811 57.10229492 52.46655273 C59.08505802 56.63652569 61.04594718 60.81650907 63 65 C63.54962402 66.17626953 64.09924805 67.35253906 64.66552734 68.56445312 C66.73361904 73.00133253 68.79616505 77.44061652 70.84277344 81.88745117 C74.1188948 88.9972781 77.4602561 96.07154095 80.84765625 103.12890625 C81.68783897 104.88398781 82.52792691 106.63911474 83.36791992 108.39428711 C84.61624701 111.00230863 85.86720157 113.60888775 87.12686157 116.2114563 C88.2972494 118.62989149 89.45807264 121.05270904 90.6171875 123.4765625 C90.97478653 124.20851334 91.33238556 124.94046417 91.70082092 125.69459534 C92.52800165 127.43546011 93.27285196 129.21503674 94 131 C93.67 131.66 93.34 132.32 93 133 C92.20980469 132.39414063 91.41960937 131.78828125 90.60546875 131.1640625 C65.63966757 112.44348288 38.96621461 102.85099964 7.53417969 106.26806641 C-8.77233574 108.86579205 -23.26500258 117.91353573 -36 128 C-36.94359375 128.74636719 -37.8871875 129.49273437 -38.859375 130.26171875 C-48.07490884 138.10557631 -55.3106818 147.96602269 -62 158 C-66.0670875 156.48752302 -68.04680617 153.69457667 -70.4375 150.25 C-70.86579102 149.63858154 -71.29408203 149.02716309 -71.73535156 148.3972168 C-88.86978218 123.44970565 -102.39089815 95.87864773 -114 68 C-114.35658691 67.15679199 -114.71317383 66.31358398 -115.08056641 65.44482422 C-116.01366518 63.22149232 -116.91984172 60.98982312 -117.8125 58.75 C-118.29332031 57.54859375 -118.77414062 56.3471875 -119.26953125 55.109375 C-120.14020188 51.40320483 -119.67456977 50.34659799 -118 47 C-116.25097656 44.86279297 -116.25097656 44.86279297 -114.140625 42.7421875 C-113.36178955 41.95706787 -112.5829541 41.17194824 -111.78051758 40.36303711 C-110.94544678 39.54198486 -110.11037598 38.72093262 -109.25 37.875 C-108.39108154 37.02623291 -107.53216309 36.17746582 -106.6472168 35.30297852 C-99.81176646 28.63186945 -92.84586248 22.45009577 -85 17 C-84.38092773 16.56896973 -83.76185547 16.13793945 -83.12402344 15.69384766 C-58.33189038 -1.27213993 -29.23603872 -9.65655038 0 0 Z " fill="#FDFDFD" transform="translate(1488,123)"/>
<path d="M0 0 C3.51389945 3.30600533 6.10230563 6.46086374 8.48828125 10.6484375 C9.10815918 11.72851074 9.72803711 12.80858398 10.36669922 13.92138672 C11.32987061 15.63092529 11.32987061 15.63092529 12.3125 17.375 C12.98677796 18.56156758 13.66142214 19.74792712 14.33642578 20.93408203 C16.2371557 24.28220587 18.12013824 27.64011168 20 31 C20.65766357 32.16789062 20.65766357 32.16789062 21.32861328 33.359375 C31.43120876 51.37470981 39.21763764 70.5172633 46 90 C46.31614258 90.8981543 46.63228516 91.79630859 46.95800781 92.72167969 C48.52107334 97.4604412 49.69916762 101.1114112 48 106 C46.171875 108.8671875 46.171875 108.8671875 43.75 111.875 C43.08943604 112.70257813 43.08943604 112.70257813 42.41552734 113.546875 C41.45832217 114.74213641 40.49570304 115.93307792 39.52832031 117.12011719 C37.95930247 119.05005927 36.41198606 120.99594656 34.8671875 122.9453125 C28.34674113 131.12752312 21.53555858 138.92915354 14.359375 146.5390625 C12.27695392 148.77706677 10.26878902 151.07966454 8.25 153.375 C5.07244588 156.91700477 1.78179278 160.10463409 -1.85546875 163.16796875 C-4.36719902 165.31369097 -6.76915184 167.56214129 -9.1875 169.8125 C-48.98827534 206 -48.98827534 206 -67 206 C-67.43642822 205.17725586 -67.87285645 204.35451172 -68.32250977 203.50683594 C-76.02389208 188.99141542 -83.73115181 174.47945669 -91.5 160 C-97.70219788 148.43984322 -103.86638382 136.8598758 -110.015625 125.27148438 C-110.51716599 124.32657639 -110.51716599 124.32657639 -111.02883911 123.36257935 C-111.68895694 122.11830395 -112.34853267 120.87374079 -113.00753784 119.62887573 C-114.75019006 116.33991196 -116.50674237 113.05923423 -118.28173828 109.78759766 C-118.83952721 108.75509636 -118.83952721 108.75509636 -119.40858459 107.70173645 C-120.12425358 106.37800356 -120.8432222 105.05604785 -121.56590271 103.73612976 C-124 99.2241305 -124 99.2241305 -124 97 C-123.09121094 96.85304688 -122.18242188 96.70609375 -121.24609375 96.5546875 C-72.10066542 87.78411875 -35.65013462 46.66299857 -6.91796875 8.8203125 C-4.6550615 5.84445447 -2.35294703 2.90557623 0 0 Z " fill="#FEFEFE" transform="translate(1425,284)"/>
<path d="M0 0 C1.21042969 0.42539062 2.42085937 0.85078125 3.66796875 1.2890625 C14.91251881 5.41768812 24.16460104 11.26956735 33.3125 18.9375 C33.88750244 19.41525879 34.46250488 19.89301758 35.05493164 20.38525391 C43.16180935 27.3904428 47.48651034 35.55668131 51.8125 45.25 C52.6480582 47.08763333 53.48368347 48.92523724 54.32150269 50.76184082 C54.91832545 52.07021486 55.51410881 53.37906347 56.10891724 54.68835449 C58.50687684 59.95628508 60.96684555 65.19325154 63.44921875 70.421875 C63.82689896 71.2177301 64.20457916 72.01358521 64.59370422 72.83355713 C66.09356106 75.99192164 67.59462398 79.14970182 69.09927368 82.30578613 C73.29878467 91.1191481 77.36676346 99.93437614 81 109 C77.07823236 107.71698597 73.35920972 106.32009724 69.625 104.5625 C51.74023847 96.36732625 31.78234522 93.64508116 12.67578125 99.6171875 C-19.01724851 111.53996384 -38.5939848 133.32893445 -57 161 C-61.50240075 156.90018618 -64.56119517 152.35220275 -67.75 147.1875 C-68.27658203 146.34219727 -68.80316406 145.49689453 -69.34570312 144.62597656 C-74.13851487 136.87769464 -78.68149758 129.02132527 -83 121 C-83.44811035 120.17081055 -83.8962207 119.34162109 -84.35791016 118.48730469 C-92.53737634 103.279864 -99.99862433 87.78330832 -107 72 C-107.3697998 71.16774902 -107.73959961 70.33549805 -108.12060547 69.47802734 C-109.03781675 67.38889847 -109.93238322 65.29247729 -110.8125 63.1875 C-111.27269531 62.08792969 -111.73289062 60.98835938 -112.20703125 59.85546875 C-113.10711231 56.61429015 -113.18800447 55.13793586 -112 52 C-109.9609375 49.38671875 -109.9609375 49.38671875 -107.375 46.6875 C-106.45103282 45.71168501 -105.52785788 44.73511928 -104.60546875 43.7578125 C-103.31576172 42.39269531 -103.31576172 42.39269531 -102 41 C-100.88845153 39.6937457 -99.78335751 38.38194556 -98.6875 37.0625 C-75.0479465 10.13205738 -36.65440915 -13.1936033 0 0 Z " fill="#FDFDFD" transform="translate(1588,332)"/>
<path d="M0 0 C2.31339648 2.11982405 3.70573643 4.07110435 5.05859375 6.89453125 C5.43757813 7.6726416 5.8165625 8.45075195 6.20703125 9.25244141 C6.61308594 10.09726074 7.01914063 10.94208008 7.4375 11.8125 C10.96694032 19.01022259 14.62688986 26.10631427 18.5 33.125 C23.75111771 42.65393798 28.86029481 52.25274247 33.9375 61.875 C41.19988648 75.6341059 48.54788802 89.34247148 56 103 C52.28311716 106.96420394 48.39577783 109.94501497 43.875 112.9375 C24.52207621 126.01830893 6.35377006 140.45895419 -11.38916016 155.62744141 C-13.03894684 157.03318568 -14.69654745 158.42927109 -16.35546875 159.82421875 C-27.5447433 169.27117475 -38.42408545 179.12446764 -48.53930664 189.72143555 C-50 191 -50 191 -52 191 C-66.93291806 160.88405589 -79.36815439 129.19898937 -88.6875 96.875 C-88.91928955 96.07143066 -89.1510791 95.26786133 -89.38989258 94.43994141 C-89.98087484 92.29180093 -90.54963554 90.1824462 -91 88 C-91.29938477 86.72664795 -91.59876953 85.4532959 -91.90722656 84.14135742 C-92.33313696 80.44765533 -92.03829099 80.05604344 -89.76196289 76.72436523 C-88.68857901 75.64566897 -87.59027871 74.59138542 -86.47265625 73.55859375 C-85.89092148 72.98722183 -85.30918671 72.41584991 -84.70982361 71.8271637 C-82.84749094 70.00842835 -80.95613493 68.22356122 -79.0625 66.4375 C-77.82287085 65.23447822 -76.58521782 64.02941664 -75.34960938 62.82226562 C-69.9037746 57.52859341 -64.38268507 52.33624846 -58.61743164 47.38989258 C-56.25430619 45.35920983 -53.97595863 43.23906598 -51.6875 41.125 C-46.28529859 36.20381653 -40.68770102 31.58498347 -35 27 C-33.76994984 25.99065906 -32.5408379 24.98017402 -31.3125 23.96875 C-21.17156377 15.63788941 -10.92931303 7.28620869 0 0 Z " fill="#FEFEFE" transform="translate(1819,236)"/>
<path d="M0 0 C2.70715008 2.41548749 4.21429696 4.97261957 5.8984375 8.171875 C6.73097046 9.73929443 6.73097046 9.73929443 7.58032227 11.33837891 C8.17256592 12.46421387 8.76480957 13.59004883 9.375 14.75 C10.638153 17.12962314 11.90630726 19.50655635 13.17578125 21.8828125 C13.65708748 22.78469803 13.65708748 22.78469803 14.14811707 23.70480347 C17.19494173 29.39754596 20.36306554 35.01705204 23.5625 40.625 C29.65911973 51.33132675 35.5348361 62.14911559 41.37841797 72.99511719 C44.11490668 78.06598486 46.86848998 83.127495 49.625 88.1875 C50.12201416 89.10217041 50.61902832 90.01684082 51.13110352 90.95922852 C51.82804321 92.23817993 51.82804321 92.23817993 52.5390625 93.54296875 C52.96477539 94.32978027 53.39048828 95.1165918 53.82910156 95.92724609 C55.06029156 98.1762442 55.06029156 98.1762442 56.9609375 100.86328125 C58 103 58 103 57.46484375 105.1328125 C55.69944342 107.38310945 54.04367062 108.44281103 51.5625 109.875 C33.58180974 120.89845586 16.86898416 134.57240966 1.37109375 148.83984375 C0.02407441 150.06702941 -1.3317261 151.28512659 -2.71362305 152.47290039 C-8.28693292 157.26382067 -13.50423568 162.35468983 -18.6875 167.5625 C-19.51572266 168.38685547 -20.34394531 169.21121094 -21.19726562 170.06054688 C-25.35265327 174.22258846 -29.33699705 178.39700037 -33 183 C-37.57527516 178.82916905 -40.74735603 174.14328062 -44.0625 168.9375 C-44.62904297 168.05481445 -45.19558594 167.17212891 -45.77929688 166.26269531 C-61.58832032 141.49405291 -75.71864401 116.16772889 -87 89 C-87.56497192 87.66666626 -87.56497192 87.66666626 -88.14135742 86.30639648 C-89.15825978 83.57489901 -89.17719353 82.64608102 -88 80 C-86.1796875 77.703125 -86.1796875 77.703125 -83.875 75.25 C-81.16281636 72.34073728 -78.49510082 69.41657563 -75.91015625 66.39453125 C-71.5238694 61.36285392 -66.81194706 56.66176807 -62.0847168 51.9543457 C-60.56508332 50.4400742 -59.05087483 48.9205257 -57.53710938 47.40039062 C-52.19676796 42.05612208 -46.75766548 36.8964523 -41 32 C-39.95141412 31.07485221 -38.90446348 30.14784679 -37.859375 29.21875 C-25.86397425 18.68269046 -13.01535238 9.23161602 0 0 Z " fill="#FDFDFD" transform="translate(1709,26)"/>
<path d="M0 0 C2.33696658 2.15742739 3.86558 4.26584826 5.390625 7.05078125 C6.07209595 8.29214844 6.07209595 8.29214844 6.76733398 9.55859375 C7.25661377 10.46738281 7.74589355 11.37617188 8.25 12.3125 C9.03129272 13.75882813 9.03129272 13.75882813 9.82836914 15.234375 C22.03478222 38.01345562 33.0334893 61.16002401 43 85 C43.66878174 86.5778125 43.66878174 86.5778125 44.35107422 88.1875 C45.53940769 90.99454376 46.71121997 93.80770326 47.875 96.625 C48.21523193 97.43018066 48.55546387 98.23536133 48.90600586 99.06494141 C50.4258855 102.82644739 51.3568912 105.13860548 50 109 C36.71722322 129.66560282 17.05789754 148.10390336 -6 157 C-6.98097656 157.391875 -7.96195313 157.78375 -8.97265625 158.1875 C-15.27639022 160.43715971 -21.34492882 161.48919895 -28 161.75 C-29.07725342 161.827948 -29.07725342 161.827948 -30.17626953 161.9074707 C-32.25 161.921875 -32.25 161.921875 -36 161 C-37.32043457 159.44506836 -37.32043457 159.44506836 -38.48632812 157.44921875 C-38.91083252 156.72337585 -39.33533691 155.99753296 -39.77270508 155.24969482 C-41.62765669 151.84947295 -43.33304206 148.40099824 -44.96875 144.890625 C-45.3257045 144.13496246 -45.682659 143.37929993 -46.0504303 142.60073853 C-47.20518884 140.15276605 -48.35270454 137.70147786 -49.5 135.25 C-50.30944905 133.52993867 -51.11926769 131.81005123 -51.92944336 130.09033203 C-57.01487337 119.2842455 -62.0601486 108.45935531 -67.06713867 97.61669922 C-70.20012673 90.84087481 -73.37438921 84.08636379 -76.578125 77.34375 C-77.16683632 76.10336472 -77.16683632 76.10336472 -77.7674408 74.83792114 C-79.71272226 70.73977354 -81.66187137 66.64354569 -83.61743164 62.55029297 C-84.32454687 61.06225305 -85.0315046 59.57413827 -85.73828125 58.0859375 C-86.23409698 57.05370056 -86.23409698 57.05370056 -86.7399292 56.00061035 C-89 51.22706549 -89 51.22706549 -89 49 C-84.58952658 47.63015884 -80.18619558 46.29058282 -75.69921875 45.19140625 C-53.06750789 39.62623145 -31.39214355 29.71444482 -14 14 C-13.09507813 13.21367187 -12.19015625 12.42734375 -11.2578125 11.6171875 C-7.09637537 7.96236011 -3.38074553 4.4049805 0 0 Z " fill="#FDFDFD" transform="translate(1675,210)"/>
<path d="M0 0 C34.32 0 68.64 0 104 0 C101.74931893 14.62942694 101.74931893 14.62942694 100.41186523 21.16113281 C100.26687592 21.87343552 100.1218866 22.58573822 99.97250366 23.31962585 C99.50440418 25.61479481 99.03172863 27.90898924 98.55859375 30.203125 C98.22737434 31.81879251 97.89632791 33.43449549 97.56544495 35.05023193 C96.87753713 38.40550972 96.18728615 41.76029448 95.49536133 45.11474609 C94.60728966 49.42129809 93.72566537 53.72914187 92.84577847 58.03737259 C92.16648997 61.35949022 91.48365076 64.68087021 90.7997303 68.00203705 C90.47282809 69.59188958 90.14709352 71.18198265 89.82253838 72.77231598 C89.37158726 74.97951516 88.91582559 77.1856658 88.45874023 79.39160156 C88.20051987 80.64700745 87.9422995 81.90241333 87.67625427 83.19586182 C87 86 87 86 86 87 C84.65927183 87.09527037 83.31357497 87.1218877 81.96946716 87.12025452 C81.10143463 87.12162918 80.2334021 87.12300385 79.33906555 87.12442017 C78.37953476 87.12082489 77.42000397 87.11722961 76.43139648 87.11352539 C75.42663269 87.11367142 74.4218689 87.11381744 73.38665771 87.1139679 C70.04811483 87.1132683 66.70962695 87.10547374 63.37109375 87.09765625 C61.06323782 87.09579224 58.75538149 87.09436826 56.44752502 87.09336853 C50.35982174 87.08954204 44.27214214 87.07971065 38.18444824 87.06866455 C31.97778646 87.05845323 25.77112087 87.05387151 19.56445312 87.04882812 C7.37629165 87.0380885 -4.81185221 87.02101052 -17 87 C-16.37326037 81.54681443 -15.52315547 76.21464596 -14.41772461 70.83984375 C-14.2590091 70.0558168 -14.1002936 69.27178986 -13.93676853 68.46400452 C-13.42807497 65.95459527 -12.91530856 63.4460392 -12.40234375 60.9375 C-12.08538154 59.37700817 -11.76868947 57.81646145 -11.45227051 56.25585938 C-10.28394641 50.50324196 -9.11041425 44.75168327 -7.9375 39 C-5.318125 26.13 -2.69875 13.26 0 0 Z " fill="#040404" transform="translate(599,43)"/>
<path d="M0 0 C0.66 0.33 1.32 0.66 2 1 C-5.26 8.26 -12.52 15.52 -20 23 C-20.66 22.67 -21.32 22.34 -22 22 C-8.38735178 7.03853755 -8.38735178 7.03853755 -1 1 C-0.67 0.67 -0.34 0.34 0 0 Z " fill="#5D5D5D" transform="translate(750,166)"/>
<path d="M0 0 C2.01136276 2.55991624 3.62845496 5.04590299 5 8 C4.01 8.33 3.02 8.66 2 9 C0.14223235 5.86501708 -0.20140476 3.62528568 0 0 Z " fill="#2C2C2C" transform="translate(1634,363)"/>
</svg>
